<svg xmlns="http://www.w3.org/2000/svg" xmlns:xlink="http://www.w3.org/1999/xlink" width="500" zoomAndPan="magnify" viewBox="0 0 375 374.999991" height="500" preserveAspectRatio="xMidYMid meet" version="1.0"><defs><clipPath id="7d75915094"><path d="M 0 1 L 337.5 1 L 337.5 374.769531 L 0 374.769531 Z M 0 1 " clip-rule="nonzero"/></clipPath></defs><g clip-path="url(#7d75915094)"><path fill="#000000" d="M 336.925781 193.289062 C 336.597656 191.851562 336.308594 190.457031 335.980469 189.019531 C 335.855469 188.40625 335.816406 187.664062 335.445312 187.214844 C 335.078125 186.804688 334.335938 186.722656 334.007812 186.640625 C 333.476562 185.613281 333.226562 184.628906 332.613281 183.972656 C 331.09375 182.289062 330.433594 179.90625 328.300781 178.757812 C 328.21875 178.71875 328.136719 178.511719 328.136719 178.429688 C 328.257812 177.566406 327.519531 177.402344 327.027344 176.992188 C 326.617188 176.707031 326.285156 176.296875 325.917969 175.964844 C 324.355469 174.488281 323.492188 172.558594 322.589844 170.710938 C 322.304688 170.136719 321.933594 169.316406 321.441406 169.152344 C 319.632812 168.617188 318.894531 167.019531 317.660156 165.910156 C 317.210938 165.5 316.550781 165.210938 316.019531 164.882812 C 315.648438 164.636719 315.074219 164.472656 314.949219 164.144531 C 314.210938 162.460938 312.816406 161.558594 311.046875 160.777344 C 311.5 160.449219 311.828125 160.203125 312.199219 159.917969 C 311.992188 159.628906 311.871094 159.34375 311.664062 159.21875 C 310.351562 158.5625 309.324219 157.578125 308.460938 156.425781 C 308.171875 156.058594 307.761719 155.851562 307.394531 155.566406 C 305.832031 154.332031 303.738281 153.800781 302.628906 151.953125 C 302.464844 151.664062 301.972656 151.542969 301.601562 151.460938 C 298.933594 150.96875 297.332031 149.078125 295.769531 147.148438 C 295.195312 146.410156 294.703125 145.753906 293.675781 145.589844 C 292.933594 145.46875 292.238281 144.933594 291.660156 144.441406 C 290.675781 143.621094 289.773438 142.71875 288.703125 141.730469 C 289.691406 141.402344 290.636719 141.15625 291.539062 140.789062 C 293.304688 140.089844 295.03125 139.390625 296.753906 138.613281 C 298.234375 137.957031 299.835938 137.421875 301.066406 136.4375 C 302.421875 135.328125 303.738281 134.261719 305.296875 133.441406 C 306.488281 132.78125 307.515625 131.796875 308.503906 130.855469 C 310.515625 128.882812 312.445312 126.871094 314.375 124.859375 C 314.785156 124.449219 314.992188 123.835938 315.28125 123.34375 C 315.484375 122.929688 315.648438 122.480469 315.976562 122.152344 C 317.085938 121.042969 318.484375 120.222656 318.648438 118.417969 C 318.648438 118.332031 318.769531 118.167969 318.894531 118.128906 C 320.949219 117.144531 321.6875 115.050781 322.671875 113.285156 C 324.070312 110.738281 325.464844 108.152344 326.285156 105.320312 C 326.984375 102.980469 328.585938 100.886719 328.175781 98.261719 C 329.160156 96.125 328.464844 93.949219 328.339844 91.734375 C 329.132812 90.558594 329.4375 89.175781 329.246094 87.589844 C 329.246094 87.382812 329.246094 87.179688 329.246094 87.011719 C 329.820312 85.289062 329.246094 83.769531 328.503906 82.210938 C 328.300781 81.800781 328.011719 81.265625 328.136719 80.898438 C 328.585938 79.5 328.875 78.1875 327.929688 76.914062 C 327.890625 76.832031 328.011719 76.667969 328.011719 76.546875 C 328.257812 73.671875 327.230469 71.414062 324.972656 69.527344 C 324.152344 68.871094 323.453125 67.886719 323.042969 66.695312 C 322.136719 64.027344 320.90625 61.523438 318.484375 59.757812 C 317.539062 59.101562 316.59375 58.320312 315.894531 57.375 C 315.074219 56.308594 314.210938 55.652344 312.855469 55.488281 C 311.5 55.324219 310.554688 54.296875 309.898438 53.1875 C 309.570312 52.65625 309.609375 51.835938 309.691406 51.179688 C 309.816406 49.496094 310.308594 47.8125 310.226562 46.167969 C 310.105469 43.007812 311.089844 39.808594 309.816406 36.6875 C 309.734375 36.480469 309.777344 36.113281 309.898438 35.988281 C 310.472656 35.292969 310.023438 34.636719 309.898438 33.9375 C 309.777344 33.402344 309.609375 32.789062 309.652344 32.253906 C 309.816406 31.0625 309.40625 30.121094 308.832031 29.09375 C 308.335938 28.230469 307.84375 27.207031 307.804688 26.21875 C 307.761719 25.359375 307.558594 24.703125 307.105469 24.085938 C 305.832031 22.402344 304.683594 20.597656 303.164062 19.199219 C 301.480469 17.601562 299.464844 16.367188 297.617188 15.054688 C 297.617188 14.808594 297.824219 14.398438 297.699219 14.152344 C 297.25 13.167969 296.46875 12.46875 295.359375 12.261719 C 294.457031 12.097656 293.714844 11.769531 293.140625 10.867188 C 292.402344 9.757812 291.292969 9.101562 289.855469 8.898438 C 288.253906 8.691406 286.652344 8.734375 285.132812 7.953125 C 284.144531 7.460938 283.078125 7.132812 282.050781 6.761719 C 281.476562 6.558594 280.820312 6.476562 280.203125 6.351562 C 279.914062 6.3125 279.503906 6.351562 279.300781 6.230469 C 278.355469 5.574219 277.328125 5.738281 276.257812 5.777344 C 275.152344 5.859375 274.042969 5.941406 273.054688 5.160156 C 272.808594 4.957031 272.441406 4.875 272.152344 4.832031 C 270.140625 4.585938 268.128906 4.300781 266.113281 4.136719 C 264.675781 4.011719 263.199219 3.929688 261.761719 4.136719 C 261.0625 4.21875 260.527344 4.300781 259.953125 3.847656 C 259.050781 3.152344 258.0625 3.109375 256.996094 3.355469 C 256.296875 3.519531 255.3125 3.5625 254.738281 3.234375 C 253.628906 2.574219 252.558594 2.535156 251.328125 2.65625 C 250.136719 2.78125 248.90625 3.191406 247.671875 2.574219 C 247.386719 2.410156 246.890625 2.65625 246.523438 2.65625 C 245.824219 2.617188 245.042969 2.65625 244.511719 2.371094 C 243.113281 1.632812 241.71875 1.632812 240.363281 2.371094 C 239.582031 2.78125 239.046875 2.699219 238.390625 2.246094 C 237.117188 1.34375 235.679688 1.34375 234.242188 1.671875 C 233.089844 1.917969 231.984375 2.289062 230.875 2.535156 C 230.585938 2.617188 230.09375 2.574219 229.96875 2.410156 C 228.328125 0.523438 225.945312 1.796875 224.054688 1.015625 C 221.179688 1.835938 218.222656 0.933594 215.347656 1.261719 C 214.648438 1.34375 213.953125 1.097656 213.210938 1.097656 C 212.71875 1.097656 212.183594 1.097656 211.691406 1.222656 C 209.636719 1.753906 207.625 2.699219 205.53125 1.386719 C 205.324219 1.261719 205.039062 1.261719 204.75 1.222656 C 203.191406 1.222656 201.628906 1.058594 200.070312 1.179688 C 199.042969 1.261719 198.015625 1.550781 197.070312 1.960938 C 196.453125 2.246094 196.042969 2.207031 195.425781 2.082031 C 193.90625 1.753906 192.347656 1.507812 190.828125 1.46875 C 189.183594 1.386719 187.582031 2.492188 185.855469 1.835938 C 185.691406 1.796875 185.488281 1.917969 185.28125 1.917969 C 184.460938 2.042969 183.640625 2.164062 182.816406 2.207031 C 181.789062 2.246094 180.722656 2.207031 179.695312 2.207031 C 177.558594 2.289062 175.382812 2.453125 173.246094 2.574219 C 171.441406 2.699219 169.550781 2.410156 168.195312 3.929688 C 165.730469 2.535156 163.265625 3.070312 160.84375 3.355469 C 159.941406 3.480469 159.078125 3.726562 158.171875 3.726562 C 155.75 3.808594 153.328125 3.726562 150.945312 3.808594 C 149.792969 3.847656 148.644531 4.421875 147.578125 4.257812 C 145.851562 3.972656 144.207031 4.09375 142.523438 4.21875 C 139.445312 4.421875 136.363281 4.503906 133.28125 4.710938 C 132.832031 4.710938 132.339844 4.792969 131.96875 4.996094 C 131.351562 5.328125 130.777344 5.285156 130.121094 5.160156 C 128.722656 4.875 127.285156 4.914062 125.929688 5.65625 C 125.601562 5.820312 125.234375 5.902344 124.863281 5.984375 C 124.207031 6.148438 123.507812 6.3125 122.851562 6.476562 C 122.027344 6.640625 121.25 6.925781 120.425781 6.96875 C 119.6875 6.96875 118.90625 6.804688 118.128906 6.597656 C 115.5 5.941406 112.910156 6.476562 110.28125 6.597656 C 108.722656 6.679688 107.242188 7.089844 105.683594 7.050781 C 104.246094 7.007812 102.972656 7.871094 101.410156 7.914062 C 98.945312 7.953125 96.480469 7.460938 94.015625 8.117188 C 92.824219 8.40625 91.550781 8.28125 90.320312 8.40625 C 88.636719 8.570312 86.953125 8.898438 85.269531 8.980469 C 81.734375 9.183594 78.285156 9.839844 74.875 10.664062 C 72.78125 11.15625 70.644531 11.769531 68.550781 11.730469 C 65.511719 11.730469 62.84375 12.878906 60.050781 13.578125 C 58.570312 13.988281 57.09375 14.847656 55.53125 15.261719 C 55.160156 15.34375 54.792969 15.546875 54.464844 15.753906 C 52.574219 16.902344 50.601562 17.96875 48.835938 19.28125 C 46.660156 20.882812 44.566406 22.691406 42.511719 24.453125 C 41.9375 24.949219 41.8125 25.933594 41.238281 26.425781 C 39.636719 27.863281 38.484375 29.585938 37.542969 31.472656 C 37.335938 31.886719 37.007812 32.253906 36.636719 32.5 C 35.40625 33.445312 34.914062 34.800781 34.542969 36.195312 C 34.050781 38.042969 32.734375 39.5625 32.734375 41.574219 C 32.734375 41.902344 32.285156 42.1875 32.078125 42.515625 C 31.871094 42.84375 31.585938 43.171875 31.503906 43.542969 C 30.640625 47.195312 29.65625 50.847656 28.957031 54.542969 C 28.382812 57.582031 28.136719 60.703125 27.722656 63.820312 C 27.476562 65.546875 27.109375 67.269531 26.984375 69.035156 C 26.863281 70.800781 26.945312 72.605469 26.410156 74.371094 C 26.285156 74.820312 26.492188 75.398438 26.492188 75.929688 C 26.492188 76.382812 26.492188 76.832031 26.492188 77.242188 C 26.410156 78.023438 26.203125 78.761719 26.164062 79.542969 C 26.082031 80.773438 26.164062 81.964844 26.082031 83.195312 C 26 84.632812 26 86.070312 25.792969 87.464844 C 25.546875 88.902344 26.203125 90.175781 26.203125 91.488281 C 26.203125 93.992188 25.179688 96.453125 25.917969 99 C 25.917969 99.125 25.875 99.246094 25.835938 99.371094 C 25.671875 100.804688 25.425781 102.203125 25.425781 103.636719 C 25.425781 106.101562 25.792969 108.523438 25.589844 110.984375 C 25.34375 114.515625 25.464844 118.085938 25.464844 121.660156 C 25.464844 122.191406 25.546875 122.726562 25.710938 123.21875 C 26.285156 124.984375 25.300781 126.832031 26 128.597656 C 26 128.679688 25.917969 128.84375 25.875 128.964844 C 25.546875 130.445312 25.300781 131.878906 25.753906 133.398438 C 25.917969 133.933594 25.753906 134.546875 25.671875 135.121094 C 25.628906 135.78125 25.425781 136.4375 25.464844 137.050781 C 25.628906 139.636719 25.054688 142.265625 25.792969 144.8125 C 25.917969 145.222656 25.671875 145.714844 25.628906 146.164062 C 25.546875 146.738281 25.425781 147.316406 25.382812 147.890625 C 25.21875 150.105469 26.65625 152.363281 25.261719 154.582031 C 25.21875 154.664062 25.261719 154.828125 25.261719 154.949219 C 25.34375 156.097656 25.464844 157.25 25.464844 158.4375 C 25.464844 161.351562 25.382812 164.269531 25.34375 167.183594 C 25.34375 169.523438 25.136719 171.863281 25.34375 174.203125 C 25.464844 175.433594 25.507812 176.625 25.382812 177.8125 C 25.382812 178.183594 25.261719 178.636719 25.382812 178.964844 C 26.246094 181.058594 24.398438 183.191406 25.546875 185.285156 C 25.546875 185.367188 25.425781 185.53125 25.425781 185.652344 C 25.425781 186.351562 25.34375 187.050781 25.382812 187.746094 C 25.382812 188.074219 25.628906 188.445312 25.546875 188.691406 C 24.601562 190.746094 25.464844 192.878906 25.179688 195.011719 C 24.808594 197.558594 25.179688 200.1875 25.179688 202.8125 C 25.179688 205.152344 24.890625 207.492188 25.011719 209.832031 C 25.136719 211.84375 24.070312 214.058594 25.917969 215.496094 C 25.671875 216.441406 25.425781 217.140625 25.261719 217.878906 C 25.136719 218.535156 25.011719 219.191406 25.136719 219.808594 C 25.382812 221.53125 24.355469 223.296875 25.300781 225.019531 C 24.683594 226.539062 24.765625 228.058594 25.054688 229.660156 C 25.179688 230.316406 24.726562 231.011719 24.683594 231.710938 C 24.601562 234.378906 24.5625 237.046875 24.519531 239.714844 C 24.519531 241.027344 24.355469 242.300781 24.355469 243.617188 C 24.355469 245.011719 24.644531 246.40625 24.4375 247.761719 C 24.027344 250.101562 23.699219 252.398438 24.4375 254.699219 C 24.5625 255.027344 24.4375 255.480469 24.355469 255.847656 C 24.109375 257.652344 23.78125 259.460938 23.617188 261.265625 C 23.371094 264.589844 23.246094 267.917969 23.042969 271.242188 C 23 272.101562 23.042969 272.925781 22.960938 273.785156 C 22.714844 276.371094 21.890625 279 23.289062 281.503906 C 23.371094 281.625 23.207031 281.871094 23.207031 282.039062 C 23.289062 282.734375 23.371094 283.433594 23.410156 283.84375 C 22.960938 284.378906 22.34375 284.828125 22.34375 285.28125 C 22.179688 287.867188 22.34375 290.410156 21.972656 292.996094 C 21.6875 295.050781 21.644531 297.144531 21.5625 299.238281 C 21.523438 300.714844 21.605469 302.234375 21.5625 303.710938 C 21.441406 305.351562 22.097656 306.996094 21.234375 308.679688 C 20.824219 309.5 20.863281 310.976562 21.359375 311.714844 C 22.589844 313.480469 21.933594 315.285156 21.359375 316.722656 C 20.496094 318.980469 20.414062 320.992188 21.277344 322.839844 C 20.90625 323.867188 20.207031 324.808594 20.453125 325.386719 C 21.398438 327.601562 21.195312 329.695312 20.371094 331.789062 C 20.332031 331.910156 20.371094 332.035156 20.371094 332.15625 C 20.25 334.910156 20.125 337.617188 20.042969 340.367188 C 19.960938 342.75 20.042969 345.128906 19.839844 347.511719 C 19.675781 349.316406 21.113281 350.753906 20.699219 352.640625 C 20.414062 353.914062 20.660156 355.308594 20.660156 356.746094 C 18.359375 356.992188 16.183594 357.28125 14.007812 357.484375 C 13.019531 357.566406 12.035156 357.691406 11.089844 357.527344 C 8.378906 357.15625 5.792969 357.320312 3.328125 358.714844 C 2.503906 359.167969 1.808594 359.457031 2.175781 360.605469 C 2.21875 360.769531 2.054688 361.136719 1.890625 361.261719 C 0.328125 362.246094 0 363.640625 0.617188 365.570312 C 2.382812 366.3125 4.355469 367.132812 6.53125 368.035156 C 5.875 368.527344 5.503906 368.816406 4.929688 369.265625 C 5.628906 369.675781 6.078125 370.003906 6.570312 370.25 C 7.105469 370.496094 7.679688 370.660156 8.171875 370.949219 C 9.035156 371.441406 9.777344 372.140625 10.84375 371.277344 C 11.089844 371.113281 11.746094 371.277344 12.117188 371.523438 C 13.757812 372.46875 15.402344 372.550781 17.167969 371.933594 C 17.496094 371.8125 17.988281 371.769531 18.277344 371.933594 C 20.535156 373.042969 22.917969 372.304688 25.179688 372.140625 C 26.738281 372.015625 28.21875 372.140625 29.738281 372.140625 C 31.460938 372.140625 33.269531 372.058594 34.914062 371.523438 C 36.269531 371.074219 37.417969 371.113281 38.691406 371.359375 C 39.390625 371.484375 40.085938 371.605469 40.785156 371.605469 C 42.714844 371.523438 44.648438 371.277344 46.578125 371.195312 C 49.125 371.074219 51.671875 371.113281 54.21875 370.992188 C 55.449219 370.949219 56.679688 370.496094 57.871094 370.660156 C 59.390625 370.867188 60.992188 370.496094 62.472656 371.441406 C 62.882812 371.6875 63.621094 371.566406 64.199219 371.441406 C 66.496094 371.03125 68.386719 371.441406 69.660156 373.617188 C 69.742188 373.78125 69.949219 373.90625 70.113281 373.988281 C 71.796875 374.765625 74.628906 373.78125 75.289062 371.933594 C 75.820312 370.414062 76.683594 369.019531 76.191406 367.171875 C 75.65625 365.203125 74.792969 363.808594 72.824219 363.148438 C 72.332031 362.984375 71.753906 362.65625 71.425781 362.207031 C 70.605469 361.015625 69.660156 360.152344 67.6875 360.972656 C 68.222656 360.195312 68.46875 359.785156 68.839844 359.210938 C 68.265625 358.964844 67.730469 358.46875 67.277344 358.550781 C 65.511719 358.882812 63.992188 358.058594 62.347656 357.730469 C 61.980469 357.648438 61.527344 357.402344 61.242188 357.527344 C 59.679688 358.222656 58.078125 357.609375 56.515625 357.691406 C 54.175781 357.855469 51.917969 356.542969 49.535156 356.871094 C 49.328125 356.871094 49.082031 356.625 48.835938 356.582031 C 48.382812 356.460938 47.972656 356.375 47.523438 356.335938 C 46.167969 356.210938 44.851562 356.128906 43.414062 356.046875 C 43.496094 354.367188 42.796875 352.886719 44.195312 351.65625 C 44.566406 351.328125 44.730469 350.589844 44.769531 350.015625 C 45.015625 346.894531 45.140625 343.773438 45.425781 340.65625 C 45.589844 338.847656 45.46875 337.125 45.015625 335.402344 C 44.894531 334.992188 44.851562 334.457031 45.058594 334.128906 C 46.042969 332.652344 45.671875 331.253906 44.8125 329.984375 C 46.289062 327.5625 45.304688 325.054688 45.179688 322.675781 C 45.140625 321.976562 45.058594 321.445312 45.304688 320.707031 C 45.671875 319.554688 45.753906 318.285156 45.714844 317.050781 C 45.671875 314.875 45.222656 312.742188 45.589844 310.523438 C 45.878906 308.800781 45.753906 307.035156 45.878906 305.3125 C 46.125 302.152344 46.78125 299.03125 46.003906 295.828125 C 45.960938 295.664062 46.003906 295.417969 46.085938 295.253906 C 46.535156 293.570312 46.660156 291.929688 46.042969 290.289062 C 45.878906 289.878906 45.960938 289.425781 46.003906 288.972656 C 46.125 286.839844 46.332031 284.746094 46.453125 282.613281 C 46.453125 282.121094 46.289062 281.585938 46.332031 281.050781 C 46.414062 279.039062 46.617188 277.03125 46.578125 274.976562 C 46.578125 273.375 46.25 271.773438 46.042969 269.847656 C 47.109375 267.792969 46.90625 265.25 46.453125 262.703125 C 46.371094 262.332031 46.167969 261.800781 46.332031 261.59375 C 47.109375 260.773438 46.824219 259.871094 46.78125 258.96875 C 46.699219 257.160156 46.660156 255.3125 46.699219 253.507812 C 46.699219 252.070312 46.90625 250.636719 46.945312 249.238281 C 46.945312 248.335938 46.660156 247.390625 46.824219 246.53125 C 47.070312 245.257812 46.863281 244.191406 46.125 243.164062 C 47.191406 241.6875 47.027344 239.960938 46.988281 238.402344 C 46.90625 235.980469 46.863281 233.558594 46.90625 231.09375 C 46.90625 229.617188 46.414062 228.179688 46.742188 226.582031 C 47.027344 225.308594 46.660156 223.871094 46.660156 222.515625 C 46.660156 221.570312 47.027344 220.546875 46.003906 219.808594 C 45.835938 219.683594 45.753906 219.316406 45.753906 219.066406 C 45.753906 217.261719 45.058594 215.414062 46.535156 213.8125 C 46.824219 213.484375 46.824219 212.789062 46.78125 212.296875 C 46.578125 209.914062 46.167969 207.535156 46.617188 205.113281 C 46.699219 204.617188 46.496094 204.085938 46.414062 203.550781 C 46.371094 203.101562 46.25 202.648438 46.289062 202.195312 C 46.371094 200.226562 46.453125 198.296875 46.578125 196.328125 C 46.699219 194.644531 45.589844 192.960938 46.535156 191.277344 C 45.835938 189.964844 46.617188 188.570312 46.453125 187.296875 C 45.921875 183.027344 46.863281 178.675781 45.46875 174.488281 C 45.386719 174.203125 45.386719 173.792969 45.507812 173.503906 C 46.617188 171.082031 45.386719 168.578125 45.960938 166.113281 C 46.042969 165.785156 45.921875 165.292969 45.714844 164.964844 C 45.015625 163.652344 45.222656 162.257812 45.507812 160.984375 C 45.921875 159.300781 45.589844 157.90625 44.523438 156.507812 C 45.015625 156.34375 45.386719 156.179688 45.878906 156.015625 C 45.589844 153.59375 45.304688 151.253906 45.753906 148.792969 C 45.960938 147.726562 45.507812 146.125 44.113281 145.058594 C 45.261719 144.8125 45.921875 144.152344 45.921875 143.046875 C 45.921875 139.882812 45.550781 136.722656 45.835938 133.5625 C 45.835938 133.398438 45.796875 133.113281 45.671875 133.03125 C 44.398438 132.042969 45.507812 131.511719 46.125 130.976562 C 47.152344 130.15625 48.261719 129.5 49.328125 128.71875 C 50.808594 127.691406 52.328125 126.667969 53.765625 125.601562 C 55.324219 124.449219 56.84375 123.179688 58.363281 121.988281 C 59.226562 121.289062 60.132812 120.671875 60.910156 119.851562 C 62.019531 118.621094 63.128906 117.429688 64.566406 116.570312 C 64.773438 116.445312 64.8125 116.117188 64.976562 115.914062 C 65.222656 115.625 65.472656 115.296875 65.757812 115.050781 C 67.15625 113.984375 68.101562 112.257812 70.03125 111.890625 C 70.195312 111.890625 70.316406 111.644531 70.480469 111.519531 C 71.878906 110.125 73.273438 108.644531 74.710938 107.292969 C 76.066406 105.976562 77.546875 104.789062 78.941406 103.515625 C 80.09375 102.449219 81.160156 101.296875 82.269531 100.230469 C 83.789062 98.753906 85.351562 97.277344 86.871094 95.757812 C 88.265625 94.402344 89.582031 93.007812 90.976562 91.609375 C 91.921875 90.667969 92.867188 89.804688 93.8125 88.859375 C 95.167969 87.464844 96.441406 85.988281 97.835938 84.59375 C 99.726562 82.703125 101.820312 81.019531 103.546875 79.007812 C 105.886719 76.300781 108.394531 73.796875 110.9375 71.292969 C 114.183594 68.089844 117.183594 64.683594 120.589844 61.605469 C 123.300781 59.183594 125.765625 56.472656 128.355469 53.886719 C 128.722656 53.519531 128.96875 53.066406 129.300781 52.65625 C 129.585938 52.285156 129.792969 51.875 130.160156 51.628906 C 132.585938 49.742188 135.007812 47.894531 136.488281 45.101562 C 136.570312 44.9375 136.734375 44.816406 136.898438 44.734375 C 138.746094 44.035156 139.976562 42.558594 141.292969 41.203125 C 142.484375 39.929688 143.675781 38.574219 144.90625 37.386719 C 146.058594 36.277344 147.414062 35.332031 148.519531 34.183594 C 150.65625 31.96875 152.667969 29.585938 154.847656 27.371094 C 155.339844 26.835938 156.242188 26.300781 156.859375 26.382812 C 158.460938 26.628906 159.980469 26.628906 161.5 26.054688 C 161.789062 25.933594 162.15625 26.054688 162.484375 26.054688 C 164.046875 26.136719 165.609375 26.21875 167.085938 26.300781 C 167.292969 25.808594 167.414062 25.523438 167.539062 25.152344 C 167.988281 25.316406 168.359375 25.5625 168.730469 25.5625 C 170.660156 25.523438 172.632812 25.441406 174.5625 25.316406 C 175.21875 25.316406 175.875 25.03125 176.492188 25.152344 C 179.328125 25.890625 182.121094 25.070312 184.871094 24.742188 C 186.761719 24.539062 188.566406 24.042969 190.5 24.453125 C 191.320312 24.621094 192.222656 24.621094 193.042969 24.496094 C 194.316406 24.332031 195.632812 24.167969 196.824219 23.675781 C 198.097656 23.101562 199.246094 22.855469 200.480469 23.550781 C 201.257812 24.003906 202.039062 23.960938 202.945312 23.796875 C 204.257812 23.550781 205.65625 23.675781 207.011719 23.59375 C 207.707031 23.550781 208.363281 23.429688 209.0625 23.347656 C 210.582031 23.140625 212.0625 22.9375 213.582031 22.730469 C 213.746094 22.730469 213.953125 22.855469 214.117188 22.976562 C 215.183594 23.675781 216.332031 23.632812 217.523438 23.386719 C 218.015625 23.265625 218.550781 23.386719 219.042969 23.386719 C 221.425781 23.386719 223.808594 23.140625 226.191406 23.550781 C 226.601562 23.632812 227.054688 23.347656 227.503906 23.265625 C 227.875 23.183594 228.285156 23.019531 228.574219 23.140625 C 230.460938 23.921875 232.269531 23.632812 234.117188 22.773438 C 234.898438 23.632812 235.84375 23.921875 236.992188 23.757812 C 238.144531 23.59375 239.335938 23.511719 240.484375 23.46875 C 240.976562 23.46875 241.59375 23.386719 242.003906 23.632812 C 243.605469 24.539062 245.207031 24.167969 246.769531 23.632812 C 248.082031 23.183594 249.234375 23.265625 250.507812 23.757812 C 252.558594 24.578125 254.738281 25.359375 256.789062 23.839844 C 257.449219 24.125 258.023438 24.660156 258.640625 24.660156 C 260.734375 24.660156 262.789062 25.234375 264.800781 25.316406 C 267.140625 25.359375 269.398438 26.015625 271.699219 26.054688 C 272.808594 26.054688 273.878906 26.261719 274.945312 25.726562 C 275.929688 25.277344 276.917969 25.316406 277.863281 26.136719 C 278.355469 26.546875 279.09375 26.753906 279.75 26.917969 C 280.40625 27.082031 281.148438 27.082031 281.84375 27.164062 C 282.832031 27.289062 283.777344 27.410156 284.761719 27.492188 C 285.582031 27.574219 286.445312 27.574219 287.226562 27.78125 C 288.828125 28.230469 290.429688 28.804688 292.03125 29.339844 C 292.195312 31.597656 293.675781 33.363281 293.550781 35.578125 C 293.550781 35.742188 293.675781 35.988281 293.796875 36.070312 C 294.453125 36.480469 294.207031 37.058594 294.167969 37.671875 C 294.125 38.125 294.085938 38.617188 294.167969 39.027344 C 294.660156 40.914062 294.90625 42.804688 294.785156 44.773438 C 294.785156 45.347656 294.949219 45.921875 295.070312 46.457031 C 295.195312 47.03125 295.316406 47.605469 295.441406 48.179688 C 295.644531 49.003906 295.070312 49.332031 294.496094 49.332031 C 293.429688 49.332031 292.238281 49.453125 291.25 49.125 C 288.089844 48.058594 284.925781 48.632812 281.761719 48.878906 C 280.160156 49.003906 278.601562 49.535156 277 49.824219 C 274.207031 50.273438 271.617188 51.382812 269.03125 52.449219 C 267.265625 53.148438 265.664062 54.132812 264.308594 55.445312 C 262.089844 57.539062 259.089844 58.730469 257.285156 61.277344 C 257.160156 61.441406 256.953125 61.523438 256.832031 61.644531 C 255.722656 62.835938 254.574219 63.945312 253.503906 65.175781 C 252.476562 66.367188 250.753906 67.0625 250.589844 68.953125 C 250.589844 69.074219 250.464844 69.238281 250.382812 69.238281 C 249.234375 69.402344 248.945312 70.511719 248.328125 71.210938 C 245.332031 74.535156 243.238281 78.433594 241.46875 82.5 C 240.445312 84.878906 239.992188 87.464844 239.335938 90.011719 C 239.210938 90.421875 239.171875 90.953125 239.335938 91.324219 C 239.828125 92.800781 239.992188 94.195312 238.921875 95.511719 C 238.800781 95.632812 238.757812 95.878906 238.757812 96.085938 C 238.839844 97.769531 238.964844 99.453125 239.046875 101.132812 C 239.046875 101.875 239.128906 102.695312 238.964844 103.390625 C 238.757812 104.253906 238.964844 104.828125 239.5 105.527344 C 240.074219 106.265625 240.894531 107.25 240.773438 108.03125 C 240.484375 110.289062 241.59375 111.929688 242.578125 113.695312 C 243.359375 115.089844 244.425781 116.363281 244.960938 117.882812 C 245.496094 119.441406 246.6875 120.34375 247.714844 121.371094 C 248.824219 122.519531 249.847656 123.628906 250.507812 125.105469 C 251.246094 126.789062 252.066406 128.390625 253.710938 129.457031 C 255.066406 130.363281 256.339844 131.386719 257.449219 132.535156 C 258.269531 133.398438 259.050781 134.015625 260.242188 134.179688 C 260.570312 134.179688 261.0625 134.300781 261.101562 134.507812 C 261.84375 136.640625 263.648438 136.847656 265.457031 137.011719 C 265.5 137.011719 265.539062 137.09375 265.664062 137.214844 C 265.046875 138.039062 264.390625 138.816406 263.773438 139.636719 C 263.28125 140.253906 262.582031 140.828125 262.375 141.527344 C 261.925781 143.210938 260.609375 144.316406 259.789062 145.714844 C 258.226562 148.257812 255.96875 150.351562 255.066406 153.265625 C 254.941406 153.675781 254.53125 153.964844 254.203125 154.292969 C 253.792969 154.703125 253.175781 155.074219 253.011719 155.566406 C 252.3125 157.371094 251.082031 158.808594 249.972656 160.285156 C 249.765625 160.574219 249.683594 161.023438 249.519531 161.351562 C 249.355469 161.722656 249.234375 162.09375 249.027344 162.421875 C 247.097656 165.253906 245.085938 168.085938 243.195312 170.917969 C 242.90625 171.371094 242.988281 172.066406 242.949219 172.476562 C 242.414062 172.886719 241.839844 173.132812 241.511719 173.585938 C 240.691406 174.734375 239.949219 175.964844 239.210938 177.199219 C 237.734375 179.660156 236.335938 182.164062 234.859375 184.585938 C 233.707031 186.515625 232.515625 188.40625 231.203125 190.25 C 230.175781 191.648438 229.804688 193.003906 230.667969 194.5625 C 230.667969 194.5625 230.542969 194.726562 230.460938 194.890625 C 230.132812 194.644531 229.804688 194.355469 229.273438 193.945312 C 229.519531 195.300781 230.257812 195.875 231.039062 196.492188 C 232.066406 197.3125 233.007812 198.175781 232.925781 199.734375 C 232.925781 200.105469 233.214844 200.597656 233.503906 200.882812 C 234.117188 201.5 234.773438 202.03125 235.636719 202.8125 C 235.472656 202.8125 235.636719 202.855469 235.71875 202.8125 C 237.484375 201.746094 239.292969 200.636719 241.058594 199.570312 C 241.101562 199.570312 241.140625 199.488281 241.183594 199.40625 C 242.539062 197.765625 243.933594 196.164062 245.25 194.480469 C 246.441406 192.960938 247.589844 191.359375 248.742188 189.800781 C 251.738281 185.695312 254.738281 181.589844 257.734375 177.484375 C 260.160156 174.203125 262.625 171 265.046875 167.757812 C 266.730469 165.5 268.332031 163.242188 269.976562 160.984375 C 270.140625 160.777344 270.34375 160.613281 270.507812 160.449219 C 271.042969 159.792969 271.578125 159.136719 272.070312 158.480469 C 272.851562 157.453125 273.671875 156.386719 274.574219 155.15625 C 275.027344 156.34375 275.644531 157.167969 274.820312 158.152344 C 274.574219 158.4375 274.617188 159.011719 274.574219 159.464844 C 274.535156 160.164062 274.574219 160.859375 274.535156 161.558594 C 274.410156 163.445312 274.207031 165.292969 274.042969 167.183594 C 273.878906 168.867188 273.714844 170.507812 273.546875 172.191406 C 273.382812 173.832031 272.851562 175.554688 273.097656 177.15625 C 273.425781 179.085938 272.605469 180.851562 272.890625 182.738281 C 273.179688 184.382812 273.015625 186.066406 273.21875 187.707031 C 273.300781 188.363281 273.425781 188.9375 273.097656 189.59375 C 272.890625 189.964844 272.851562 190.5 272.890625 190.910156 C 273.054688 192.632812 272.316406 194.398438 273.179688 196.121094 C 273.300781 196.367188 273.179688 196.820312 273.054688 197.066406 C 272.234375 198.707031 272.808594 200.144531 273.628906 201.539062 C 274.042969 202.277344 274.082031 202.9375 273.878906 203.796875 C 273.546875 205.03125 273.300781 206.300781 273.179688 207.574219 C 273.054688 208.847656 272.890625 210.203125 273.097656 211.433594 C 273.34375 212.992188 272.726562 214.636719 273.714844 216.070312 C 273.796875 216.195312 273.628906 216.5625 273.507812 216.808594 C 272.851562 218.042969 273.097656 219.355469 273.21875 220.667969 C 273.261719 221.242188 273.382812 221.859375 273.300781 222.394531 C 273.179688 223.132812 273.261719 223.707031 273.753906 224.40625 C 274.863281 225.921875 273.589844 227.976562 274.738281 229.535156 C 274.738281 229.535156 274.738281 229.660156 274.65625 229.824219 C 274.289062 229.945312 273.878906 230.070312 273.34375 230.234375 C 273.34375 230.765625 273.34375 231.382812 273.34375 231.957031 C 273.464844 233.351562 273.464844 234.667969 272.070312 235.652344 C 271.535156 236.019531 271.25 236.84375 270.960938 237.5 C 270.261719 239.183594 268.742188 240.453125 268.660156 242.425781 C 268.660156 242.671875 268.25 242.917969 268.085938 243.203125 C 267.675781 243.863281 267.265625 244.519531 266.894531 245.214844 C 266.523438 245.914062 266.277344 246.652344 265.910156 247.351562 C 264.800781 249.484375 263.648438 251.621094 262.539062 253.753906 C 262.375 254.042969 262.253906 254.410156 262.335938 254.699219 C 262.457031 255.519531 262.046875 256.054688 261.515625 256.585938 C 261.144531 256.957031 260.816406 257.367188 260.570312 257.820312 C 259.707031 259.335938 258.84375 260.898438 258.023438 262.457031 C 256.378906 265.496094 254.820312 268.574219 253.175781 271.609375 C 252.4375 272.964844 251.574219 274.277344 250.917969 275.714844 C 250.011719 277.605469 249.191406 279.574219 248.246094 281.667969 C 249.109375 282.613281 250.09375 283.636719 251.039062 284.664062 C 251.203125 284.871094 251.449219 285.117188 251.449219 285.320312 C 251.367188 286.71875 252.273438 287.25 253.21875 287.539062 C 253.21875 288.316406 252.972656 289.097656 253.257812 289.46875 C 253.792969 290.207031 254.738281 290.246094 255.597656 289.960938 C 255.722656 289.960938 255.847656 289.878906 255.96875 289.796875 C 257.121094 289.097656 258.308594 288.398438 259.460938 287.703125 C 260.199219 287.25 260.855469 286.757812 260.855469 285.730469 C 260.855469 285.402344 261.226562 285.074219 261.472656 284.789062 C 262.375 283.636719 263.445312 282.613281 264.226562 281.296875 C 266.113281 278.097656 268.375 275.183594 270.386719 272.0625 C 272.191406 269.230469 273.835938 266.273438 275.5625 263.359375 C 276.382812 261.964844 277.246094 260.570312 278.109375 259.214844 C 279.09375 257.613281 280.121094 256.011719 281.148438 254.410156 C 281.722656 253.507812 282.339844 252.605469 282.953125 251.742188 C 283.160156 251.785156 283.324219 251.824219 283.40625 251.867188 C 283.570312 251.988281 283.734375 252.113281 283.816406 252.277344 C 285.171875 254.65625 287.429688 255.972656 289.648438 257.367188 C 291.085938 258.269531 292.402344 259.296875 292.976562 261.0625 C 293.222656 261.839844 294.042969 262.539062 294.742188 263.113281 C 296.386719 264.507812 298.152344 265.78125 299.753906 267.21875 C 301.066406 268.410156 302.257812 269.765625 303.53125 270.996094 C 303.859375 271.28125 304.273438 271.652344 304.640625 271.691406 C 305.75 271.773438 306.203125 272.554688 306.695312 273.335938 C 307.023438 273.828125 307.230469 274.441406 307.597656 274.8125 C 309.199219 276.332031 310.800781 277.808594 312.484375 279.246094 C 313.511719 280.148438 314.992188 280.683594 315.609375 281.792969 C 316.550781 283.433594 317.824219 284.296875 319.632812 284.5 C 319.796875 285.773438 320.332031 286.800781 321.5625 287.046875 C 322.632812 287.25 323.125 287.867188 323.410156 288.808594 C 323.78125 290.125 324.5625 290.820312 326 290.699219 C 326.449219 290.699219 326.945312 290.699219 327.3125 290.902344 C 328.21875 291.355469 329.039062 291.601562 329.902344 290.902344 C 330.597656 290.328125 331.667969 289.796875 331.789062 289.097656 C 331.996094 288.113281 332.652344 287.867188 333.269531 287.496094 C 334.171875 286.964844 334.664062 286.101562 334.828125 285.117188 C 334.914062 284.460938 334.417969 283.597656 334.707031 283.0625 C 335.199219 282.039062 333.804688 281.957031 334.007812 281.257812 C 334.253906 280.394531 333.679688 279.902344 333.269531 279.367188 C 332.488281 278.300781 331.707031 277.277344 330.929688 276.25 C 329.984375 275.058594 329.203125 273.746094 328.09375 272.761719 C 326.984375 271.773438 326 270.832031 325.546875 269.394531 C 325.382812 268.941406 324.847656 268.65625 324.519531 268.285156 C 323.863281 267.546875 322.835938 266.929688 322.589844 266.070312 C 322.300781 264.960938 321.644531 264.632812 320.824219 264.222656 C 320.289062 263.933594 319.757812 263.523438 319.34375 263.074219 C 318.113281 261.636719 316.964844 260.160156 315.730469 258.722656 C 315.484375 258.433594 315.074219 258.1875 314.703125 258.148438 C 313.183594 258.066406 312.074219 257.078125 310.925781 256.339844 C 310.84375 256.300781 310.800781 256.175781 310.761719 256.054688 C 311.007812 255.890625 311.253906 255.765625 311.746094 255.480469 C 309.652344 254.820312 308.214844 253.796875 307.722656 251.785156 C 307.640625 251.457031 307.230469 251.167969 306.859375 251.003906 C 305.710938 250.46875 304.519531 250.058594 303.285156 249.566406 C 303.367188 249.15625 303.410156 248.789062 303.410156 248.707031 C 302.503906 247.761719 301.644531 247.0625 301.027344 246.160156 C 299.589844 244.109375 297.78125 242.628906 295.398438 241.890625 C 294.578125 241.644531 294.332031 241.070312 294.003906 240.414062 C 293.429688 239.222656 293.183594 237.746094 291.785156 237.128906 C 290.222656 236.433594 289.976562 235.117188 290.347656 233.765625 C 290.71875 232.492188 290.347656 231.753906 289.074219 231.054688 C 289.445312 229.742188 289.648438 228.386719 290.222656 227.195312 C 290.964844 225.71875 290.839844 224.488281 289.855469 223.132812 C 292.03125 221.695312 290.472656 220.21875 289.773438 218.65625 C 290.757812 217.835938 291.167969 216.890625 290.882812 215.539062 C 290.59375 214.265625 290.921875 212.871094 290.921875 211.554688 C 290.921875 210.695312 291.210938 209.792969 290.472656 208.929688 C 290.183594 208.601562 290.429688 207.820312 290.472656 207.246094 C 290.757812 205.480469 291.457031 203.757812 291.332031 201.910156 C 291.25 200.554688 291.457031 199.160156 291.414062 197.804688 C 291.292969 195.300781 291.085938 192.753906 290.921875 190.25 C 290.921875 189.882812 290.636719 189.347656 290.800781 189.144531 C 291.703125 187.992188 291.292969 186.722656 291.375 185.449219 C 291.496094 183.890625 291.25 182.617188 290.386719 181.550781 C 291.375 179.578125 291.867188 177.773438 290.800781 175.800781 C 290.511719 175.269531 290.554688 174.324219 290.800781 173.710938 C 291.457031 171.945312 291.167969 170.261719 290.71875 168.535156 C 290.636719 168.25 290.347656 167.921875 290.347656 167.675781 C 290.429688 166.484375 290.636719 165.292969 290.800781 164.0625 C 292.359375 164.554688 294.003906 165.046875 295.03125 166.691406 C 295.277344 167.101562 295.851562 167.304688 296.222656 167.675781 C 296.507812 167.921875 296.878906 168.167969 297 168.496094 C 297.496094 169.808594 298.4375 170.546875 299.589844 171.289062 C 300.617188 171.945312 301.3125 173.132812 302.175781 174.078125 C 302.21875 174.121094 302.300781 174.160156 302.339844 174.203125 C 303.613281 175.226562 305.132812 175.84375 306.160156 177.199219 C 306.859375 178.183594 307.761719 178.675781 309.035156 178.304688 C 309.773438 178.101562 310.308594 178.429688 310.472656 179.210938 C 310.679688 180.316406 311.417969 181.015625 312.320312 181.632812 C 312.734375 181.917969 313.101562 182.328125 313.429688 182.738281 C 315.277344 185.324219 317.046875 187.953125 320.042969 189.472656 C 320.945312 189.921875 321.5625 190.664062 321.195312 191.894531 C 321.070312 192.261719 321.195312 192.878906 321.480469 193.125 C 321.726562 193.371094 322.300781 193.289062 322.714844 193.332031 C 322.34375 194.972656 322.386719 194.972656 323.535156 195.792969 C 323.863281 196 324.152344 196.328125 324.519531 196.410156 C 325.546875 196.695312 325.957031 197.433594 326.285156 198.339844 C 327.109375 200.800781 328.710938 202.359375 331.421875 202.773438 C 332.367188 202.9375 333.0625 202.894531 333.558594 201.992188 C 333.722656 201.664062 334.132812 201.457031 334.335938 201.128906 C 335.40625 199.488281 337.253906 198.214844 336.84375 195.835938 C 336.800781 195.507812 337.253906 195.09375 337.5 194.683594 L 337.5 193.496094 Z M 125.808594 31.84375 C 125.398438 32.253906 125.070312 32.746094 124.699219 33.199219 C 124.535156 33.402344 124.453125 33.773438 124.246094 33.8125 C 122.972656 34.183594 122.316406 35.292969 121.453125 36.113281 C 118.703125 38.699219 115.785156 41.078125 112.992188 43.625 C 110.570312 45.882812 108.144531 48.179688 105.929688 50.644531 C 102.722656 54.132812 99.234375 57.335938 95.867188 60.703125 C 92.703125 63.820312 89.539062 66.941406 86.664062 70.304688 C 85.023438 72.234375 83.171875 73.960938 81.449219 75.765625 C 81.367188 75.847656 81.203125 75.929688 81.203125 76.054688 C 80.875 77.777344 79.230469 78.269531 78.203125 79.378906 C 77.585938 80.035156 76.929688 80.734375 76.4375 81.472656 C 75.863281 82.292969 75.371094 83.074219 74.34375 83.441406 C 74.015625 83.566406 73.6875 83.894531 73.4375 84.179688 C 71.796875 86.027344 70.195312 87.917969 68.511719 89.722656 C 67.566406 90.75 66.375 91.609375 65.390625 92.597656 C 64.8125 93.171875 64.402344 93.949219 63.910156 94.609375 C 63.703125 94.894531 63.5 95.265625 63.210938 95.46875 C 60.542969 97.070312 58.570312 99.453125 56.640625 101.792969 C 56.351562 102.121094 56.023438 102.449219 55.738281 102.777344 C 54.914062 103.679688 53.683594 104.171875 53.230469 105.445312 C 53.109375 105.8125 52.53125 105.976562 52.203125 106.265625 C 51.671875 106.71875 50.808594 107.128906 50.644531 107.703125 C 50.316406 109.058594 49.289062 109.425781 48.300781 110.082031 C 47.398438 110.699219 46.660156 111.5625 45.753906 112.382812 C 45.550781 112.054688 45.425781 111.972656 45.425781 111.847656 C 45.46875 109.632812 45.507812 107.414062 45.589844 105.199219 C 45.632812 103.515625 45.835938 101.832031 45.753906 100.148438 C 45.753906 99.328125 45.386719 98.507812 45.960938 97.726562 C 46.085938 97.523438 46.25 97.195312 46.167969 96.988281 C 45.714844 95.550781 45.835938 94.15625 46.042969 92.679688 C 46.167969 91.898438 45.835938 91.035156 46.289062 90.257812 C 46.414062 90.050781 46.414062 89.722656 46.414062 89.476562 C 46.125 87.09375 46.90625 84.839844 46.90625 82.5 C 46.90625 80.980469 47.523438 79.378906 46.824219 77.859375 C 46.742188 77.65625 46.742188 77.285156 46.824219 77.121094 C 48.097656 74.984375 47.480469 72.644531 47.6875 70.390625 C 47.769531 69.609375 47.851562 68.871094 47.972656 68.089844 C 48.054688 67.636719 48.261719 67.1875 48.21875 66.734375 C 48.136719 63.902344 49.207031 61.234375 49.65625 58.484375 C 49.863281 57.046875 50.109375 55.652344 50.519531 54.257812 C 51.175781 51.875 51.753906 49.453125 52.65625 47.15625 C 54.175781 43.132812 56.679688 39.683594 59.96875 36.894531 C 60.625 36.316406 61.609375 36.113281 62.390625 35.660156 C 64.484375 34.429688 66.746094 33.691406 69.125 33.15625 C 71.34375 32.664062 73.5625 32.132812 75.78125 31.597656 C 76.027344 31.554688 76.273438 31.597656 76.5625 31.597656 C 78.695312 31.515625 80.832031 31.433594 83.007812 31.351562 C 83.089844 31.351562 83.132812 31.351562 83.214844 31.351562 C 84.160156 30.980469 85.105469 30.285156 86.046875 30.285156 C 87.035156 30.285156 88.019531 30.816406 89.089844 30.652344 C 91.347656 30.367188 93.566406 30.121094 95.867188 30.160156 C 98.371094 30.160156 100.917969 29.546875 103.421875 29.214844 C 103.875 29.175781 104.367188 29.09375 104.777344 29.214844 C 105.804688 29.546875 106.789062 29.628906 107.859375 29.175781 C 108.1875 29.050781 108.597656 29.175781 109.007812 29.214844 C 109.253906 29.214844 109.5 29.421875 109.746094 29.421875 C 112.128906 29.175781 114.511719 28.886719 116.9375 28.601562 C 117.511719 28.519531 118.128906 28.3125 118.660156 28.394531 C 120.753906 28.847656 122.6875 28.3125 124.65625 27.820312 C 125.808594 27.535156 126.917969 27.246094 128.066406 28.027344 C 128.4375 28.3125 129.011719 28.3125 129.546875 28.4375 C 128.3125 29.628906 127.082031 30.734375 125.929688 31.886719 Z M 284.1875 129.621094 C 282.625 129.828125 280.984375 129.375 279.382812 129.253906 C 278.722656 129.210938 278.066406 129.253906 277.695312 129.253906 C 277.164062 128.882812 276.589844 128.1875 276.175781 128.269531 C 274.453125 128.597656 273.34375 127.117188 271.824219 126.953125 C 271.125 126.871094 270.507812 126.257812 269.851562 125.929688 C 268.25 125.148438 266.855469 123.835938 264.921875 123.753906 C 264.757812 123.753906 264.554688 123.546875 264.429688 123.382812 C 262.789062 121.332031 260.40625 119.976562 258.804688 117.882812 C 257.570312 116.242188 256.585938 114.433594 255.558594 112.667969 C 255.3125 112.21875 255.433594 111.601562 255.433594 111.027344 C 255.433594 110.125 255.558594 109.222656 255.433594 108.316406 C 255.1875 106.183594 254.859375 104.089844 255.1875 101.914062 C 255.3125 101.214844 254.65625 100.394531 254.777344 99.699219 C 255.105469 97.769531 254.695312 95.714844 255.558594 93.867188 C 255.722656 93.5 255.847656 93.046875 255.847656 92.636719 C 255.929688 89.105469 257.40625 86.109375 259.214844 83.195312 C 260.773438 80.691406 262.335938 78.148438 264.0625 75.726562 C 265.664062 73.46875 267.46875 71.375 269.316406 69.28125 C 271.207031 67.105469 273.835938 65.914062 275.847656 63.945312 C 276.835938 62.957031 278.394531 62.382812 279.75 61.972656 C 282.09375 61.277344 284.554688 60.867188 286.9375 60.289062 C 288.007812 60.042969 289.074219 59.46875 290.183594 59.46875 C 292.074219 59.46875 294.003906 59.714844 296.058594 59.839844 C 295.359375 61.726562 296.304688 62.710938 297.617188 63.453125 C 298.933594 64.191406 299.835938 65.339844 300.78125 66.449219 C 301.726562 67.554688 302.667969 68.828125 304.4375 69.074219 C 305.710938 69.238281 306.488281 69.074219 307.023438 67.925781 C 307.148438 67.679688 307.351562 67.472656 307.640625 67.023438 C 308.667969 67.144531 309.734375 67.308594 310.597656 67.433594 C 311.625 69.527344 312.484375 71.375 313.347656 73.179688 C 313.511719 73.46875 313.554688 73.835938 313.59375 74.207031 C 313.757812 75.152344 313.964844 76.09375 314.128906 77.078125 C 314.171875 77.40625 314.253906 77.777344 314.128906 78.105469 C 313.675781 79.871094 314.539062 81.675781 314.210938 83.402344 C 313.757812 85.660156 315.363281 87.382812 315.730469 89.433594 C 315.894531 90.421875 316.058594 91.078125 315.28125 91.855469 C 314.828125 92.308594 314.582031 93.089844 314.417969 93.746094 C 314.046875 95.183594 313.511719 96.617188 313.472656 98.097656 C 313.347656 100.886719 311.871094 103.144531 310.882812 105.648438 C 309.609375 108.8125 307.679688 111.601562 305.710938 114.3125 C 303.941406 116.734375 301.726562 118.828125 299.753906 121.125 C 297.496094 123.710938 294.742188 125.640625 291.703125 127.117188 C 289.28125 128.269531 286.816406 129.335938 284.144531 129.664062 Z M 284.1875 129.621094 " fill-opacity="1" fill-rule="nonzero"/></g><path fill="#000000" d="M 284.84375 91.160156 C 284.597656 91.40625 284.308594 91.609375 284.144531 91.734375 L 284.023438 91.855469 C 283.695312 92.105469 283.488281 92.472656 283.488281 92.882812 C 283.488281 93.292969 283.449219 93.664062 283.449219 94.03125 C 283.449219 94.691406 283.40625 95.222656 283.28125 95.714844 C 282.996094 97.234375 283.613281 98.34375 285.089844 98.957031 C 285.707031 99.207031 287.515625 99.945312 289.15625 98.382812 C 289.320312 98.21875 289.527344 98.015625 289.691406 97.851562 C 290.140625 97.398438 290.59375 96.949219 291.046875 96.535156 C 291.332031 96.289062 291.621094 96.003906 291.867188 95.714844 C 292.238281 95.347656 292.523438 95.019531 292.851562 94.8125 C 293.304688 95.632812 293.59375 96.578125 293.878906 97.644531 C 293.921875 97.851562 293.960938 98.054688 294.042969 98.261719 C 294.25 99.164062 294.496094 100.394531 295.5625 101.296875 C 295.605469 101.460938 295.644531 101.710938 295.769531 101.957031 C 295.894531 102.203125 295.976562 102.449219 296.058594 102.734375 C 296.304688 103.472656 296.632812 104.296875 297.207031 105.035156 C 297.824219 105.8125 298.6875 106.304688 299.671875 106.390625 C 299.792969 106.390625 299.957031 106.390625 300.082031 106.390625 C 301.191406 106.390625 302.339844 105.9375 303.367188 105.074219 C 303.820312 104.707031 303.984375 104.132812 303.859375 103.554688 C 303.777344 103.269531 303.65625 102.980469 303.574219 102.777344 C 303.492188 102.613281 303.410156 102.367188 303.367188 102.242188 C 303.738281 100.804688 303.285156 99.699219 302.917969 98.792969 C 302.835938 98.628906 302.792969 98.464844 302.710938 98.300781 C 302.546875 97.851562 302.300781 97.441406 302.09375 97.113281 C 301.644531 96.371094 301.644531 96.25 301.726562 96.042969 C 302.054688 95.265625 301.601562 94.566406 301.4375 94.277344 C 301.4375 94.277344 301.4375 94.277344 301.4375 94.238281 C 301.230469 93.210938 300.699219 92.308594 300.246094 91.527344 C 299.671875 90.503906 299.261719 89.804688 299.34375 88.984375 C 299.753906 88.613281 300.207031 88.285156 300.699219 87.917969 C 301.808594 87.09375 303.039062 86.191406 303.859375 84.796875 C 304.023438 84.714844 304.191406 84.632812 304.394531 84.507812 C 306.695312 82.949219 309.242188 80.609375 308.335938 76.339844 C 308.253906 75.929688 308.007812 75.601562 307.640625 75.398438 C 307.269531 75.191406 306.859375 75.152344 306.449219 75.273438 C 306.039062 75.398438 305.585938 75.519531 305.132812 75.644531 C 303.941406 75.972656 302.546875 76.339844 301.355469 77.285156 C 299.792969 78.558594 298.234375 79.871094 296.632812 81.144531 L 296.015625 81.675781 C 295.523438 80.609375 295.195312 79.460938 294.90625 78.3125 C 294.414062 76.585938 293.511719 75.066406 292.277344 73.917969 C 291.785156 73.46875 291.210938 73.179688 290.675781 72.933594 C 290.472656 72.851562 290.265625 72.730469 290.058594 72.605469 C 289.691406 72.398438 289.28125 72.359375 288.910156 72.480469 C 288.828125 72.480469 288.703125 72.523438 288.621094 72.5625 C 288.210938 72.644531 287.636719 72.8125 287.144531 73.179688 C 286.199219 73.878906 284.804688 75.316406 286.035156 77.078125 C 286.445312 77.695312 286.570312 78.3125 286.40625 79.171875 C 286.242188 80.035156 286.527344 80.855469 286.816406 81.472656 C 287.144531 82.25 287.511719 83.03125 287.84375 83.8125 C 288.292969 84.839844 288.785156 85.90625 289.199219 86.972656 C 289.199219 87.054688 289.238281 87.136719 289.28125 87.261719 C 288.210938 88.246094 287.101562 89.230469 285.992188 90.175781 C 285.664062 90.460938 285.296875 90.75 284.96875 91.078125 Z M 284.84375 91.160156 " fill-opacity="1" fill-rule="nonzero"/><path fill="#000000" d="M 270.015625 95.265625 L 270.179688 95.550781 C 270.960938 96.90625 271.742188 98.300781 272.523438 99.65625 C 272.523438 99.65625 272.523438 99.738281 272.5625 99.738281 C 272.726562 100.066406 273.054688 100.722656 273.835938 100.929688 C 274.125 101.011719 274.289062 101.214844 274.617188 101.914062 C 274.699219 102.121094 274.820312 102.285156 274.902344 102.488281 C 275.808594 104.132812 276.957031 104.625 278.3125 104.625 C 279.667969 104.625 279.21875 104.582031 279.710938 104.5 C 280.242188 104.417969 280.695312 104.007812 280.859375 103.472656 C 280.902344 103.269531 280.984375 103.0625 281.023438 102.898438 C 281.148438 102.40625 281.3125 101.914062 281.433594 101.421875 C 281.558594 100.929688 281.640625 100.4375 281.761719 99.984375 L 281.886719 99.410156 C 282.050781 98.710938 281.640625 98.015625 281.023438 97.769531 C 279.585938 97.195312 279.257812 96.699219 279.21875 95.960938 C 279.175781 95.386719 278.886719 94.9375 278.683594 94.566406 C 278.640625 94.484375 278.601562 94.445312 278.558594 94.363281 C 277.820312 93.007812 277.082031 91.691406 276.382812 90.378906 L 276.21875 90.050781 C 276.339844 89.929688 276.464844 89.804688 276.628906 89.722656 C 277.574219 88.902344 278.4375 88.164062 279.300781 87.34375 C 280.121094 86.5625 280.902344 85.78125 281.640625 85.003906 C 282.296875 84.34375 282.996094 83.648438 283.652344 82.992188 C 284.433594 82.25 284.804688 81.429688 284.84375 80.570312 C 284.84375 79.871094 284.554688 79.214844 284.0625 78.722656 C 283.035156 77.695312 281.761719 77.695312 280.324219 78.722656 C 280.078125 78.886719 279.914062 79.089844 279.792969 79.214844 C 279.792969 79.214844 279.75 79.253906 279.710938 79.296875 C 279.585938 79.417969 279.421875 79.582031 279.257812 79.707031 C 278.722656 80.160156 278.066406 80.691406 277.65625 81.636719 C 277.53125 81.757812 277.203125 81.921875 277 82.003906 C 276.710938 82.167969 276.382812 82.335938 276.09375 82.539062 C 276.011719 82.582031 275.929688 82.664062 275.808594 82.703125 C 275.273438 82.992188 274.492188 83.441406 274.328125 84.386719 C 274.328125 84.550781 274.328125 84.589844 273.878906 84.714844 C 273.835938 84.632812 273.753906 84.550781 273.714844 84.46875 C 273.015625 83.320312 272.480469 82.375 272.480469 81.265625 C 272.480469 80.242188 271.660156 79.542969 271.125 79.050781 L 271.042969 78.96875 C 270.671875 78.640625 270.261719 78.394531 269.851562 78.148438 C 269.6875 78.066406 269.566406 77.984375 269.398438 77.859375 C 268.867188 77.53125 268.167969 77.574219 267.714844 77.941406 L 266.238281 79.171875 C 265.949219 79.417969 265.746094 79.746094 265.703125 80.117188 L 265.582031 81.144531 C 265.5 82.003906 265.417969 82.785156 265.335938 83.648438 C 265.292969 84.140625 265.210938 84.960938 265.785156 85.617188 C 266.441406 86.355469 266.691406 87.34375 266.976562 88.449219 C 267.058594 88.777344 267.140625 89.105469 267.265625 89.476562 C 266.855469 89.804688 266.441406 90.175781 266.03125 90.585938 C 265.785156 90.832031 265.5 91.117188 265.210938 91.363281 C 263.730469 92.71875 261.925781 94.363281 262.292969 97.398438 C 262.375 98.015625 262.828125 98.507812 263.402344 98.628906 C 263.402344 98.628906 263.484375 98.628906 263.527344 98.628906 C 263.855469 98.753906 264.390625 98.917969 265.003906 98.710938 C 267.265625 98.015625 268.988281 96.785156 270.140625 95.101562 Z M 270.015625 95.265625 " fill-opacity="1" fill-rule="nonzero"/><path fill="#000000" d="M 294.660156 108.976562 C 295.070312 108.359375 295.152344 107.703125 295.234375 107.046875 C 295.234375 106.800781 295.277344 106.554688 295.359375 106.304688 C 295.441406 105.894531 295.359375 105.484375 295.070312 105.15625 C 294.824219 104.828125 294.414062 104.625 294.003906 104.625 C 293.46875 104.625 292.894531 104.542969 292.359375 104.5 C 291.167969 104.378906 289.9375 104.253906 288.703125 104.460938 C 285.296875 104.953125 281.84375 105.648438 278.519531 106.304688 L 276.507812 106.71875 C 275.890625 106.839844 275.355469 107.003906 274.820312 107.210938 C 274.410156 107.332031 274 107.496094 273.628906 107.578125 C 272.027344 107.949219 270.386719 108.277344 268.824219 108.605469 C 268.167969 108.726562 267.511719 108.894531 266.855469 109.015625 C 266.15625 109.179688 265.664062 109.796875 265.703125 110.535156 C 265.828125 111.890625 265.992188 113.160156 266.9375 113.902344 C 267.796875 114.558594 268.824219 114.515625 269.851562 114.351562 C 272.726562 113.859375 275.5625 113.367188 278.519531 112.792969 C 279.257812 112.667969 279.957031 112.503906 280.695312 112.382812 C 280.738281 112.792969 280.777344 113.160156 280.820312 113.570312 C 280.820312 113.613281 280.820312 113.738281 280.820312 113.859375 C 280.820312 114.3125 280.820312 114.96875 281.230469 115.582031 C 281.886719 116.488281 283.40625 118.582031 286.035156 118.582031 C 286.117188 118.582031 286.160156 118.582031 286.242188 118.582031 C 288.457031 118.5 290.390625 117.347656 291.457031 115.460938 C 292.03125 114.476562 292.441406 113.488281 292.851562 112.503906 C 293.386719 111.273438 293.878906 110.125 294.621094 109.058594 Z M 286.855469 111.726562 C 286.734375 111.890625 286.652344 111.972656 286.570312 112.011719 C 286.488281 111.972656 286.445312 111.929688 286.40625 111.929688 C 286.40625 111.929688 286.40625 111.847656 286.40625 111.765625 C 286.527344 111.316406 286.609375 110.902344 286.652344 110.492188 C 287.019531 110.289062 287.429688 110.207031 288.046875 110.125 C 287.679688 110.65625 287.226562 111.191406 286.773438 111.726562 Z M 286.855469 111.726562 " fill-opacity="1" fill-rule="nonzero"/></svg>