<svg xmlns="http://www.w3.org/2000/svg" xmlns:xlink="http://www.w3.org/1999/xlink" width="500" zoomAndPan="magnify" viewBox="0 0 375 374.999991" height="500" preserveAspectRatio="xMidYMid meet" version="1.0"><path fill="#000000" d="M 36.90625 214.351562 C 36.261719 213.492188 36.046875 212.375 36.175781 210.953125 C 36.433594 208.113281 36.304688 205.230469 36.390625 202.347656 C 36.390625 201.527344 36.5625 200.667969 36.949219 199.980469 C 37.464844 198.988281 37.335938 198.128906 36.949219 197.269531 C 36.347656 195.890625 36.304688 194.515625 36.347656 193.050781 C 36.476562 191.027344 36.347656 188.964844 36.347656 186.941406 C 36.347656 185.992188 36.132812 185.046875 36.90625 184.230469 C 37.121094 183.972656 37.078125 183.238281 36.90625 182.894531 C 36.304688 181.863281 36.519531 180.785156 36.605469 179.753906 C 36.605469 179.410156 36.777344 179.023438 36.605469 178.765625 C 35.703125 176.914062 36.691406 175.320312 37.378906 173.644531 C 36.605469 172.609375 36.820312 171.492188 37.035156 170.199219 C 37.292969 168.867188 37.035156 167.402344 36.949219 166.027344 C 36.949219 165.683594 36.949219 165.335938 36.90625 165.035156 C 36.476562 163.617188 36.820312 162.496094 38.238281 161.679688 C 37.851562 161.164062 37.550781 160.734375 37.25 160.300781 C 36.304688 158.925781 35.960938 157.460938 36.347656 155.828125 C 36.519531 155.179688 36.519531 154.449219 36.347656 153.847656 C 35.875 151.996094 35.875 150.1875 36.347656 148.382812 C 36.605469 147.347656 36.132812 146.488281 36.046875 145.542969 C 35.960938 144.507812 35.660156 143.519531 36.261719 142.527344 C 36.433594 142.226562 36.261719 141.753906 36.261719 141.367188 C 36.21875 139.6875 36.175781 137.96875 36.132812 136.289062 C 36.132812 135.730469 36.003906 135.214844 35.960938 134.652344 C 35.960938 133.449219 35.660156 132.289062 36.304688 131.039062 C 36.648438 130.351562 36.5625 129.230469 36.304688 128.457031 C 35.3125 125.617188 35.875 122.777344 36.21875 119.9375 C 36.347656 118.945312 35.703125 117.613281 37.335938 117.226562 C 36.949219 116.277344 36.648438 115.546875 36.304688 114.773438 C 35.703125 113.351562 35.53125 111.933594 35.960938 110.382812 C 36.21875 109.4375 35.917969 108.359375 35.960938 107.371094 C 36.003906 106.335938 36.175781 105.261719 36.347656 103.796875 C 35.574219 102.636719 35.140625 100.957031 36.132812 99.195312 C 35.660156 97.601562 36.949219 95.964844 36.003906 94.375 C 36.476562 91.707031 35.226562 88.996094 36.089844 86.328125 C 36.175781 86.070312 36.21875 85.765625 36.175781 85.507812 C 35.960938 83.269531 35.875 81.035156 36.433594 78.753906 C 36.691406 77.675781 36.175781 76.472656 36.304688 75.351562 C 36.519531 72.769531 36.390625 70.1875 36.390625 67.648438 C 36.390625 66.488281 36.820312 65.714844 38.195312 65.453125 C 36.519531 63.820312 36.863281 61.96875 37.164062 60.117188 C 37.164062 59.988281 37.378906 59.902344 37.378906 59.773438 C 37.507812 57.492188 37.851562 55.300781 38.710938 53.148438 C 39.011719 52.328125 38.152344 51.125 38.28125 50.179688 C 38.539062 47.683594 39.054688 45.1875 39.445312 42.691406 C 39.488281 42.300781 39.488281 41.871094 39.488281 41.484375 C 39.488281 41.097656 39.3125 40.625 39.488281 40.28125 C 40.734375 37.398438 40.691406 34.253906 41.464844 31.285156 C 41.507812 31.070312 41.550781 30.898438 41.636719 30.683594 C 43.402344 26.421875 44.648438 21.863281 47.574219 18.160156 C 48.476562 17 49.765625 16.09375 50.667969 14.933594 C 52.003906 13.210938 54.023438 12.4375 55.703125 11.1875 C 57.078125 10.15625 58.796875 9.339844 60.476562 8.90625 C 64.5625 7.832031 68.734375 6.972656 72.863281 6.152344 C 74.023438 5.9375 75.273438 6.28125 76.476562 6.324219 C 76.863281 6.324219 77.25 6.238281 77.636719 6.195312 C 78.023438 6.152344 78.453125 5.980469 78.84375 5.980469 C 80.347656 5.980469 81.808594 6.367188 83.359375 5.464844 C 84.390625 4.863281 85.980469 5.164062 87.359375 5.121094 C 90.972656 4.992188 94.628906 4.820312 98.242188 4.777344 C 100.605469 4.777344 103.015625 4.992188 105.378906 4.992188 C 107.359375 4.992188 109.292969 4.691406 111.273438 4.519531 C 111.832031 4.476562 112.347656 4.433594 112.90625 4.390625 C 114.070312 4.390625 115.1875 4.347656 116.347656 4.304688 C 116.433594 4.304688 116.519531 4.304688 116.5625 4.304688 C 118.929688 5.679688 121.292969 4.132812 123.703125 4.304688 C 126.585938 4.433594 129.421875 4.476562 132.304688 4.519531 C 133.511719 4.519531 134.757812 4.5625 135.917969 4.390625 C 138.457031 4.003906 140.949219 4.175781 143.445312 4.648438 C 143.875 4.734375 144.433594 4.734375 144.820312 4.519531 C 145.726562 4.046875 146.5 4.046875 147.316406 4.605469 C 147.53125 4.734375 147.875 4.820312 148.089844 4.734375 C 150.285156 4.089844 152.476562 4.261719 154.714844 4.304688 C 156.089844 4.304688 157.425781 4.003906 158.800781 3.917969 C 159.875 3.875 160.996094 3.917969 162.070312 4.046875 C 163.273438 4.175781 164.433594 3.613281 165.46875 3.699219 C 167.445312 3.828125 169.382812 4.046875 171.359375 3.742188 C 172.476562 3.570312 173.683594 3.828125 174.800781 3.742188 C 175.875 3.613281 176.910156 2.96875 177.941406 3.742188 C 177.984375 3.742188 178.113281 3.785156 178.15625 3.742188 C 179.746094 2.753906 181.296875 3.875 182.886719 3.875 C 183.015625 3.875 183.230469 3.960938 183.273438 3.875 C 184.390625 2.796875 185.984375 3.742188 187.144531 2.925781 C 187.359375 2.796875 187.746094 2.625 187.917969 2.710938 C 189.554688 3.570312 191.273438 2.667969 192.953125 2.925781 C 194.113281 3.097656 195.359375 2.582031 196.566406 2.496094 C 198.542969 2.367188 200.523438 1.722656 202.5 2.496094 C 202.714844 2.582031 203.015625 2.496094 203.316406 2.496094 C 204.695312 2.324219 206.113281 1.980469 207.488281 1.980469 C 208.652344 1.980469 209.855469 2.195312 210.242188 3.570312 C 210.628906 3.441406 210.886719 3.398438 210.972656 3.269531 C 212.222656 1.378906 214.15625 1.421875 216.09375 1.421875 C 218.285156 1.421875 220.4375 1.507812 222.628906 1.550781 C 222.757812 1.550781 222.886719 1.550781 223.015625 1.507812 C 226.714844 0.730469 230.457031 0.945312 234.15625 1.117188 C 235.058594 1.117188 236.007812 0.644531 236.910156 0.6875 C 239.707031 0.6875 242.5 1.03125 245.296875 0.945312 C 246.929688 0.902344 248.609375 0.816406 250.285156 0.386719 C 251.792969 0 253.511719 0.300781 255.148438 0.34375 C 256.4375 0.34375 257.726562 0.558594 258.976562 0.515625 C 261.554688 0.429688 264.136719 0.128906 266.761719 0.0859375 C 268.4375 0.0859375 270.113281 0.429688 271.792969 0.601562 C 272.222656 0.644531 272.695312 0.644531 273.125 0.601562 C 274.199219 0.472656 275.277344 0.171875 276.351562 0.214844 C 278.070312 0.300781 279.75 0.644531 281.46875 0.859375 C 281.726562 0.859375 282.070312 1.03125 282.285156 0.902344 C 283.707031 0.257812 284.910156 0.730469 286.199219 1.335938 C 286.71875 1.59375 287.449219 1.550781 287.964844 1.378906 C 289.425781 0.945312 290.847656 0.816406 292.394531 1.203125 C 293.898438 1.59375 295.535156 1.464844 297.082031 1.679688 C 297.941406 1.808594 298.761719 2.109375 299.621094 2.324219 C 299.878906 2.410156 300.222656 2.625 300.351562 2.539062 C 301.554688 1.808594 302.589844 2.753906 303.621094 2.796875 C 306.117188 2.882812 308.4375 3.613281 310.804688 4.21875 C 311.535156 4.390625 312.308594 4.390625 312.996094 4.605469 C 314.632812 5.035156 316.265625 5.421875 317.859375 5.980469 C 318.589844 6.238281 319.40625 6.757812 319.75 7.402344 C 320.179688 8.304688 320.867188 8.648438 321.644531 8.734375 C 322.976562 8.820312 323.578125 9.511719 323.964844 10.671875 C 324.394531 12.007812 325.210938 13.167969 326.460938 13.855469 C 328.480469 14.933594 329.515625 16.914062 330.976562 18.503906 C 332.523438 20.183594 333.167969 22.335938 333.730469 24.488281 C 334.160156 26.164062 334.503906 27.886719 334.074219 29.695312 C 333.816406 30.726562 333.730469 31.800781 334.289062 32.878906 C 334.546875 33.4375 334.632812 34.296875 334.375 34.859375 C 333.816406 36.105469 334.203125 37.179688 334.460938 38.386719 C 334.71875 39.589844 334.460938 40.882812 334.460938 42.128906 C 334.417969 43.464844 334.289062 44.796875 334.203125 46.132812 C 334.203125 46.734375 334.203125 47.335938 334.203125 48.027344 C 334.761719 48.285156 335.363281 48.585938 336.007812 48.886719 C 335.792969 49.1875 335.621094 49.445312 335.234375 50.003906 C 336.007812 49.875 336.523438 49.789062 337.210938 49.703125 C 337.386719 49.960938 337.601562 50.523438 337.945312 50.695312 C 339.191406 51.382812 339.878906 52.585938 340.695312 53.664062 C 341.257812 54.394531 342.160156 54.910156 342.976562 55.386719 C 344.179688 56.074219 345.34375 56.71875 345.773438 58.226562 C 345.902344 58.613281 346.417969 58.871094 346.71875 59.257812 C 347.621094 60.378906 348.609375 61.410156 349.34375 62.65625 C 349.730469 63.304688 349.558594 64.207031 349.644531 65.238281 C 351.535156 66.144531 352.222656 68.339844 353.34375 70.101562 C 353.859375 70.921875 354.332031 71.996094 352.824219 72.769531 C 355.449219 74.277344 355.191406 76.902344 355.835938 79.183594 C 355.964844 79.613281 356.050781 80.257812 355.835938 80.601562 C 355.234375 81.464844 355.363281 82.324219 355.535156 83.183594 C 356.050781 85.679688 355.234375 88.089844 355.234375 90.585938 C 355.234375 91.015625 354.933594 91.492188 354.71875 91.921875 C 354.332031 92.652344 354.160156 93.339844 354.160156 94.203125 C 354.160156 95.40625 353.601562 96.742188 352.910156 97.773438 C 351.792969 99.539062 351.019531 101.5625 349.300781 102.894531 C 349.085938 103.066406 348.867188 103.28125 348.78125 103.496094 C 347.835938 106.507812 346.933594 107.929688 344.652344 109.953125 C 344.566406 110.039062 344.351562 110.082031 344.351562 110.210938 C 343.621094 112.492188 341.34375 113.609375 340.222656 115.546875 C 340.050781 115.847656 339.878906 116.234375 339.621094 116.363281 C 337.515625 117.441406 336.222656 119.507812 334.246094 120.625 C 332.996094 121.3125 331.578125 121.699219 330.246094 122.21875 C 329.6875 122.433594 328.824219 122.261719 329.082031 123.421875 C 329.125 123.679688 328.265625 124.238281 327.707031 124.496094 C 326.589844 125.015625 325.425781 125.445312 324.265625 125.789062 C 323.664062 125.960938 322.933594 125.832031 322.289062 125.789062 C 321.339844 125.660156 320.695312 125.703125 320.308594 126.863281 C 320.09375 127.511719 318.976562 127.855469 318.117188 128.414062 C 318.847656 128.972656 319.664062 129.402344 320.265625 130.09375 C 321.816406 131.898438 323.835938 133.191406 325.167969 135.300781 C 326.03125 136.675781 327.621094 137.625 328.824219 138.785156 C 329.296875 139.257812 329.644531 139.816406 329.988281 140.378906 C 330.289062 140.894531 330.460938 141.496094 330.675781 142.054688 C 330.761719 142.226562 330.890625 142.398438 331.019531 142.574219 C 331.535156 143.261719 332.738281 142.183594 333.125 143.347656 C 333.386719 144.035156 333.558594 144.9375 334.117188 145.285156 C 335.792969 146.488281 336.824219 148.253906 338.246094 149.714844 C 340.050781 151.566406 341.644531 153.632812 343.320312 155.613281 C 343.363281 155.65625 343.449219 155.699219 343.449219 155.742188 C 344.222656 158.925781 347.40625 160.085938 349.039062 162.496094 C 349.644531 163.359375 350.03125 164.089844 349.039062 165.035156 C 351.40625 165.8125 352.609375 167.53125 353.558594 169.46875 C 353.816406 170.027344 354.246094 170.757812 354.074219 171.191406 C 353.558594 172.566406 354.117188 173.6875 354.71875 175.019531 C 353.515625 175.277344 353.042969 175.96875 352.78125 177.085938 C 352.4375 178.636719 350.890625 179.195312 349.601562 179.753906 C 349.214844 179.925781 348.394531 179.496094 347.964844 179.109375 C 347.363281 178.59375 346.804688 177.902344 346.460938 177.171875 C 345.816406 175.707031 344.609375 174.890625 343.40625 173.945312 C 341.730469 172.695312 340.09375 171.363281 339.019531 169.46875 C 338.546875 168.609375 337.773438 167.960938 337.082031 167.230469 C 335.664062 165.726562 334.246094 164.21875 332.78125 162.710938 C 332.566406 162.453125 332.179688 162.238281 332.136719 161.9375 C 331.921875 160.300781 330.804688 159.527344 329.558594 158.710938 C 328.609375 158.109375 327.792969 157.160156 327.148438 156.214844 C 325.945312 154.40625 324.136719 153.246094 322.675781 151.738281 C 321.511719 150.535156 320.351562 149.242188 319.191406 147.996094 C 319.019531 147.78125 318.804688 147.519531 318.589844 147.433594 C 317.167969 146.875 316.351562 145.929688 316.222656 144.292969 C 316.09375 144.636719 315.792969 144.9375 315.835938 145.285156 C 315.878906 147.648438 316.007812 150.015625 316.09375 152.425781 C 316.09375 152.8125 316.136719 153.289062 316.308594 153.589844 C 316.695312 154.320312 316.566406 154.921875 316.050781 155.484375 C 315.40625 156.171875 315.535156 156.902344 315.921875 157.546875 C 316.480469 158.453125 316.394531 159.3125 316.308594 160.300781 C 316.222656 161.292969 316.566406 162.28125 316.78125 163.273438 C 316.867188 163.617188 317.210938 163.875 317.210938 164.175781 C 317.167969 165.855469 317.511719 167.488281 317.640625 169.125 C 317.816406 171.019531 317.640625 172.910156 317.816406 174.804688 C 317.945312 176.441406 318.074219 176.398438 316.738281 177.558594 C 316.652344 178.332031 317.425781 179.066406 316.738281 180.011719 C 316.4375 180.398438 317.082031 181.519531 317.339844 182.25 C 317.425781 182.550781 317.902344 182.851562 317.859375 183.066406 C 317.296875 185.304688 318.847656 187.414062 318.074219 189.738281 C 317.6875 190.855469 318.203125 192.234375 318.246094 193.523438 C 318.375 195.546875 318.589844 197.613281 317.730469 199.550781 C 317.597656 199.808594 317.597656 200.28125 317.730469 200.496094 C 318.375 201.484375 318.246094 202.433594 317.816406 203.421875 C 317.730469 203.679688 317.511719 204.023438 317.597656 204.199219 C 318.375 206.003906 317.859375 207.769531 317.730469 209.578125 C 317.640625 210.78125 317.988281 212.03125 317.511719 213.234375 C 317.425781 213.492188 317.382812 213.792969 317.46875 214.050781 C 317.902344 215.6875 317.773438 217.28125 317.640625 218.914062 C 317.511719 220.507812 317.859375 222.1875 317.859375 223.820312 C 317.859375 225.070312 317.554688 226.316406 317.382812 227.867188 C 318.375 228.984375 319.621094 230.320312 320.867188 231.695312 C 320.996094 231.824219 321.167969 232.039062 321.339844 232.082031 C 323.191406 232.515625 324.09375 234.0625 325.296875 235.269531 C 326.160156 236.128906 327.148438 236.902344 327.964844 237.808594 C 328.78125 238.710938 329.515625 239.699219 330.203125 240.691406 C 331.019531 241.894531 331.621094 243.230469 332.566406 244.304688 C 333.210938 245.035156 334.203125 245.554688 335.105469 245.941406 C 336.179688 246.371094 337.039062 246.972656 337.558594 248.007812 C 338.71875 250.242188 340.78125 251.707031 342.503906 253.429688 C 343.621094 254.546875 344.78125 255.582031 345.859375 256.699219 C 347.40625 258.335938 348.824219 260.097656 350.460938 261.648438 C 352.308594 263.371094 353.773438 265.21875 354.375 267.714844 C 354.460938 268.144531 354.933594 268.578125 355.363281 268.878906 C 356.914062 269.996094 357 271.546875 355.75 273.007812 C 354.933594 273.957031 354.289062 275.117188 353.730469 276.28125 C 353.34375 277.097656 353.214844 278.085938 352.179688 278.257812 C 350.847656 278.515625 349.515625 278.949219 348.222656 278.042969 C 346.332031 276.710938 344.308594 275.503906 342.589844 273.957031 C 340.867188 272.449219 339.535156 270.511719 337.945312 268.878906 C 336.953125 267.84375 335.964844 266.597656 334.71875 266.082031 C 332.824219 265.261719 331.878906 263.886719 330.976562 262.25 C 330.675781 261.691406 330.246094 261.089844 329.6875 260.789062 C 327.0625 259.28125 324.351562 258.03125 322.503906 255.40625 C 321.773438 254.375 320.480469 253.773438 319.578125 252.867188 C 318.933594 252.265625 318.289062 251.535156 317.988281 250.71875 C 317.6875 249.855469 316.222656 249.984375 316.480469 248.78125 C 316.480469 248.695312 316.179688 248.351562 316.09375 248.394531 C 314.589844 248.910156 314.503906 247.488281 313.859375 246.800781 C 313.683594 246.628906 313.425781 246.5 313.296875 246.371094 C 311.707031 248.609375 309.902344 250.589844 308.652344 252.910156 C 306.632812 256.699219 304.179688 260.226562 301.898438 263.886719 C 300.953125 265.390625 300.222656 266.984375 299.320312 268.492188 C 298.117188 270.511719 296.738281 272.492188 295.535156 274.558594 C 294.375 276.453125 293.339844 278.429688 292.222656 280.367188 C 291.492188 281.617188 290.890625 282.90625 290.070312 284.113281 C 288.953125 285.746094 287.792969 287.382812 286.546875 288.886719 C 285.640625 289.964844 283.75 290.007812 282.15625 289.105469 C 280.566406 288.15625 279.0625 287.082031 277.425781 286.21875 C 276.480469 285.703125 275.40625 285.445312 274.371094 285.1875 C 273.167969 284.886719 272.480469 283.984375 272.738281 282.820312 C 273.167969 280.625 273.511719 278.429688 275.191406 276.625 C 276.09375 275.675781 276.523438 274.128906 276.824219 272.792969 C 277.210938 271.03125 278.113281 269.996094 279.878906 269.523438 C 279.707031 266.46875 280.824219 263.757812 282.460938 261.175781 C 283.363281 259.710938 283.921875 257.988281 284.738281 256.441406 C 285.339844 255.277344 286.113281 254.203125 286.675781 253.039062 C 287.878906 250.589844 289.039062 248.136719 290.246094 245.683594 C 290.890625 244.433594 291.0625 242.929688 292.308594 241.980469 C 292.480469 241.851562 292.566406 241.464844 292.566406 241.207031 C 292.78125 239.054688 294.027344 237.417969 295.019531 235.613281 C 296.480469 232.988281 298.332031 230.492188 299.019531 227.480469 C 299.191406 226.789062 299.664062 226.101562 300.09375 225.542969 C 300.738281 224.722656 300.867188 224.035156 300.007812 223.21875 C 299.664062 222.875 299.320312 222.273438 299.363281 221.796875 C 299.535156 219.601562 298.976562 217.410156 299.105469 215.257812 C 299.277344 212.546875 298.546875 209.878906 298.847656 207.210938 C 298.933594 206.5625 298.761719 205.832031 298.632812 205.1875 C 298.246094 203.164062 298.375 201.832031 299.234375 199.9375 C 297.941406 198.386719 298.160156 196.363281 298.332031 194.644531 C 298.503906 193.050781 297.125 191.199219 298.847656 189.824219 C 297.511719 186.855469 297.769531 184.1875 300.09375 181.90625 C 298.804688 181.21875 298.546875 180.011719 298.546875 178.722656 C 298.546875 178.375 298.933594 177.945312 298.804688 177.773438 C 297.984375 176.226562 298.71875 174.632812 298.632812 173.039062 C 298.503906 170.976562 298.074219 168.867188 298.933594 166.800781 C 299.019531 166.628906 299.105469 166.371094 299.0625 166.242188 C 298.417969 164.132812 299.148438 162.066406 299.40625 160 C 299.492188 159.355469 299.363281 158.667969 299.320312 157.546875 C 298.71875 158.410156 298.246094 158.882812 297.984375 159.441406 C 296.523438 162.453125 295.105469 165.507812 293.640625 168.523438 C 292.09375 171.621094 290.460938 174.675781 288.953125 177.773438 C 287.664062 180.398438 286.503906 183.109375 285.253906 185.777344 C 284.953125 186.425781 284.480469 187.027344 284.09375 187.671875 C 283.964844 187.886719 283.664062 188.101562 283.621094 188.316406 C 283.535156 190.726562 281.898438 192.492188 281.125 194.601562 C 280.824219 195.503906 280.308594 196.363281 280.136719 197.269531 C 279.921875 198.730469 279.148438 199.421875 277.683594 199.507812 C 277.210938 199.507812 276.738281 199.636719 276.050781 199.765625 C 276.308594 200.152344 276.480469 200.453125 276.695312 200.839844 C 276.394531 201.269531 276.050781 201.65625 275.449219 201.140625 C 274.414062 200.28125 273.210938 199.550781 272.78125 198.128906 C 272.695312 197.871094 272.566406 197.570312 272.394531 197.441406 C 271.277344 196.535156 270.113281 195.632812 268.910156 194.730469 C 269.039062 192.578125 269.082031 190.46875 270.328125 188.402344 C 271.320312 186.769531 271.277344 184.53125 272.222656 182.894531 C 274.15625 179.582031 274.71875 175.792969 276.480469 172.480469 C 277.683594 170.285156 278.328125 167.789062 279.320312 165.464844 C 279.664062 164.648438 280.136719 163.917969 280.523438 163.097656 C 280.738281 162.667969 280.867188 162.238281 281.039062 161.808594 C 281.296875 161.121094 281.554688 160.472656 281.8125 159.785156 C 282.15625 158.839844 282.417969 157.890625 282.804688 156.945312 C 283.75 154.75 284.738281 152.554688 285.683594 150.363281 C 286.375 148.726562 287.0625 147.089844 287.664062 145.457031 C 288.480469 143.132812 289.46875 140.9375 290.804688 138.871094 C 291.492188 137.796875 291.835938 136.503906 292.480469 135.386719 C 293.726562 133.0625 295.0625 130.78125 296.351562 128.5 C 297.125 127.121094 296.695312 125.960938 295.148438 125.789062 C 293.984375 125.660156 293.253906 125.273438 292.695312 124.238281 C 292.480469 123.894531 292.007812 123.679688 291.664062 123.421875 C 291.148438 123.035156 290.589844 122.605469 290.070312 122.21875 C 289.769531 122 289.46875 121.785156 289.125 121.570312 C 288.953125 121.484375 288.609375 121.484375 288.566406 121.355469 C 287.535156 119.460938 285.511719 118.515625 284.480469 116.664062 C 284.136719 116.019531 283.621094 115.417969 283.0625 114.988281 C 282.417969 114.515625 281.554688 114.296875 280.910156 113.824219 C 280.308594 113.351562 279.878906 112.621094 279.578125 112.277344 C 279.363281 111.414062 279.40625 110.769531 279.105469 110.296875 C 278.503906 109.351562 277.554688 108.660156 277.296875 107.371094 C 277.210938 106.8125 276.136719 106.207031 275.40625 105.992188 C 274.457031 105.648438 273.683594 105.433594 273.941406 104.230469 C 273.941406 104.144531 273.984375 104.054688 273.941406 104.011719 C 272.351562 102.679688 272.222656 100.613281 271.492188 98.890625 C 270.804688 97.257812 270.199219 95.621094 270.542969 93.816406 C 270.542969 93.683594 270.675781 93.511719 270.632812 93.425781 C 269.382812 91.492188 270.5 89.382812 270.199219 87.402344 C 270.027344 86.328125 270.5 85.121094 270.761719 84.003906 C 271.792969 79.484375 273.898438 75.394531 276.351562 71.523438 C 277.082031 70.359375 277.769531 69.15625 278.675781 68.125 C 280.4375 66.058594 282.113281 63.90625 284.394531 62.3125 C 285.554688 61.496094 286.976562 61.023438 287.664062 59.644531 C 287.835938 59.34375 288.351562 59.042969 288.695312 59.042969 C 290.113281 59.085938 290.847656 58.097656 291.878906 57.40625 C 293.296875 56.460938 294.804688 55.644531 296.308594 54.910156 C 298.203125 54.007812 300.136719 53.105469 302.160156 52.5 C 305.167969 51.554688 308.265625 50.824219 311.320312 50.003906 C 311.75 49.875 312.265625 50.046875 312.738281 50.003906 C 313.511719 49.960938 314.289062 50.089844 315.105469 49.574219 C 315.578125 49.273438 316.4375 49.359375 317.082031 49.488281 C 318.589844 49.746094 319.492188 49.144531 319.621094 47.726562 C 319.707031 46.691406 319.707031 45.660156 319.621094 44.625 C 319.320312 42.128906 320.179688 39.632812 319.707031 37.136719 C 319.621094 36.75 319.707031 36.277344 319.964844 35.976562 C 320.4375 35.246094 320.351562 34.597656 319.921875 33.867188 C 319.707031 33.523438 319.535156 33.050781 319.578125 32.707031 C 320.222656 29.519531 318.632812 26.636719 318.375 23.367188 C 315.621094 22.679688 312.910156 22.035156 310.246094 21.300781 C 308.09375 20.699219 306.03125 19.882812 303.835938 19.410156 C 302.332031 19.0625 300.738281 19.148438 299.234375 19.0625 C 297.855469 18.976562 296.523438 19.019531 295.148438 18.890625 C 292.566406 18.675781 289.984375 18.375 287.449219 18.160156 C 286.890625 18.117188 286.375 18.246094 285.8125 18.203125 C 285.253906 18.203125 284.609375 18.289062 284.222656 18.03125 C 282.890625 17.085938 281.46875 17.515625 280.09375 17.730469 C 278.589844 17.988281 277.125 18.203125 275.707031 17.386719 C 275.664062 17.386719 275.578125 17.300781 275.535156 17.300781 C 273.640625 18.074219 271.707031 17.085938 269.8125 17.429688 C 268.523438 17.644531 267.277344 18.117188 265.984375 17.558594 C 265.8125 17.472656 265.554688 17.386719 265.382812 17.429688 C 263.105469 17.945312 260.78125 17.730469 258.457031 17.6875 C 255.578125 17.6875 252.695312 18.589844 249.8125 17.601562 C 249.511719 17.472656 249.082031 17.472656 248.78125 17.601562 C 247.320312 18.160156 245.941406 17.816406 244.523438 17.042969 C 243.277344 18.847656 241.339844 18.332031 239.664062 18.417969 C 235.921875 18.632812 232.136719 18.589844 228.351562 18.675781 C 228.09375 18.675781 227.75 18.589844 227.535156 18.675781 C 226.328125 19.453125 225.039062 19.277344 223.75 19.0625 C 221.683594 18.71875 219.792969 19.882812 217.769531 19.796875 C 217.082031 19.796875 216.4375 19.710938 215.746094 19.625 C 215.53125 19.625 215.316406 19.367188 215.1875 19.410156 C 213.898438 20.140625 212.695312 19.925781 211.273438 19.710938 C 210.328125 19.582031 209.253906 20.398438 208.179688 19.710938 C 208.050781 19.625 207.746094 19.710938 207.574219 19.796875 C 205.984375 20.742188 204.222656 20.527344 202.457031 20.65625 C 200.179688 20.828125 197.898438 21.085938 195.574219 21.214844 C 194.628906 21.257812 193.597656 21.34375 192.78125 21 C 191.875 20.613281 191.273438 20.785156 190.5 21.214844 C 189.941406 21.515625 189.253906 21.816406 188.609375 21.773438 C 187.53125 21.773438 186.457031 21.429688 185.425781 21.992188 C 183.960938 21 182.628906 22.25 181.210938 22.207031 C 179.789062 22.207031 178.371094 21.6875 176.996094 21.730469 C 175.660156 21.773438 174.371094 22.464844 173.039062 22.507812 C 168.21875 22.679688 163.402344 22.550781 158.585938 22.808594 C 156.519531 22.894531 154.542969 22.808594 152.476562 22.59375 C 149.984375 22.335938 147.53125 22.59375 145.597656 24.832031 C 144.304688 26.335938 142.714844 27.5 141.425781 29.046875 C 140.132812 30.597656 138.457031 31.84375 136.992188 33.265625 C 135.574219 34.640625 134.285156 36.148438 132.777344 37.355469 C 130.757812 38.945312 129.378906 41.183594 127.359375 42.820312 C 125.726562 44.109375 124.476562 45.875 123.015625 47.421875 C 122.285156 48.199219 121.683594 49.058594 120.605469 49.574219 C 119.746094 50.003906 119.359375 51.253906 118.585938 51.941406 C 116.734375 53.578125 115.746094 56.03125 113.378906 57.0625 C 113.25 57.105469 113.164062 57.234375 113.121094 57.363281 C 112.21875 59.515625 110.542969 61.023438 108.992188 62.65625 C 108.175781 63.476562 107.359375 64.25 106.628906 65.152344 C 103.1875 69.199219 99.789062 73.289062 96.433594 77.375 C 95.917969 78.019531 95.617188 78.882812 94.972656 79.3125 C 93.765625 80.214844 92.734375 81.164062 92.304688 82.625 C 92.304688 82.753906 92.175781 82.882812 92.046875 82.96875 C 89.035156 84.734375 87.960938 88.132812 85.59375 90.5 C 83.488281 92.609375 81.765625 95.148438 79.832031 97.386719 C 79.230469 98.074219 78.410156 98.589844 77.679688 99.152344 C 77.550781 99.28125 77.292969 99.367188 77.25 99.539062 C 76.605469 101.648438 74.929688 102.9375 73.507812 104.445312 C 72.519531 105.519531 71.703125 106.769531 70.757812 107.929688 C 70.152344 108.660156 69.507812 109.394531 68.863281 110.082031 C 67.960938 111.070312 67.015625 112.0625 66.152344 113.09375 C 65.335938 114.125 64.132812 114.730469 63.359375 115.890625 C 62.625 117.054688 61.464844 117.957031 60.433594 118.988281 C 59.359375 120.023438 58.238281 121.054688 57.207031 122.132812 C 56.519531 122.820312 56.003906 123.59375 56.132812 124.671875 C 56.21875 125.402344 56.003906 126.175781 56.046875 126.90625 C 56.261719 129.273438 55.574219 131.554688 56.304688 134.007812 C 56.949219 136.203125 56.433594 138.742188 56.519531 141.152344 C 56.519531 142.441406 56.777344 143.691406 56.820312 144.980469 C 56.820312 145.886719 56.648438 146.789062 56.347656 147.691406 C 57.078125 149.15625 57.207031 150.75 57.207031 152.382812 C 57.164062 155.871094 57.292969 159.3125 57.207031 162.796875 C 57.207031 163.53125 56.5625 164.21875 56.089844 165.078125 C 56.304688 165.335938 56.734375 165.8125 56.992188 166.328125 C 57.207031 166.800781 57.507812 167.574219 57.292969 167.832031 C 56.5625 168.824219 56.90625 169.941406 56.605469 170.933594 C 56.304688 171.921875 56.476562 172.738281 56.863281 173.6875 C 57.722656 175.792969 58.324219 177.859375 57.851562 180.269531 C 57.507812 182.035156 57.9375 183.929688 58.023438 185.777344 C 58.109375 187.199219 58.195312 188.617188 58.238281 189.996094 C 58.28125 192.535156 58.367188 195.074219 58.238281 197.613281 C 58.152344 198.945312 57.636719 200.238281 58.453125 201.570312 C 58.625 201.832031 58.238281 202.476562 58.152344 202.90625 C 58.023438 203.679688 57.679688 204.628906 57.980469 205.273438 C 58.539062 206.605469 58.625 207.898438 58.582031 209.316406 C 58.539062 211.726562 58.238281 214.136719 58.582031 216.503906 C 58.882812 218.65625 58.496094 220.808594 58.667969 222.960938 C 58.839844 225.113281 59.316406 227.4375 58.453125 229.671875 C 58.195312 230.320312 58.28125 231.222656 58.539062 231.867188 C 59.015625 233.03125 58.929688 234.0625 58.324219 235.007812 C 57.808594 235.828125 57.765625 236.472656 58.367188 237.246094 C 58.667969 237.589844 58.972656 238.109375 58.972656 238.539062 C 58.972656 240.261719 58.882812 241.980469 58.929688 243.703125 C 58.929688 245.078125 59.1875 246.414062 59.101562 247.789062 C 58.929688 250.632812 59.574219 253.472656 59.359375 256.269531 C 59.1875 258.808594 59.402344 261.304688 59.359375 263.800781 C 59.316406 265.175781 59.488281 266.425781 59.574219 267.757812 C 59.660156 269.050781 59.488281 270.339844 59.574219 271.675781 C 59.703125 274.300781 59.488281 276.925781 59.316406 279.550781 C 59.316406 279.894531 58.929688 280.238281 58.753906 280.625 C 58.195312 281.789062 57.9375 282.90625 58.882812 284.070312 C 59.316406 284.585938 59.53125 285.445312 59.53125 286.132812 C 59.53125 288.070312 60.132812 290.050781 59.53125 291.988281 C 59.445312 292.203125 59.660156 292.503906 59.703125 292.761719 C 60.046875 294.65625 59.917969 295.429688 59.101562 297.28125 C 60.304688 299 60.132812 300.894531 59.488281 302.617188 C 58.929688 304.121094 58.625 305.457031 59.402344 306.875 C 60.175781 308.296875 59.917969 309.804688 59.960938 311.308594 C 60.003906 313.160156 59.960938 315.011719 59.960938 316.859375 C 59.960938 317.722656 59.746094 318.582031 59.660156 319.441406 C 59.660156 319.699219 59.53125 320.046875 59.660156 320.261719 C 60.390625 321.59375 59.960938 322.757812 59.058594 323.789062 C 60.5625 326.027344 60.304688 328.394531 59.917969 330.675781 C 59.746094 331.578125 60.261719 332.394531 59.960938 333.085938 C 59.574219 333.988281 59.617188 334.71875 59.789062 335.625 C 59.917969 336.441406 59.617188 337.34375 59.359375 338.164062 C 59.144531 338.851562 59.273438 339.410156 59.746094 339.839844 C 60.519531 340.617188 60.691406 341.605469 60.476562 342.507812 C 59.875 345.046875 60.476562 347.585938 60.390625 350.125 C 60.390625 351.074219 59.960938 351.976562 59.875 352.921875 C 59.746094 354.257812 59.789062 355.589844 59.789062 356.882812 C 60.347656 357.054688 60.691406 357.183594 60.992188 357.226562 C 62.796875 357.398438 64.605469 357.183594 66.410156 357.699219 C 67.917969 358.128906 69.636719 357.785156 71.273438 357.785156 C 72.003906 357.785156 72.476562 358.171875 73.078125 358.433594 C 74.410156 358.992188 75.917969 359.292969 77.378906 359.421875 C 78.628906 359.507812 79.917969 359.164062 81.207031 359.164062 C 82.410156 359.164062 83.660156 359.378906 84.863281 359.464844 C 86.023438 359.550781 87.1875 359.59375 88.304688 359.722656 C 89.507812 359.851562 90.585938 360.28125 91.273438 361.359375 C 91.875 362.347656 92.390625 363.421875 93.164062 364.242188 C 94.152344 365.273438 94.929688 366.566406 96.605469 366.78125 C 97.765625 366.953125 97.980469 367.726562 97.636719 368.933594 C 97.507812 369.363281 97.378906 369.878906 97.550781 370.265625 C 98.066406 371.300781 97.851562 371.988281 96.949219 372.761719 C 95.703125 373.839844 94.542969 374.957031 92.691406 374.3125 C 92.304688 374.183594 91.789062 374.441406 91.230469 374.527344 C 91.230469 374.183594 91.144531 373.839844 91.101562 373.449219 C 90.066406 374.742188 89.335938 375 88.046875 374.140625 C 87.445312 373.75 86.972656 373.664062 86.371094 373.796875 C 86.152344 373.839844 85.894531 373.882812 85.765625 373.796875 C 84.433594 372.804688 82.886719 373.191406 81.464844 373.191406 C 79.058594 373.191406 76.605469 372.546875 74.195312 373.40625 C 73.636719 373.621094 72.949219 373.664062 72.347656 373.578125 C 69.207031 373.191406 66.109375 373.492188 62.972656 373.492188 C 60.132812 373.492188 57.292969 373.449219 54.453125 373.40625 C 51.53125 373.363281 48.648438 373.277344 45.722656 373.234375 C 45.335938 373.234375 44.90625 373.40625 44.519531 373.449219 C 42.496094 373.535156 40.433594 373.707031 38.410156 373.578125 C 37.507812 373.535156 36.648438 372.890625 35.660156 372.460938 C 34.625 373.707031 33.164062 373.839844 31.746094 373.839844 C 30.324219 373.839844 28.90625 373.621094 27.484375 373.578125 C 25.9375 373.535156 24.347656 373.578125 22.796875 373.492188 C 20.347656 373.363281 17.894531 373.234375 15.398438 373.0625 C 14.066406 372.976562 12.691406 372.890625 11.355469 372.71875 C 10.839844 372.632812 10.023438 372.417969 9.9375 372.074219 C 9.636719 370.867188 8.476562 370.480469 7.871094 369.664062 C 6.96875 368.414062 5.765625 367.554688 4.261719 367.082031 C 2.324219 366.480469 0.949219 365.1875 0.304688 363.207031 C 0 362.304688 0.0859375 361.402344 0.992188 361.144531 C 2.066406 360.796875 2.496094 360.066406 2.839844 359.121094 C 3.269531 357.871094 4.175781 357.398438 5.378906 357.441406 C 6.28125 357.484375 7.054688 357.3125 7.871094 356.839844 C 8.605469 356.453125 9.59375 356.324219 10.453125 356.28125 C 12.003906 356.28125 13.550781 356.453125 15.097656 356.453125 C 16.175781 356.453125 17.292969 356.152344 18.367188 356.152344 C 21.722656 356.152344 25.078125 356.496094 28.433594 356.152344 C 30.925781 355.894531 33.25 356.882812 35.703125 356.539062 C 35.960938 356.539062 36.21875 356.453125 36.519531 356.410156 C 36.949219 355.546875 37.378906 354.6875 37.851562 353.785156 C 36.089844 352.105469 36.519531 349.78125 36.132812 347.628906 C 35.960938 346.597656 36.21875 345.476562 36.261719 344.402344 C 36.261719 344.1875 36.261719 343.972656 36.21875 343.800781 C 35.054688 341.820312 36.089844 339.882812 36.347656 337.992188 C 36.476562 337.214844 37.207031 336.527344 37.808594 335.582031 C 37.378906 335.148438 36.949219 334.675781 36.476562 334.246094 C 35.53125 333.257812 35.269531 332.136719 35.875 330.847656 C 36.476562 329.554688 36.863281 328.265625 35.746094 327.058594 C 35.617188 326.929688 35.574219 326.628906 35.617188 326.457031 C 36.347656 323.960938 35.011719 321.25 36.734375 318.882812 C 35.660156 317.335938 35.703125 315.699219 35.917969 313.933594 C 36.089844 312.300781 35.917969 310.664062 35.875 308.984375 C 35.875 308.425781 35.789062 307.78125 36.003906 307.351562 C 37.121094 305.285156 36.390625 303.261719 36.132812 301.195312 C 35.917969 299.476562 36.132812 297.667969 36.21875 295.902344 C 36.21875 295.515625 36.433594 295.042969 36.261719 294.699219 C 35.832031 293.792969 36.046875 292.976562 36.175781 292.074219 C 36.304688 291.339844 36.175781 290.609375 36.132812 289.878906 C 36.132812 289.621094 36.089844 289.320312 36.003906 289.0625 C 35.53125 287.511719 37.121094 286.175781 36.390625 284.5 C 35.746094 282.992188 36.433594 281.402344 36.734375 279.851562 C 36.90625 278.820312 37.035156 277.527344 36.5625 276.753906 C 36.003906 275.804688 36.691406 275.417969 36.863281 274.6875 C 35.960938 273.4375 35.917969 271.933594 36.089844 270.382812 C 36.304688 268.578125 36.21875 266.769531 36.605469 264.917969 C 37.035156 262.894531 36.476562 260.65625 36.433594 258.507812 C 36.347656 255.234375 35.617188 251.964844 36.605469 248.738281 C 36.605469 248.609375 36.691406 248.480469 36.648438 248.351562 C 35.445312 245.382812 36.648438 242.28125 36.089844 239.269531 C 35.960938 238.453125 36.433594 237.589844 36.476562 236.730469 C 36.5625 235.3125 36.863281 233.890625 36.046875 232.558594 C 36.863281 230.75 36.175781 228.984375 36.046875 227.175781 C 35.917969 224.207031 36.046875 221.195312 36.21875 218.183594 C 36.261719 217.066406 36.605469 215.945312 36.90625 214.351562 Z M 55.402344 104.617188 C 57.980469 103.496094 58.882812 100.699219 60.90625 98.9375 C 62.367188 97.6875 63.273438 95.792969 64.648438 94.417969 C 66.066406 92.953125 67.273438 91.363281 68.390625 89.683594 C 69.292969 88.304688 70.324219 87.015625 71.402344 85.765625 C 73.851562 82.839844 76.347656 80 78.800781 77.074219 C 80.132812 75.523438 81.335938 73.890625 82.671875 72.339844 C 85.507812 69.027344 88.347656 65.714844 91.316406 62.527344 C 92.175781 61.582031 93.035156 60.765625 93.679688 59.601562 C 93.894531 59.171875 94.542969 58.957031 94.929688 58.570312 C 95.445312 58.097656 96.003906 57.578125 96.476562 57.019531 C 97.078125 56.332031 97.59375 55.515625 98.285156 54.910156 C 98.972656 54.308594 99.703125 53.878906 100.046875 52.847656 C 100.304688 52.113281 101.207031 51.597656 101.851562 50.996094 C 102.585938 50.308594 103.316406 49.617188 104.003906 48.886719 C 104.347656 48.5 104.519531 47.898438 104.949219 47.554688 C 108.046875 44.796875 110.371094 41.183594 113.941406 38.945312 C 114.15625 38.816406 114.242188 38.515625 114.457031 38.34375 C 116.992188 35.761719 119.316406 32.878906 122.113281 30.640625 C 124.089844 29.046875 125.640625 27.15625 127.445312 25.476562 C 128.21875 24.746094 128.90625 24.011719 129.8125 23.109375 C 128.433594 23.109375 127.316406 23.109375 126.242188 23.109375 C 124.734375 23.109375 123.230469 23.324219 121.8125 22.464844 C 121.335938 22.164062 120.433594 22.078125 120.003906 22.335938 C 118.15625 23.453125 116.132812 22.9375 114.15625 23.066406 C 112.175781 23.195312 110.15625 23.410156 108.304688 22.980469 C 106.714844 22.636719 105.207031 22.851562 103.746094 22.980469 C 100.21875 23.324219 96.648438 23.410156 93.121094 23.453125 C 91.058594 23.453125 89.035156 23.625 86.972656 23.667969 C 85.808594 23.667969 84.648438 23.753906 83.488281 23.667969 C 81.722656 23.496094 79.960938 23.066406 78.367188 24.269531 C 78.066406 24.488281 77.59375 24.445312 77.164062 24.488281 C 73.851562 25.046875 70.453125 25.046875 67.144531 25.992188 C 64.390625 26.808594 62.28125 28.230469 60.949219 30.640625 C 58.972656 34.125 58.109375 38.042969 57.335938 41.914062 C 57.078125 43.378906 57.292969 44.972656 56.132812 45.960938 C 56.261719 46.992188 56.734375 48.027344 56.433594 48.714844 C 55.703125 50.265625 55.875 51.855469 55.832031 53.449219 C 55.832031 54.007812 55.402344 54.566406 55.230469 55.167969 C 55.101562 55.644531 55.058594 56.160156 55.015625 56.632812 C 54.925781 57.234375 54.539062 58.054688 54.796875 58.355469 C 55.703125 59.34375 54.28125 59.644531 54.367188 60.289062 C 55.488281 62.355469 55.488281 62.699219 54.539062 65.066406 C 54.710938 66.1875 54.796875 67.304688 54.753906 68.425781 C 54.710938 69.84375 54.109375 71.394531 54.496094 72.640625 C 55.058594 74.449219 54.324219 76.171875 54.753906 77.933594 C 55.101562 79.441406 53.679688 81.035156 54.667969 82.625 C 53.851562 83.441406 54.496094 84.261719 54.667969 85.121094 C 54.753906 85.507812 54.582031 85.894531 54.539062 86.328125 C 54.539062 86.757812 54.367188 87.273438 54.496094 87.660156 C 55.273438 90.371094 55.015625 92.910156 53.335938 95.320312 C 53.464844 95.535156 53.550781 95.792969 53.722656 96.007812 C 54.582031 97.085938 55.144531 98.203125 54.238281 99.582031 C 54.066406 99.839844 54.066406 100.269531 54.152344 100.570312 C 54.539062 101.949219 55.015625 103.28125 55.488281 104.660156 Z M 330.160156 63.519531 C 328.695312 64.851562 327.191406 64.164062 325.773438 63.863281 C 325.46875 63.820312 325.210938 63.304688 325.082031 62.914062 C 324.523438 61.582031 324.222656 61.367188 322.847656 61.625 C 321.511719 61.882812 320.179688 62.226562 318.804688 62.355469 C 316.09375 62.613281 313.726562 63.863281 311.234375 64.894531 C 309.640625 65.542969 307.664062 65.542969 306.632812 67.304688 C 306.503906 67.5625 306.03125 67.605469 305.726562 67.777344 C 302.976562 69.328125 300.09375 70.707031 297.8125 72.984375 C 297.210938 73.589844 296.695312 74.234375 296.050781 74.707031 C 293.726562 76.300781 292.480469 78.796875 291.019531 81.035156 C 289.769531 82.925781 288.953125 85.164062 288.394531 87.402344 C 287.835938 89.683594 287.277344 91.921875 287.535156 94.289062 C 287.578125 94.761719 287.492188 95.234375 287.535156 95.707031 C 287.621094 96.613281 287.621094 97.558594 287.878906 98.417969 C 288.265625 99.710938 288.996094 100.914062 288.824219 102.335938 C 288.78125 102.722656 289.039062 103.28125 289.296875 103.582031 C 290.417969 104.617188 290.113281 105.734375 289.425781 106.941406 C 290.546875 107.628906 291.621094 108.316406 292.78125 109.003906 C 291.75 110.210938 292.652344 110.898438 293.339844 111.585938 C 294.675781 113.007812 296.09375 114.34375 297.425781 115.71875 C 297.769531 116.0625 297.898438 116.621094 298.113281 117.097656 C 298.417969 117.742188 298.804688 118.300781 299.664062 118.042969 C 300.910156 117.699219 301.941406 117.914062 303.148438 118.601562 C 304.308594 119.246094 305.855469 119.246094 307.277344 119.417969 C 308.136719 119.507812 309.039062 119.332031 309.898438 119.375 C 311.105469 119.417969 312.308594 119.722656 313.46875 119.636719 C 315.492188 119.464844 317.511719 119.074219 319.535156 118.730469 C 320.480469 118.558594 321.511719 118.558594 322.332031 118.171875 C 324.609375 117.054688 326.804688 115.804688 329.039062 114.558594 C 329.296875 114.429688 329.554688 114.300781 329.6875 114.082031 C 330.847656 112.105469 333.039062 111.070312 334.246094 109.046875 C 335.105469 107.628906 336.78125 106.726562 336.953125 104.789062 C 336.953125 104.53125 337.253906 104.316406 337.382812 104.101562 C 337.859375 103.195312 338.375 102.335938 338.804688 101.429688 C 339.0625 100.871094 339.191406 100.226562 339.535156 99.753906 C 340.566406 98.417969 340.867188 96.828125 341.386719 95.320312 C 341.988281 93.46875 342.847656 91.664062 342.375 89.640625 C 342.332031 89.425781 342.632812 89.167969 342.71875 88.910156 C 343.320312 87.316406 343.535156 85.59375 343.0625 83.960938 C 342.546875 82.195312 341.730469 80.515625 341.082031 78.796875 C 340.566406 77.332031 340.050781 75.828125 339.75 74.320312 C 339.535156 73.289062 339.492188 72.425781 338.460938 71.738281 C 337.816406 71.308594 337.382812 70.316406 337.210938 69.5 C 336.867188 67.90625 336.050781 66.703125 334.71875 65.929688 C 333.253906 65.066406 331.707031 64.335938 330.117188 63.519531 Z M 330.160156 63.519531 " fill-opacity="1" fill-rule="nonzero"/></svg>