<svg xmlns="http://www.w3.org/2000/svg" xmlns:xlink="http://www.w3.org/1999/xlink" width="500" zoomAndPan="magnify" viewBox="0 0 375 374.999991" height="500" preserveAspectRatio="xMidYMid meet" version="1.0"><path fill="#000000" d="M 147.011719 19.839844 C 148.25 22.234375 147.953125 22.40625 146.542969 24.542969 C 145.472656 26.125 143.59375 26.9375 142.867188 28.777344 C 140.429688 30.402344 138.890625 32.925781 136.839844 34.9375 C 134.660156 37.074219 132.054688 38.957031 130.558594 41.738281 C 130.472656 41.910156 130.300781 42.035156 130.175781 42.207031 C 127.054688 45.289062 123.890625 48.367188 120.773438 51.488281 C 119.191406 53.070312 117.996094 54.996094 116.414062 56.492188 C 113.761719 58.929688 111.542969 61.753906 108.761719 64.019531 C 106.15625 66.117188 104.019531 68.769531 101.667969 71.164062 C 100.730469 72.105469 99.875 73.003906 99.019531 73.046875 C 98.121094 74.15625 97.523438 74.886719 96.839844 75.613281 C 95.898438 76.679688 94.917969 77.707031 93.933594 78.734375 C 93.335938 79.375 92.949219 80.230469 91.882812 80.273438 C 91.710938 80.273438 91.539062 80.660156 91.414062 80.828125 C 91.027344 81.300781 90.730469 81.855469 90.300781 82.285156 C 87.867188 84.59375 85.644531 87.160156 82.949219 89.253906 C 81.453125 90.410156 80.386719 92.035156 79.019531 93.363281 C 77.222656 95.15625 75.300781 96.867188 73.464844 98.621094 C 72.308594 99.777344 71.242188 101.019531 70.085938 102.171875 C 69.445312 102.8125 68.71875 103.328125 68.035156 103.839844 C 67.820312 104.011719 67.523438 104.097656 67.351562 104.3125 C 65 107.945312 61.285156 110.300781 58.546875 113.636719 C 57.179688 115.304688 55.386719 116.585938 53.804688 118.082031 C 52.777344 119.023438 51.710938 119.964844 50.683594 120.992188 C 50.386719 121.292969 50.214844 121.804688 50.042969 122.273438 C 49.832031 122.875 49.914062 123.644531 49.574219 124.027344 C 48.335938 125.226562 48.976562 126.125 49.832031 127.152344 C 50.898438 128.433594 50.472656 130.015625 50.429688 131.511719 C 50.429688 132.070312 50.472656 132.667969 50.515625 133.222656 C 50.597656 135.449219 50.984375 137.671875 50.515625 139.851562 C 50.515625 140.066406 50.386719 140.28125 50.429688 140.453125 C 50.8125 141.863281 50.726562 143.0625 50.085938 144.515625 C 49.617188 145.585938 50.214844 147.253906 50.597656 148.578125 C 50.898438 149.5625 51.410156 150.417969 50.640625 151.445312 C 50.472656 151.699219 50.472656 152.257812 50.640625 152.597656 C 51.027344 153.410156 50.984375 154.394531 51.285156 155.078125 C 52.136719 157.003906 50.855469 159.015625 51.796875 160.855469 C 51.96875 161.195312 51.625 161.753906 51.625 162.222656 C 51.625 162.820312 51.453125 163.503906 51.710938 164.019531 C 52.308594 165.257812 51.925781 166.070312 50.941406 166.585938 C 51.410156 169.195312 52.351562 171.71875 52.222656 174.15625 C 52.09375 176.25 52.480469 178.347656 52.011719 180.398438 C 51.925781 180.785156 52.011719 181.171875 52.050781 181.554688 C 52.136719 182.023438 52.394531 182.496094 52.351562 182.921875 C 52.222656 184.378906 52.09375 185.746094 52.4375 187.199219 C 52.652344 188.054688 51.625 189.082031 52.011719 190.152344 C 52.566406 191.777344 51.925781 193.445312 52.394531 195.15625 C 52.820312 196.78125 52.992188 198.664062 52.050781 200.332031 C 51.839844 200.714844 51.882812 201.273438 51.96875 201.742188 C 52.308594 204.09375 52.609375 206.488281 51.96875 208.84375 C 51.882812 209.097656 51.96875 209.441406 52.050781 209.613281 C 53.035156 210.9375 52.136719 212.222656 51.710938 213.332031 C 51.285156 214.53125 51.15625 215.558594 51.710938 216.625 C 52.011719 217.269531 52.011719 217.824219 51.925781 218.507812 C 51.796875 219.621094 52.222656 220.816406 52.609375 221.929688 C 52.609375 222.402344 51.496094 222.65625 52.394531 223.511719 C 52.609375 223.726562 52.308594 224.410156 52.308594 224.882812 C 52.308594 225.824219 51.753906 226.804688 52.566406 227.746094 C 52.777344 228.003906 52.566406 228.644531 52.523438 229.117188 C 52.523438 229.800781 52.222656 230.613281 52.523438 231.125 C 53.164062 232.28125 52.734375 233.222656 52.222656 234.121094 C 53.460938 236.601562 52.949219 238.910156 51.882812 241.347656 C 52.820312 242.460938 53.335938 243.742188 52.734375 245.367188 C 52.265625 246.652344 52.695312 248.277344 50.726562 249.21875 C 51.582031 249.730469 52.179688 250.074219 52.863281 250.457031 C 52.265625 251.441406 51.839844 252.125 51.367188 252.894531 C 51.667969 252.894531 52.011719 252.9375 52.4375 253.023438 C 52.566406 254.523438 52.734375 256.0625 52.863281 257.558594 C 52.863281 257.941406 52.863281 258.371094 52.734375 258.757812 C 52.566406 259.226562 52.351562 261.964844 52.4375 262.476562 C 52.695312 263.929688 52.949219 265.386719 53.078125 266.839844 C 53.078125 267.265625 52.777344 267.738281 52.695312 268.164062 C 52.609375 268.679688 52.351562 269.363281 52.566406 269.707031 C 53.335938 270.945312 53.164062 272.441406 52.863281 273.46875 C 52.265625 275.480469 53.078125 277.277344 52.949219 279.15625 C 52.863281 280.695312 53.378906 282.28125 52.523438 283.777344 C 52.394531 283.992188 52.523438 284.417969 52.566406 284.71875 C 52.609375 284.972656 52.90625 285.316406 52.820312 285.445312 C 51.453125 287.414062 53.503906 289.59375 52.394531 291.5625 C 52.394531 291.605469 52.351562 291.730469 52.394531 291.773438 C 53.675781 293.785156 51.753906 295.195312 51.367188 296.90625 C 53.292969 299.859375 53.121094 300.542969 49.574219 302.9375 C 50.042969 303.492188 50.558594 304.007812 51.027344 304.519531 C 52.394531 306.101562 53.035156 307.8125 52.523438 309.996094 C 52.265625 311.023438 52.480469 312.132812 52.480469 313.246094 C 52.480469 315.8125 52.308594 318.378906 52.523438 320.902344 C 52.777344 323.808594 51.710938 326.71875 52.523438 329.625 C 52.609375 329.96875 52.523438 330.480469 52.394531 330.824219 C 51.882812 331.851562 51.582031 332.835938 52.351562 333.902344 C 52.4375 334.03125 52.523438 334.332031 52.4375 334.503906 C 51.496094 336.769531 52.652344 339.207031 51.753906 341.472656 C 51.324219 342.542969 51.070312 343.699219 51.753906 344.808594 C 51.839844 344.980469 51.882812 345.238281 51.796875 345.410156 C 50.8125 347.933594 51.410156 350.585938 51.199219 353.152344 C 51.070312 354.519531 50.597656 355.886719 50.257812 357.46875 C 51.882812 358.199219 53.675781 357.8125 55.472656 357.597656 C 57.480469 357.386719 59.53125 357.171875 61.539062 356.914062 C 64.148438 356.574219 66.796875 356.230469 69.402344 355.84375 C 72.90625 355.332031 76.410156 354.734375 79.917969 354.21875 C 80.472656 354.132812 81.027344 354.304688 81.753906 354.390625 C 83.207031 353.277344 83.25 353.277344 85.128906 353.234375 C 84.574219 353.664062 84.234375 353.921875 83.761719 354.304688 C 84.445312 354.988281 84.917969 355.71875 85.644531 356.144531 C 86.667969 356.785156 85.941406 357.8125 86.453125 358.496094 C 87.394531 358.96875 88.335938 359.308594 89.148438 359.867188 C 89.832031 360.335938 90.085938 361.019531 89.402344 361.746094 C 89.234375 361.917969 88.933594 362.21875 88.976562 362.390625 C 89.359375 364.183594 87.90625 364.699219 86.882812 365.511719 C 84.105469 367.734375 80.898438 368.976562 77.4375 369.660156 C 74.53125 370.257812 71.582031 370.816406 68.632812 371.242188 C 64.703125 371.796875 60.726562 372.269531 56.753906 372.695312 C 55.984375 372.78125 55.171875 372.484375 54.832031 372.441406 C 53.121094 372.824219 51.796875 373.425781 50.515625 373.296875 C 47.90625 373.082031 45.429688 373.808594 42.90625 374.109375 C 41.367188 374.28125 39.789062 374.238281 38.25 374.320312 C 36.753906 374.40625 35.257812 374.621094 33.761719 374.492188 C 31.027344 374.28125 28.25 374.835938 25.511719 374.238281 C 24.488281 374.023438 23.332031 374.152344 22.265625 374.109375 C 21.710938 374.109375 21.15625 374.066406 20.640625 373.9375 C 19.488281 373.59375 18.289062 372.910156 17.179688 372.953125 C 15.984375 372.996094 14.957031 372.695312 13.847656 372.484375 C 12.605469 372.226562 11.324219 372.441406 10.085938 372.226562 C 7.949219 371.925781 5.855469 371.457031 3.71875 371.027344 C 2.605469 368.589844 1.539062 366.28125 0.425781 363.972656 C 0 363.03125 0 362.304688 0.984375 361.703125 C 1.324219 361.492188 1.667969 361.191406 1.792969 360.847656 C 2.222656 359.824219 3.164062 359.523438 4.058594 359.308594 C 5.300781 359.011719 6.625 358.796875 7.90625 358.710938 C 10.898438 358.539062 13.847656 358.367188 16.839844 358.324219 C 20.085938 358.285156 23.375 358.324219 26.625 358.324219 C 29.617188 358.324219 32.648438 358.324219 35.726562 358.324219 C 35.683594 358.199219 35.640625 357.984375 35.511719 357.898438 C 34.1875 356.871094 32.734375 355.886719 31.496094 354.777344 C 29.316406 352.808594 29.273438 352.039062 30.683594 349.472656 C 29.445312 347.460938 29.101562 344.726562 29.660156 342.371094 C 29.957031 341.089844 30 339.804688 29.1875 338.652344 C 28.675781 337.882812 28.589844 337.15625 28.890625 336.171875 C 29.1875 335.144531 28.761719 333.945312 28.761719 332.792969 C 28.761719 331.722656 28.890625 330.652344 28.933594 329.625 C 28.933594 329.113281 28.933594 328.558594 28.761719 328.085938 C 28.335938 326.976562 28.25 325.949219 28.589844 324.707031 C 28.847656 323.722656 28.589844 322.570312 28.417969 321.5 C 27.992188 319.019531 28.121094 316.539062 28.035156 314.058594 C 27.949219 311.835938 28.25 309.609375 28.164062 307.386719 C 28.078125 305.164062 28.460938 302.9375 28.675781 300.714844 C 28.675781 300.457031 28.675781 300.074219 28.890625 299.945312 C 29.957031 299.21875 29.402344 298.445312 29.019531 297.675781 C 28.417969 296.4375 28.078125 295.238281 29.273438 294.171875 C 28.976562 293.398438 28.71875 292.714844 28.417969 291.945312 C 29.058594 291.773438 29.574219 291.648438 30 291.519531 C 30 291.304688 30.085938 291.089844 30 291.046875 C 29.359375 290.621094 29.316406 289.9375 29.1875 289.292969 C 28.847656 287.582031 28.632812 285.828125 29.058594 284.078125 C 29.144531 283.734375 29.316406 283.304688 29.1875 283.09375 C 28.292969 281.636719 29.101562 280.011719 28.804688 278.515625 C 28.761719 278.257812 28.675781 277.917969 28.804688 277.703125 C 30.171875 275.691406 29.058594 273.511719 29.230469 271.457031 C 29.402344 269.449219 29.746094 267.351562 29.359375 265.429688 C 29.019531 263.675781 30 262.09375 29.402344 260.425781 C 29.273438 260.082031 29.53125 259.652344 29.574219 259.226562 C 29.746094 257.902344 30.300781 256.574219 29.359375 255.292969 C 29.230469 255.121094 29.144531 254.648438 29.273438 254.523438 C 30.085938 253.453125 29.488281 252.382812 29.488281 251.269531 C 29.488281 249.730469 29.574219 248.148438 30.683594 246.738281 C 31.410156 245.796875 31.199219 244.46875 30.429688 243.488281 C 29.1875 241.90625 29.273438 240.363281 30.042969 238.527344 C 30.472656 237.542969 30.171875 236.128906 29.785156 235.019531 C 29.445312 233.992188 29.445312 233.09375 29.660156 232.023438 C 29.871094 230.996094 29.785156 229.886719 29.785156 228.816406 C 29.785156 228.347656 29.574219 227.789062 29.785156 227.40625 C 30.554688 225.949219 30.171875 224.453125 30 223 C 29.660156 220.433594 30.300781 218.082031 31.027344 215.730469 C 31.199219 215.128906 31.027344 214.402344 30.941406 213.761719 C 30.855469 213.035156 30.597656 212.308594 30.597656 211.578125 C 30.597656 210.726562 30.429688 209.65625 30.597656 209.054688 C 30.898438 208.160156 30.984375 207.644531 30.300781 207.003906 C 30.214844 206.960938 30.511719 206.53125 30.554688 206.320312 C 30.640625 206.019531 30.855469 205.59375 30.769531 205.378906 C 29.53125 203.027344 30.8125 200.589844 30.554688 198.191406 C 30.554688 197.851562 30.726562 197.464844 30.597656 197.167969 C 29.488281 194.257812 30.386719 191.390625 30.683594 188.527344 C 30.726562 188.011719 30.683594 187.457031 30.597656 186.945312 C 30.554688 186.34375 30.386719 185.746094 30.429688 185.148438 C 30.640625 182.582031 30.257812 179.972656 30.769531 177.449219 C 30.898438 176.765625 30.597656 175.953125 30.554688 175.226562 C 30.386719 171.289062 31.070312 167.355469 30.683594 163.378906 C 30.429688 160.339844 30.683594 157.261719 30.554688 154.183594 C 30.511719 152.855469 30.597656 151.488281 30.8125 150.160156 C 30.984375 149.050781 31.027344 148.023438 30.640625 146.953125 C 30.554688 146.652344 30.597656 146.226562 30.769531 145.96875 C 31.199219 145.285156 30.898438 144.515625 31.070312 143.875 C 31.582031 141.691406 30.34375 139.8125 30.386719 137.714844 C 30.386719 135.703125 30.042969 133.695312 30.429688 131.640625 C 30.640625 130.574219 30.171875 129.375 30.085938 128.21875 C 30 127.152344 30.386719 126.125 30.640625 125.054688 C 31.027344 123.429688 31.625 121.632812 30.429688 120.007812 C 30.128906 119.582031 30.171875 118.851562 30.171875 118.253906 C 30.171875 117.398438 30.34375 116.5 30.34375 115.644531 C 30.34375 113.761719 30.386719 111.839844 30.386719 109.957031 C 30.386719 108.714844 30.257812 107.519531 30.34375 106.277344 C 30.429688 104.738281 30.597656 103.242188 30.769531 101.703125 C 30.769531 101.445312 30.898438 101.144531 30.8125 100.933594 C 29.871094 98.496094 30.683594 96.097656 31.027344 93.703125 C 31.113281 93.019531 31.15625 92.464844 30.941406 91.78125 C 30.769531 91.222656 30.597656 90.496094 30.726562 89.984375 C 31.582031 87.203125 30.34375 84.378906 30.855469 81.601562 C 31.070312 80.488281 31.027344 79.417969 32.394531 78.777344 C 31.199219 78.777344 30.683594 78.390625 31.15625 77.410156 C 31.539062 76.554688 32.050781 75.742188 32.480469 74.929688 C 30.8125 72.703125 31.15625 66.542969 33.121094 64.320312 C 32.007812 63.335938 31.921875 62.183594 32.648438 60.898438 C 32.734375 60.769531 32.820312 60.601562 32.777344 60.515625 C 31.882812 58.117188 33.546875 55.9375 33.375 53.585938 C 33.25 51.53125 33.675781 49.394531 34.019531 47.296875 C 34.101562 46.742188 34.53125 46.1875 34.957031 45.800781 C 35.769531 45.074219 36.070312 44.304688 35.511719 43.277344 C 35.042969 42.378906 35.214844 41.566406 35.597656 40.582031 C 36.15625 39.214844 36.238281 37.675781 36.625 36.261719 C 37.652344 32.285156 39.0625 28.4375 41.199219 24.972656 C 42.566406 22.789062 43.417969 20.097656 45.898438 18.683594 C 46.96875 16.246094 49.316406 15.09375 51.15625 13.382812 C 52.734375 11.882812 54.746094 11.199219 56.582031 10.171875 C 59.914062 8.335938 63.546875 7.222656 67.09375 5.894531 C 68.078125 5.554688 69.234375 5.726562 70.257812 5.46875 C 71.285156 5.210938 72.222656 4.570312 73.25 4.355469 C 76.453125 3.800781 79.703125 3.414062 82.949219 2.945312 C 83.464844 2.859375 83.976562 2.558594 84.53125 2.472656 C 87.949219 2.089844 91.371094 1.746094 94.789062 1.449219 C 96.839844 1.277344 98.976562 0.804688 100.898438 1.191406 C 103.164062 1.703125 105.300781 0.507812 107.523438 1.191406 C 108.507812 1.492188 109.746094 0.761719 110.898438 0.722656 C 113.59375 0.550781 113.59375 0.59375 115.773438 1.917969 C 117.183594 0.59375 118.890625 0.164062 120.816406 0.636719 C 121.285156 0.722656 121.753906 0.636719 122.226562 0.636719 C 124.875 0.550781 127.523438 0.421875 130.175781 0.378906 C 131.667969 0.378906 133.164062 0.378906 134.660156 0.421875 C 136.199219 0.464844 137.78125 0.550781 139.320312 0.636719 C 139.875 0.636719 140.429688 0.679688 140.945312 0.679688 C 143.59375 0.679688 146.199219 0.679688 148.851562 0.679688 C 150.046875 0.679688 151.285156 0.550781 152.480469 0.59375 C 157.566406 0.636719 162.652344 0.722656 167.738281 0.804688 C 167.996094 0.804688 168.335938 0.722656 168.550781 0.804688 C 170.132812 1.746094 171.671875 0.933594 173.253906 0.890625 C 176.542969 0.804688 179.875 1.019531 183.210938 1.105469 C 184.621094 1.105469 186.03125 1.105469 187.441406 1.148438 C 189.917969 1.234375 192.398438 1.449219 194.917969 1.492188 C 196.457031 1.492188 198.039062 1.320312 199.578125 1.320312 C 200.601562 1.320312 201.671875 1.578125 202.398438 1.660156 C 204.492188 1.578125 206.285156 1.40625 208.082031 1.492188 C 209.835938 1.578125 211.542969 1.917969 213.296875 2.175781 C 213.507812 2.175781 213.722656 2.261719 213.894531 2.175781 C 215.601562 1.40625 217.183594 1.535156 218.636719 2.988281 C 220.046875 1.40625 221.84375 1.875 223.507812 1.789062 C 224.792969 1.746094 226.117188 1.789062 227.398438 1.960938 C 228.511719 2.089844 229.621094 2.472656 230.730469 2.601562 C 231.714844 2.6875 232.824219 2.859375 233.679688 2.515625 C 235.730469 1.703125 237.828125 2.175781 239.921875 2.089844 C 241.375 2.046875 242.910156 1.660156 244.28125 2.6875 C 244.40625 2.816406 244.792969 2.6875 245.007812 2.601562 C 247.355469 1.617188 249.707031 2.601562 252.058594 2.433594 C 252.226562 2.433594 252.484375 2.558594 252.570312 2.6875 C 253.167969 3.628906 253.980469 3.457031 254.707031 3.03125 C 255.605469 2.515625 256.5 2.558594 257.441406 2.472656 C 259.238281 2.304688 260.988281 3.117188 262.871094 2.558594 C 263.511719 2.390625 264.792969 2.132812 265.390625 3.246094 C 266.117188 2.816406 266.714844 3.117188 267.230469 3.628906 C 267.269531 3.671875 267.742188 3.542969 267.742188 3.457031 C 267.828125 2.730469 268.296875 2.902344 268.765625 2.902344 C 269.707031 2.902344 270.648438 2.730469 271.546875 2.6875 C 272.101562 2.6875 272.613281 2.6875 273.167969 2.816406 C 274.449219 3.03125 275.691406 3.328125 276.972656 3.5 C 277.230469 3.5 277.570312 3.285156 277.871094 3.203125 C 278.382812 3.074219 279.023438 2.730469 279.367188 2.902344 C 280.945312 3.800781 282.699219 3.03125 284.28125 3.628906 C 285.691406 4.183594 287.101562 3.457031 288.46875 3.414062 C 289.152344 3.414062 289.792969 3.414062 290.476562 3.414062 C 292.398438 3.542969 294.28125 3.757812 296.160156 3.84375 C 298.253906 3.929688 300.347656 3.757812 302.402344 4.441406 C 302.742188 4.570312 303.210938 4.355469 303.597656 4.441406 C 304.453125 4.527344 305.304688 4.699219 306.160156 4.871094 C 306.417969 4.914062 306.71875 5.167969 306.929688 5.082031 C 308.640625 4.355469 309.621094 5.425781 310.605469 6.664062 C 310.992188 6.453125 311.332031 6.238281 311.675781 6.066406 C 312.613281 5.554688 313.425781 5.726562 313.9375 6.625 C 314.496094 7.605469 315.347656 7.949219 316.417969 8.207031 C 317.828125 8.546875 319.066406 9.230469 319.28125 10.984375 C 319.28125 11.285156 319.707031 11.585938 320.007812 11.796875 C 320.777344 12.269531 321.417969 12.609375 321.289062 13.808594 C 321.246094 14.320312 322.445312 15.175781 323.214844 15.5625 C 324.324219 16.117188 325.308594 16.929688 325.5625 18 C 325.992188 19.667969 327.359375 20.695312 328.042969 22.148438 C 328.511719 23.132812 329.023438 23.902344 328.8125 25.144531 C 328.597656 26.339844 329.152344 27.667969 329.28125 28.90625 C 329.410156 30.234375 329.667969 31.558594 329.066406 32.925781 C 328.726562 33.738281 328.769531 34.808594 328.941406 35.707031 C 329.238281 37.289062 328.128906 38.785156 328.898438 40.328125 C 327.613281 42.078125 329.195312 44.433594 327.742188 46.1875 C 327.570312 46.398438 327.613281 46.828125 327.699219 47.128906 C 328.214844 49.09375 328.296875 51.019531 327.230469 52.859375 C 327.230469 52.902344 327.144531 52.988281 327.144531 53.03125 C 328.085938 54.699219 326.589844 56.238281 326.84375 57.992188 C 328.296875 58.589844 329.707031 59.273438 330.308594 61.070312 C 330.519531 61.710938 331.675781 62.054688 332.445312 62.480469 C 333.425781 62.996094 334.496094 63.378906 334.152344 64.835938 C 334.109375 65.046875 334.410156 65.433594 334.625 65.648438 C 335.519531 66.503906 336.460938 67.273438 337.359375 68.128906 C 338.984375 69.667969 340.5625 71.164062 341.246094 73.472656 C 341.761719 75.183594 342.699219 76.808594 344.152344 78.007812 C 344.324219 78.136719 344.539062 78.265625 344.582031 78.433594 C 344.921875 80.230469 345.265625 82.027344 345.519531 83.824219 C 345.605469 84.335938 345.4375 84.9375 345.605469 85.40625 C 345.949219 86.433594 345.820312 87.289062 345.351562 88.316406 C 344.75 89.683594 344.195312 91.222656 345.007812 92.847656 C 345.222656 93.277344 345.179688 93.917969 345.007812 94.386719 C 344.109375 97.296875 343.171875 100.25 342.144531 103.113281 C 341.375 105.210938 340.605469 107.390625 339.410156 109.230469 C 338.128906 111.15625 337.359375 113.464844 335.433594 115.003906 C 334.195312 116.03125 333.214844 117.398438 332.273438 118.683594 C 330.734375 120.777344 328.253906 121.632812 326.417969 123.34375 C 326.078125 123.644531 325.648438 123.859375 325.265625 124.15625 C 324.707031 124.542969 324.195312 125.054688 323.597656 125.355469 C 321.035156 126.636719 318.46875 127.921875 315.863281 129.03125 C 314.792969 129.503906 313.511719 129.546875 312.402344 129.71875 C 312.273438 130.699219 312.144531 131.554688 312.101562 132.410156 C 312.101562 132.796875 312.1875 133.308594 312.402344 133.523438 C 314.066406 134.722656 314.453125 137.03125 316.289062 138.144531 C 316.632812 138.355469 316.71875 138.957031 316.929688 139.425781 C 317.359375 140.367188 317.742188 141.265625 318.855469 141.648438 C 319.28125 141.777344 319.707031 142.335938 319.964844 142.804688 C 321.417969 145.5 323.382812 147.851562 325.519531 150.074219 C 325.777344 150.332031 326.035156 150.589844 326.160156 150.886719 C 326.632812 152.386719 327.570312 153.496094 328.8125 154.4375 C 329.152344 154.695312 329.367188 155.207031 329.582031 155.636719 C 330.433594 157.644531 331.632812 159.441406 333.382812 160.769531 C 333.683594 161.023438 333.984375 161.324219 334.195312 161.667969 C 335.519531 163.464844 336.929688 165.257812 338.171875 167.097656 C 338.984375 168.339844 339.582031 169.707031 340.351562 170.992188 C 340.777344 171.71875 341.332031 172.402344 341.886719 173.085938 C 342.957031 174.457031 344.066406 175.867188 345.179688 177.234375 C 345.308594 177.40625 345.476562 177.664062 345.4375 177.75 C 344.710938 179.332031 345.90625 179.929688 346.890625 180.613281 C 347.144531 180.828125 347.53125 181.171875 347.488281 181.382812 C 347.230469 182.882812 347.957031 184.207031 348 185.617188 C 348 186.175781 347.574219 186.730469 347.230469 187.242188 C 346.929688 187.757812 346.503906 188.183594 346.203125 188.65625 C 345.5625 189.765625 342.1875 190.664062 341.160156 189.9375 C 340.90625 189.765625 340.734375 189.425781 340.476562 189.167969 C 339.582031 188.226562 339.496094 186.859375 338.128906 186.089844 C 337.144531 185.53125 336.972656 183.652344 336.035156 182.964844 C 334.410156 181.769531 334.28125 179.375 332.1875 178.730469 C 331.929688 178.648438 331.804688 178.21875 331.589844 177.917969 C 331.117188 177.277344 330.734375 176.550781 330.179688 175.953125 C 329.582031 175.3125 329.109375 174.667969 328.769531 173.769531 C 328.425781 172.871094 327.613281 172.144531 326.929688 171.375 C 325.949219 170.261719 324.835938 169.238281 323.898438 168.082031 C 322.488281 166.414062 321.117188 164.703125 319.75 163.035156 C 317.484375 160.253906 315.265625 157.519531 312.914062 154.652344 C 312.871094 156.277344 311.546875 157.046875 310.347656 158.074219 C 310.734375 158.714844 310.992188 159.398438 311.460938 159.914062 C 312.785156 161.453125 313.128906 163.464844 312.445312 165.046875 C 311.160156 167.996094 313.128906 170.820312 312.273438 173.640625 C 312.144531 174.070312 312.144531 174.539062 312.058594 175.011719 C 311.972656 175.566406 311.886719 176.164062 311.800781 176.722656 C 311.71875 177.578125 311.675781 178.476562 311.632812 179.332031 C 311.632812 179.585938 311.417969 179.886719 311.503906 180.144531 C 312.058594 181.8125 312.230469 183.480469 311.160156 185.0625 C 311.71875 186.429688 310.992188 187.671875 310.863281 188.996094 C 310.691406 191.605469 310.777344 194.257812 310.605469 196.910156 C 310.5625 197.9375 310.519531 199.003906 309.582031 199.859375 C 309.066406 200.332031 308.980469 201.1875 308.683594 202 C 309.664062 202.855469 309.75 204.007812 309.621094 205.25 C 309.367188 207.945312 309.195312 210.683594 308.894531 213.375 C 308.554688 216.542969 308.042969 219.664062 307.699219 222.785156 C 307.441406 225.308594 307.402344 227.875 307.230469 230.441406 C 307.230469 230.828125 307.230469 231.339844 306.972656 231.597656 C 306.074219 232.707031 306.03125 233.863281 306.332031 235.230469 C 306.71875 236.859375 306.417969 238.484375 305.222656 239.851562 C 306.117188 241.007812 306.117188 241.988281 305.605469 243.402344 C 305.007812 245.027344 304.707031 246.609375 303.167969 247.636719 C 302.828125 247.847656 302.65625 248.40625 302.484375 248.875 C 302.015625 250.289062 301.203125 251.269531 299.707031 251.527344 C 299.238281 253.238281 298.210938 254.480469 297.058594 255.71875 C 295.820312 257.046875 294.878906 258.585938 293.683594 259.953125 C 292.101562 261.792969 291.03125 264.058594 288.894531 265.472656 C 288.425781 265.769531 288.042969 266.371094 287.828125 266.882812 C 287.355469 268.082031 286.84375 269.148438 285.605469 269.664062 C 285.390625 269.75 285.09375 269.960938 285.050781 270.175781 C 284.835938 271.332031 283.894531 271.972656 283.296875 272.828125 C 281.503906 275.308594 279.75 277.789062 277.484375 279.84375 C 277.015625 280.269531 276.714844 280.953125 276.375 281.554688 C 275.945312 282.238281 275.519531 282.921875 275.09375 283.648438 C 273.851562 285.660156 272.613281 287.667969 271.332031 289.636719 C 270.691406 290.664062 270.050781 291.648438 268.46875 291.347656 C 267.65625 291.175781 266.714844 291.5625 265.902344 291.859375 C 264.964844 292.203125 264.367188 291.859375 263.808594 291.132812 C 263.253906 290.363281 262.441406 289.636719 263.339844 288.824219 C 262.871094 288.054688 262.3125 287.457031 262.101562 286.726562 C 261.628906 285.144531 260.988281 283.90625 259.066406 283.605469 C 257.570312 283.347656 256.375 280.097656 257.226562 278.816406 C 257.871094 277.832031 258.511719 277.0625 258.679688 275.734375 C 258.851562 274.367188 260.09375 273.167969 260.859375 271.886719 C 261.332031 271.074219 261.84375 270.261719 262.3125 269.449219 C 262.398438 269.277344 262.441406 269.019531 262.570312 268.894531 C 264.621094 266.710938 265.605469 263.847656 267.527344 261.578125 C 268.554688 260.382812 269.367188 258.925781 270.304688 257.601562 C 272.273438 254.777344 274.195312 251.871094 276.246094 249.089844 C 278.210938 246.4375 280.390625 243.914062 282.441406 241.347656 C 282.570312 241.175781 282.785156 241.09375 282.871094 240.921875 C 283.9375 237.882812 286.375 235.832031 288.296875 233.394531 C 289.28125 232.109375 289.664062 231.039062 289.195312 229.371094 C 288.769531 227.960938 289.195312 226.292969 289.238281 224.710938 C 289.238281 223.769531 289.324219 222.828125 289.367188 221.886719 C 289.367188 221.675781 289.324219 221.460938 289.324219 221.289062 C 289.453125 219.621094 290.136719 217.996094 289.453125 216.242188 C 289.28125 215.773438 289.964844 214.917969 290.347656 214.105469 C 288.9375 212.691406 289.578125 210.980469 290.304688 209.484375 C 290.90625 208.285156 290.777344 207.175781 290.476562 206.148438 C 289.75 203.367188 290.007812 200.800781 291.632812 198.234375 C 289.878906 196.652344 290.304688 194.6875 290.988281 192.847656 C 291.246094 192.121094 291.289062 191.605469 290.988281 190.921875 C 290.476562 189.765625 290.476562 188.65625 291.375 187.671875 C 292.058594 186.902344 291.714844 186.046875 291.503906 185.320312 C 291.289062 184.464844 290.863281 183.652344 291.460938 182.796875 C 291.546875 182.667969 291.589844 182.367188 291.503906 182.195312 C 290.605469 180.316406 291.417969 178.433594 291.589844 176.59375 C 291.589844 176.25 291.84375 175.867188 291.714844 175.609375 C 291.160156 174.113281 291.714844 172.660156 291.929688 171.203125 C 292.101562 170.050781 291.929688 168.808594 291.929688 167.613281 C 291.929688 167.226562 292.058594 166.84375 292.1875 166.457031 C 292.273438 166.199219 292.484375 165.945312 292.484375 165.730469 C 292.398438 164.320312 292.230469 162.949219 292.230469 161.582031 C 292.230469 160.640625 292.230469 159.65625 292.527344 158.757812 C 293.253906 156.578125 293 154.394531 292.570312 151.617188 C 292.230469 152.257812 292.101562 152.597656 291.886719 152.855469 C 289.792969 155.464844 287.699219 158.03125 285.5625 160.597656 C 285.21875 161.023438 284.707031 161.28125 284.964844 161.964844 C 285.007812 162.09375 284.878906 162.351562 284.75 162.523438 C 282.957031 164.960938 281.074219 167.398438 279.324219 169.878906 C 278.167969 171.460938 277.230469 173.171875 276.03125 174.710938 C 274.878906 176.25 273.46875 177.621094 272.230469 179.074219 C 271.972656 179.375 271.886719 179.800781 271.671875 180.144531 C 270.347656 182.496094 268.765625 184.632812 266.546875 186.132812 C 265.21875 187.03125 263.808594 187.800781 262.699219 189.039062 C 262.3125 189.46875 261.503906 189.597656 260.859375 189.851562 C 259.621094 188.140625 258.339844 186.644531 257.742188 184.675781 C 257.441406 183.777344 256.671875 183.007812 255.988281 182.238281 C 255.648438 181.855469 255.089844 181.640625 254.75 181.425781 C 255.007812 180.570312 255.21875 179.84375 255.433594 179.074219 C 255.519531 178.816406 255.5625 178.519531 255.734375 178.347656 C 257.871094 176.207031 258.894531 173.34375 260.777344 171.035156 C 261.800781 169.792969 262.355469 168.210938 263.210938 166.800781 C 263.851562 165.730469 264.664062 164.789062 265.304688 163.632812 C 266.929688 160.683594 268.851562 157.902344 270.734375 155.082031 C 272.1875 152.8125 273.726562 150.632812 275.21875 148.40625 C 275.433594 148.066406 275.476562 147.636719 275.691406 147.296875 C 276.375 146.054688 276.886719 144.601562 277.914062 143.703125 C 279.023438 142.761719 279.023438 141.4375 279.707031 140.367188 C 280.390625 139.296875 282.015625 139 282.015625 137.414062 C 282.015625 137.289062 282.101562 137.117188 282.1875 137.074219 C 284.410156 135.746094 284.878906 132.710938 287.484375 131.726562 C 287.65625 131.683594 287.742188 131.429688 288 131.171875 C 287.527344 130.65625 287.058594 130.101562 286.632812 129.589844 C 284.964844 129.761719 283.382812 129.929688 281.84375 128.988281 C 281.160156 128.5625 280.304688 128.476562 279.535156 128.21875 C 279.28125 128.132812 278.980469 128.050781 278.808594 127.878906 C 277.230469 126.425781 275.175781 125.226562 274.324219 123.300781 C 273.640625 121.761719 272.015625 121.078125 271.585938 119.410156 C 271.417969 118.726562 270.433594 118.125 269.75 117.65625 C 268.640625 116.929688 267.65625 116.203125 267.101562 114.917969 C 266.757812 114.148438 266.03125 113.550781 265.5625 112.824219 C 265.132812 112.136719 264.792969 111.410156 264.449219 110.683594 C 264.28125 110.300781 264.238281 109.699219 263.9375 109.488281 C 262.015625 108.03125 261.503906 106.277344 262.570312 104.484375 C 262.015625 103.242188 261.585938 102.257812 261.160156 101.316406 C 260.988281 100.976562 260.902344 100.546875 260.648438 100.25 C 260.09375 99.519531 259.578125 98.792969 260.09375 97.851562 C 260.132812 97.726562 260.21875 97.554688 260.175781 97.46875 C 258.765625 94.132812 261.03125 90.96875 260.5625 87.671875 C 261.585938 86.261719 260.648438 84.378906 261.84375 82.925781 C 262.269531 82.457031 262.015625 81.472656 262.3125 80.789062 C 262.828125 79.546875 263.511719 78.390625 264.109375 77.152344 C 264.449219 76.46875 264.707031 75.785156 264.964844 75.097656 C 265.648438 73.175781 266.246094 71.207031 268.082031 69.964844 C 268.253906 69.839844 268.425781 69.667969 268.46875 69.496094 C 269.152344 67.1875 270.863281 65.476562 272.441406 63.894531 C 274.75 61.582031 276.800781 58.761719 280.304688 57.992188 C 280.605469 57.949219 280.90625 57.648438 281.03125 57.390625 C 281.417969 56.792969 281.84375 56.492188 282.570312 56.664062 C 282.699219 56.664062 282.914062 56.707031 282.957031 56.664062 C 284.195312 54.996094 286.332031 55.253906 288 54.441406 C 290.261719 53.328125 292.828125 52.6875 295.304688 52.046875 C 296.886719 51.617188 298.597656 51.53125 300.222656 51.320312 C 300.949219 51.234375 301.71875 51.234375 302.441406 51.148438 C 303.46875 51.0625 304.453125 50.933594 305.476562 50.890625 C 306.546875 50.847656 307.613281 50.890625 308.769531 50.890625 C 308.769531 50.890625 308.980469 50.71875 308.9375 50.632812 C 308.425781 48.796875 308.769531 47.042969 309.066406 45.203125 C 309.367188 43.234375 309.066406 41.226562 309.238281 39.214844 C 309.28125 38.273438 309.707031 37.332031 310.007812 36.007812 C 309.621094 35.449219 309.109375 34.507812 309.921875 33.398438 C 310.007812 33.269531 310.007812 33.011719 309.921875 32.800781 C 309.410156 30.789062 309.582031 28.777344 309.835938 26.769531 C 309.964844 25.699219 309.28125 24.972656 308.171875 24.84375 C 305.734375 24.585938 303.339844 24.289062 300.90625 24.074219 C 297.1875 23.730469 293.425781 23.476562 289.707031 23.175781 C 289.324219 23.175781 288.808594 23.089844 288.554688 22.875 C 287.359375 21.851562 285.988281 22.0625 284.664062 22.277344 C 281.628906 22.746094 278.597656 22.746094 275.5625 22.277344 C 275.433594 22.277344 275.261719 22.148438 275.175781 22.191406 C 273.46875 23.261719 271.628906 21.679688 269.878906 22.449219 C 269.578125 22.578125 269.109375 22.277344 268.722656 22.234375 C 267.230469 22.105469 265.777344 21.679688 264.28125 22.277344 C 264.152344 22.320312 263.980469 22.363281 263.894531 22.320312 C 260.734375 21.207031 257.484375 22.621094 254.28125 22.019531 C 251.972656 21.59375 249.578125 21.765625 247.226562 21.890625 C 245.132812 22.019531 243.082031 21.890625 240.988281 21.851562 C 240.859375 21.851562 240.730469 21.765625 240.605469 21.765625 C 236.929688 21.722656 233.296875 21.636719 229.621094 21.59375 C 225.261719 21.550781 220.945312 21.59375 216.585938 21.421875 C 214.023438 21.335938 211.457031 20.652344 208.9375 20.867188 C 207.140625 21.035156 205.433594 20.652344 203.679688 20.867188 C 203.421875 20.867188 203.125 20.996094 202.867188 20.953125 C 199.917969 20.097656 196.800781 21.035156 193.808594 20.308594 C 193.039062 20.140625 192.097656 20.566406 191.242188 20.566406 C 189.363281 20.566406 187.441406 20.394531 185.558594 20.351562 C 182.183594 20.265625 178.808594 20.222656 175.429688 20.054688 C 173.210938 19.925781 170.988281 19.625 168.765625 19.453125 C 168.292969 19.453125 167.824219 19.625 167.355469 19.625 C 166.542969 19.625 165.601562 19.882812 164.960938 19.582031 C 163.679688 18.984375 162.484375 19.15625 161.199219 19.410156 C 160.945312 19.453125 160.601562 19.667969 160.429688 19.582031 C 158.679688 18.597656 156.714844 18.941406 154.832031 18.726562 C 154.191406 18.640625 153.378906 18.554688 152.867188 18.855469 C 151.457031 19.710938 149.960938 19.367188 148.507812 19.410156 C 148.125 19.410156 147.695312 19.496094 147.097656 19.539062 Z M 49.445312 101.914062 L 49.871094 102.042969 C 51.242188 100.460938 52.609375 98.878906 53.976562 97.296875 C 55.128906 96.011719 56.582031 95.03125 57.609375 93.53125 C 58.847656 91.78125 60.472656 90.28125 61.925781 88.699219 C 63.078125 87.417969 64.230469 86.046875 65.429688 84.808594 C 66.753906 83.4375 68.207031 82.242188 69.488281 80.871094 C 71.410156 78.820312 73.421875 76.722656 75.128906 74.542969 C 77.265625 71.847656 80.429688 70.265625 82.097656 67.1875 C 82.308594 66.800781 82.867188 66.628906 83.25 66.332031 C 83.507812 66.117188 83.804688 65.945312 84.0625 65.730469 C 84.789062 64.917969 85.429688 64.105469 86.199219 63.335938 C 86.753906 62.738281 87.4375 62.265625 87.992188 61.667969 C 89.53125 60.042969 90.941406 58.332031 92.523438 56.75 C 95.085938 54.226562 97.738281 51.789062 100.34375 49.351562 C 102.011719 47.769531 103.679688 46.1875 105.429688 44.6875 C 107.226562 43.105469 109.277344 41.824219 110.816406 40.070312 C 112.78125 37.84375 115.003906 35.878906 117.097656 33.78125 C 118.464844 32.414062 120.214844 31.386719 121.414062 29.890625 C 122.738281 28.179688 124.746094 27.324219 125.984375 25.484375 C 127.183594 23.730469 129.105469 22.492188 130.6875 20.992188 C 131.199219 20.480469 131.628906 19.882812 132.269531 19.113281 C 131.542969 19.027344 131.070312 18.941406 130.644531 18.941406 C 129.363281 18.941406 128.082031 18.941406 126.796875 18.941406 C 126.328125 18.941406 125.859375 18.941406 125.386719 18.898438 C 123.378906 18.8125 121.371094 18.769531 119.363281 18.640625 C 118.292969 18.597656 117.140625 18.171875 116.199219 18.46875 C 115.300781 18.8125 114.660156 18.984375 113.761719 18.597656 C 113.335938 18.425781 112.738281 18.640625 112.183594 18.683594 C 110.816406 18.8125 109.445312 19.199219 108.164062 18.984375 C 107.226562 18.8125 106.457031 18.34375 105.515625 19.027344 C 105.300781 19.199219 104.875 19.113281 104.53125 19.113281 C 101.96875 19.242188 99.363281 19.28125 96.796875 19.453125 C 93.761719 19.667969 90.6875 20.097656 87.652344 20.179688 C 84.53125 20.308594 81.453125 20.910156 78.378906 21.335938 C 76.925781 21.507812 75.429688 21.847656 74.019531 22.277344 C 72.523438 22.703125 71.070312 23.304688 69.617188 23.773438 C 66.925781 24.542969 64.402344 25.65625 62.054688 27.238281 C 59.617188 28.863281 57.820312 31.046875 56.285156 33.484375 C 55.429688 34.851562 54.914062 36.5625 54.488281 38.144531 C 53.503906 41.738281 52.609375 45.332031 51.753906 48.964844 C 51.539062 49.90625 51.96875 51.019531 51.070312 51.832031 C 50.941406 51.960938 50.984375 52.386719 51.070312 52.601562 C 51.539062 53.628906 51.242188 54.570312 51.027344 55.59375 C 50.726562 56.921875 50.472656 58.289062 50.515625 59.617188 C 50.597656 62.265625 50.300781 64.875 49.746094 67.441406 C 49.746094 67.613281 49.660156 67.871094 49.746094 68.042969 C 50.769531 69.839844 49.789062 71.761719 50.042969 73.644531 C 50.171875 74.585938 50.128906 75.570312 49.359375 76.339844 C 49.1875 76.511719 49.230469 76.9375 49.230469 77.238281 C 49.230469 77.75 49.316406 78.265625 49.316406 78.777344 C 49.316406 80.101562 48.933594 81.601562 49.402344 82.710938 C 50.300781 84.980469 49.445312 87.117188 49.617188 89.296875 C 49.617188 89.769531 49.230469 90.28125 49.019531 90.796875 C 49.230469 91.136719 49.660156 91.566406 49.574219 91.863281 C 48.847656 95.199219 50.085938 98.535156 49.402344 101.875 Z M 318.171875 68.425781 C 316.503906 68.726562 315.90625 67.785156 315.136719 66.972656 C 313.8125 65.605469 312.015625 64.75 310.179688 64.960938 C 307.101562 65.347656 303.9375 65.476562 301.074219 66.84375 C 300.09375 67.316406 299.066406 67.742188 298.042969 68.085938 C 295.5625 68.941406 293.253906 70.050781 291.117188 71.71875 C 287.699219 74.285156 285.691406 77.964844 283.042969 81.085938 C 282.871094 81.257812 282.871094 81.601562 282.785156 81.855469 C 282.144531 83.996094 281.460938 86.132812 280.820312 88.230469 C 280.476562 89.425781 280.09375 90.625 279.835938 91.863281 C 279.28125 94.304688 279.492188 96.699219 279.835938 99.136719 C 279.921875 99.605469 279.835938 100.078125 279.835938 100.546875 C 279.75 102.515625 279.578125 104.480469 280.90625 106.148438 C 281.671875 107.132812 282.058594 108.160156 281.460938 109.1875 C 282.1875 110.300781 282.785156 111.28125 283.511719 112.179688 C 283.894531 112.695312 284.496094 113.121094 285.09375 113.378906 C 285.988281 113.804688 287.058594 113.933594 287.914062 114.449219 C 289.578125 115.472656 291.375 115.945312 293.253906 116.285156 C 294.109375 116.457031 295.050781 116.328125 295.863281 116.542969 C 298.167969 117.097656 300.519531 117.441406 302.914062 117.699219 C 307.828125 118.167969 312.402344 117.398438 316.503906 114.617188 C 318 113.59375 319.453125 112.394531 320.734375 111.113281 C 321.71875 110.128906 322.445312 108.84375 323.042969 108.03125 C 323.46875 106.792969 323.769531 105.851562 324.066406 104.910156 C 324.195312 104.523438 324.324219 104.140625 324.410156 103.753906 C 324.625 102.8125 324.792969 101.914062 324.964844 100.976562 C 325.222656 99.476562 326.246094 98.152344 325.863281 96.527344 C 325.820312 96.3125 325.90625 95.929688 326.078125 95.757812 C 327.015625 94.558594 325.777344 92.976562 326.84375 91.820312 C 326.160156 90.582031 327.273438 89.597656 327.230469 88.484375 C 327.1875 87.375 326.503906 86.347656 326.203125 85.234375 C 325.605469 83.097656 325.222656 80.828125 324.410156 78.777344 C 324.066406 77.878906 323.855469 77.195312 324.410156 76.296875 C 323.296875 75.824219 323.554688 73.988281 321.972656 74.15625 C 321.632812 73.046875 321.203125 72.0625 320.136719 71.421875 C 319.195312 70.863281 318.339844 70.136719 317.402344 69.453125 C 317.570312 69.238281 317.742188 69.023438 318.214844 68.425781 Z M 318.171875 68.425781 " fill-opacity="1" fill-rule="nonzero"/></svg>