<svg xmlns="http://www.w3.org/2000/svg" xmlns:xlink="http://www.w3.org/1999/xlink" width="500" zoomAndPan="magnify" viewBox="0 0 375 374.999991" height="500" preserveAspectRatio="xMidYMid meet" version="1.0"><defs><clipPath id="367c95fe08"><path d="M 1.640625 0 L 373.640625 0 L 373.640625 375 L 1.640625 375 Z M 1.640625 0 " clip-rule="nonzero"/></clipPath></defs><g clip-path="url(#367c95fe08)"><path fill="#000000" d="M 316.945312 163.378906 C 315.9375 163.378906 315.496094 163.730469 315.234375 164.519531 C 314.925781 165.394531 314.488281 166.316406 313.960938 167.105469 C 312.734375 168.8125 311.375 170.390625 310.148438 172.054688 C 309.269531 173.28125 308.613281 174.683594 307.78125 175.957031 C 304.886719 180.46875 302.167969 185.113281 299.011719 189.449219 C 297.390625 191.683594 296.378906 194.269531 294.582031 196.328125 C 294.539062 198.429688 292.695312 199.660156 291.996094 201.453125 C 291.207031 203.425781 289.933594 205.179688 288.882812 207.019531 C 288.136719 208.332031 287.480469 209.777344 286.558594 210.960938 C 285.683594 212.101562 284.542969 213.019531 283.445312 213.984375 C 283.09375 214.292969 282.523438 214.292969 282.085938 214.421875 C 281.386719 214.640625 280.683594 214.90625 279.632812 215.300781 C 279.105469 214.773438 278.273438 214.074219 277.527344 213.285156 C 277.308594 213.066406 277.042969 212.628906 277.132812 212.363281 C 277.570312 210.304688 276.167969 209.386719 274.765625 208.421875 C 274.105469 207.9375 273.011719 207.589844 272.878906 206.976562 C 272.617188 205.96875 272.660156 204.695312 273.097656 203.734375 C 274.238281 200.972656 275.640625 198.300781 276.867188 195.582031 C 277.484375 194.269531 277.789062 192.78125 278.492188 191.507812 C 279.9375 188.792969 281.605469 186.164062 283.050781 183.402344 C 284.148438 181.257812 285.289062 179.152344 286.601562 177.09375 C 288.050781 174.859375 289.144531 172.40625 290.679688 170.257812 C 291.777344 168.726562 292.128906 166.578125 294.101562 165.703125 C 294.277344 165.613281 294.363281 165.394531 294.449219 165.175781 C 295.984375 161.496094 298.265625 158.296875 300.675781 155.144531 C 301.464844 154.09375 301.992188 152.867188 302.738281 151.726562 C 303.703125 150.28125 304.710938 148.878906 305.761719 147.476562 C 306.378906 146.6875 306.554688 145.460938 307.824219 145.242188 C 307.867188 145.242188 307.957031 145.152344 308 145.109375 C 308.613281 142.394531 311.023438 140.816406 312.253906 138.496094 C 309.753906 137.003906 307.253906 135.734375 304.84375 134.332031 C 302.429688 132.972656 300.238281 131.265625 297.785156 129.601562 C 298.003906 127.890625 296.335938 127.148438 295.285156 126.09375 C 293.96875 124.738281 292.390625 123.6875 291.074219 122.328125 C 290.59375 121.84375 290.546875 120.96875 290.242188 120.179688 C 288.621094 119.347656 287.261719 118.035156 286.164062 116.457031 C 285.945312 116.148438 285.8125 115.625 285.902344 115.273438 C 286.164062 114.265625 286.164062 113.390625 285.460938 112.511719 C 285.242188 112.207031 285.289062 111.550781 285.460938 111.109375 C 285.855469 109.839844 285.375 108.875 284.410156 108.175781 C 282.21875 106.554688 281.605469 104.320312 281.734375 101.734375 C 281.824219 100.070312 281.429688 98.40625 281.515625 96.742188 C 281.605469 94.460938 281.648438 92.097656 282.347656 89.949219 C 282.742188 88.765625 283.007812 87.628906 283.050781 86.445312 C 283.050781 86.3125 283.050781 86.136719 283.140625 86.050781 C 285.066406 83.507812 284.628906 79.828125 287.171875 77.550781 C 287.261719 75.492188 289.585938 74.746094 289.890625 72.816406 C 289.890625 72.554688 290.152344 72.292969 290.375 72.160156 C 292.300781 70.757812 293.136719 68.347656 295.285156 67.121094 C 295.941406 66.773438 296.335938 65.984375 296.90625 65.5 C 298.792969 63.835938 300.984375 62.652344 303.175781 61.46875 C 303.964844 61.03125 304.667969 60.460938 305.5 60.113281 C 307.386719 59.367188 309.269531 58.796875 311.199219 58.140625 C 312.121094 57.832031 313.085938 57.613281 313.917969 57.175781 C 316.769531 55.6875 319.925781 55.511719 322.996094 54.941406 C 325.230469 54.546875 327.511719 54.417969 329.835938 54.199219 C 329.835938 53.101562 329.792969 52.136719 329.835938 51.175781 C 329.878906 50.515625 330.097656 49.859375 330.230469 49.160156 C 330.625 47.449219 331.195312 45.785156 329.746094 44.25 C 329.398438 43.855469 329.179688 43.023438 329.265625 42.5 C 329.484375 41.578125 329.089844 40.660156 329.265625 39.871094 C 329.835938 37.328125 328.433594 35.226562 328.082031 32.949219 C 327.863281 31.675781 327.644531 30.449219 327.425781 29.179688 C 327.160156 27.339844 326.328125 26.417969 324.574219 25.9375 C 323.257812 25.585938 322.03125 24.84375 320.847656 24.183594 C 319.574219 23.484375 318.390625 22.519531 316.769531 23.527344 C 316.375 23.789062 315.542969 23.527344 314.972656 23.308594 C 313.613281 22.828125 312.339844 22.082031 310.804688 22.609375 C 310.457031 22.738281 310.015625 22.433594 309.578125 22.390625 C 308.832031 22.257812 308.085938 22.039062 307.34375 22.039062 C 305.195312 22.039062 303.046875 22.433594 300.941406 21.773438 C 300.589844 21.644531 300.109375 21.863281 299.710938 21.90625 C 296.863281 22.125 294.011719 22.652344 291.207031 21.601562 C 290.988281 21.511719 290.679688 21.511719 290.417969 21.601562 C 287.609375 22.300781 284.761719 22.300781 281.910156 21.949219 C 280.816406 21.820312 279.675781 22.125 278.578125 22.125 C 277.527344 22.125 276.519531 21.949219 275.507812 21.773438 C 274.675781 21.644531 273.976562 21.644531 273.097656 21.90625 C 271.035156 22.519531 268.84375 22.300781 266.695312 21.863281 C 266.300781 21.773438 265.863281 21.554688 265.554688 21.644531 C 262.617188 22.390625 259.679688 22.34375 256.699219 21.90625 C 256.261719 21.863281 255.777344 22.039062 255.339844 22.125 C 253.804688 22.433594 252.316406 22.78125 250.824219 22.125 C 250.515625 21.996094 250.121094 21.863281 249.816406 21.949219 C 246.042969 22.738281 242.230469 22.34375 238.460938 22.476562 C 236.792969 22.519531 235.082031 22.039062 233.371094 22.652344 C 232.277344 23.046875 231.050781 22.914062 229.863281 22.957031 C 225.832031 23.046875 221.796875 23.089844 217.71875 23.132812 C 217.148438 23.132812 216.578125 23.132812 216.054688 23.089844 C 214.695312 23.003906 213.335938 22.738281 211.976562 23.394531 C 211.449219 23.660156 210.703125 23.570312 210.089844 23.484375 C 206.976562 23.003906 203.90625 23.484375 200.792969 23.617188 C 199.480469 23.703125 198.164062 23.484375 196.890625 23.527344 C 194.128906 23.617188 191.367188 23.746094 188.605469 23.878906 C 188.035156 23.878906 187.464844 23.921875 186.9375 23.746094 C 185.929688 23.308594 185.011719 23.441406 183.914062 23.570312 C 181.675781 23.835938 179.398438 23.660156 177.117188 23.746094 C 174.136719 23.835938 171.15625 23.617188 168.214844 24.011719 C 167.867188 24.054688 167.382812 24.359375 167.253906 24.667969 C 166.113281 27.164062 163.964844 28.785156 161.902344 30.40625 C 161.550781 30.667969 161.203125 30.886719 160.894531 31.195312 C 158.703125 33.253906 156.597656 35.359375 154.359375 37.371094 C 152.386719 39.167969 150.195312 40.746094 148.179688 42.5 C 146.6875 43.8125 145.371094 45.390625 143.839844 46.707031 C 141.863281 48.457031 139.628906 49.949219 137.699219 51.789062 C 135.859375 53.539062 134.058594 55.378906 132.042969 56.78125 C 129.191406 58.753906 127.21875 61.558594 124.589844 63.75 C 122.308594 65.632812 120.378906 68 118.054688 69.882812 C 116.476562 71.152344 115.074219 72.597656 113.671875 74 C 110.207031 77.460938 106.613281 80.703125 103.015625 84.035156 C 100.5625 86.269531 98.0625 88.460938 95.5625 90.695312 C 95.253906 90.957031 95.035156 91.351562 94.730469 91.65625 C 93.898438 92.578125 93.238281 93.671875 91.878906 93.9375 C 91.660156 93.9375 91.398438 94.242188 91.308594 94.460938 C 90.871094 95.863281 89.730469 96.519531 88.679688 97.355469 C 87.582031 98.273438 86.660156 99.414062 85.652344 100.464844 C 85.523438 100.597656 85.390625 100.816406 85.257812 100.945312 C 81.574219 103.488281 78.988281 107.210938 75.523438 109.972656 C 74.164062 111.066406 73.027344 112.511719 71.667969 113.738281 C 68.507812 116.675781 65.441406 119.742188 62.238281 122.679688 C 60.574219 124.210938 58.777344 125.65625 56.890625 126.972656 C 56.101562 127.542969 55.925781 128.066406 56.058594 128.855469 C 56.277344 130.390625 56.144531 131.835938 55.664062 133.367188 C 55.3125 134.464844 55.707031 135.820312 56.058594 137.003906 C 56.40625 138.1875 56.933594 139.28125 55.355469 140.117188 C 57.109375 141.691406 56.625 143.488281 56.363281 145.199219 C 56.1875 146.160156 56.101562 146.996094 56.496094 148.003906 C 56.847656 148.964844 57.023438 150.0625 56.496094 151.332031 C 55.96875 152.515625 56.671875 154.179688 56.714844 155.625 C 56.757812 157.289062 56.714844 158.957031 56.671875 160.621094 C 56.671875 160.882812 56.582031 161.191406 56.671875 161.453125 C 57.195312 163.160156 56.582031 164.871094 56.671875 166.621094 C 56.671875 166.972656 56.539062 167.367188 56.671875 167.675781 C 57.285156 168.855469 57.152344 170.039062 57.023438 171.3125 C 56.890625 172.800781 56.847656 174.289062 57.066406 175.867188 C 57.371094 178.101562 56.625 180.335938 55.398438 182.441406 C 55.398438 182.484375 55.441406 182.746094 55.617188 182.832031 C 56.933594 183.839844 56.933594 185.289062 56.933594 186.734375 C 56.933594 189.144531 56.976562 191.597656 57.023438 194.007812 C 57.023438 194.445312 57.152344 194.925781 57.023438 195.234375 C 56.011719 196.941406 56.320312 198.605469 56.976562 200.359375 C 57.285156 201.191406 57.109375 202.15625 57.109375 203.074219 C 57.066406 207.0625 56.890625 211.007812 57.109375 214.992188 C 57.109375 215.519531 57.066406 216.21875 56.714844 216.570312 C 55.96875 217.402344 56.058594 218.058594 56.582031 218.980469 C 57.503906 220.6875 56.582031 222.484375 56.539062 224.28125 C 56.539062 224.9375 56.363281 225.597656 56.40625 226.253906 C 56.496094 227.347656 56.933594 228.488281 56.800781 229.539062 C 56.582031 231.160156 56.453125 232.695312 56.582031 234.316406 C 56.625 234.882812 56.058594 235.542969 55.75 236.285156 C 56.582031 237.425781 56.933594 238.609375 56.1875 240.230469 C 55.75 241.195312 56.363281 242.640625 56.363281 243.867188 C 56.363281 245.53125 56.496094 247.238281 56.230469 248.859375 C 56.058594 249.914062 56.011719 250.832031 56.1875 251.839844 C 56.363281 252.980469 56.1875 254.207031 56.1875 255.390625 C 56.144531 258.019531 56.496094 260.777344 55.882812 263.320312 C 55.3125 265.816406 56.101562 268.140625 55.882812 270.546875 C 55.574219 273.921875 55.707031 277.339844 55.617188 280.757812 C 55.617188 281.238281 55.617188 281.765625 55.398438 282.203125 C 55.046875 282.902344 54.960938 283.515625 55.136719 284.351562 C 55.3125 285.050781 54.828125 285.882812 54.523438 286.933594 C 55.574219 288.425781 55.222656 290.351562 54.875 292.324219 C 54.742188 293.113281 54.785156 293.945312 54.875 294.777344 C 54.960938 296.003906 55.046875 297.1875 53.734375 297.886719 C 54.523438 299.378906 55.269531 300.824219 54.128906 302.488281 C 53.46875 303.453125 53.46875 304.460938 54.039062 305.46875 C 54.652344 306.605469 54.652344 307.703125 53.953125 308.839844 C 53.515625 309.585938 53.292969 310.375 53.863281 311.207031 C 53.996094 311.382812 54.128906 311.644531 54.082031 311.777344 C 53.074219 314.316406 54.742188 317.167969 53.25 319.707031 C 52.988281 320.1875 52.945312 321.023438 53.164062 321.503906 C 53.734375 322.816406 53.644531 323.957031 52.503906 324.964844 C 53.6875 326.191406 53.996094 327.507812 53.425781 329.082031 C 53.164062 329.785156 53.339844 330.617188 53.339844 331.363281 C 53.339844 334.253906 53.207031 337.144531 52.59375 340.035156 C 52.417969 340.914062 52.503906 341.832031 52.460938 342.753906 C 52.460938 343.191406 52.550781 343.671875 52.375 343.980469 C 50.925781 346.914062 51.933594 350.15625 51.277344 353.179688 C 51.234375 353.445312 51.277344 353.707031 51.277344 354.277344 C 53.820312 354.1875 56.320312 354.011719 58.777344 353.96875 C 60.835938 353.925781 62.941406 353.96875 65 353.96875 C 65.351562 353.96875 65.703125 354.058594 66.011719 353.96875 C 67.238281 353.488281 68.378906 353.179688 69.648438 353.882812 C 69.867188 354.011719 70.21875 353.96875 70.484375 353.882812 C 73.246094 352.960938 76.140625 353.574219 78.945312 353.445312 C 80.875 353.3125 82.980469 353.53125 84.734375 352.085938 C 86.003906 353.488281 87.714844 354.40625 87.539062 356.730469 C 87.496094 357.5625 88.285156 358.21875 89.160156 358.65625 C 91.703125 359.929688 92.144531 360.804688 91.921875 363.785156 C 91.441406 364.132812 90.609375 363.957031 90.476562 365.097656 C 90.34375 366.324219 89.644531 367.59375 88.019531 367.769531 C 87.625 367.769531 87.101562 367.988281 86.925781 368.253906 C 86.003906 369.699219 84.46875 369.699219 83.066406 369.960938 C 80.699219 370.355469 78.289062 370.664062 75.875 370.96875 C 75.523438 371.011719 75.175781 371.058594 74.824219 371.011719 C 72.585938 370.664062 70.394531 371.40625 68.203125 371.539062 C 66.40625 371.671875 64.5625 371.539062 62.851562 372.238281 C 60.617188 371.40625 58.46875 372.195312 56.277344 372.632812 C 54.214844 373.070312 52.023438 373.160156 49.917969 373.378906 C 47.289062 373.683594 44.65625 374.035156 42.027344 374.253906 C 41.28125 374.300781 40.359375 373.730469 39.789062 373.992188 C 37.464844 375 35.1875 373.816406 32.773438 374.300781 C 30.101562 374.824219 27.25 374.472656 24.488281 374.300781 C 23.652344 374.300781 22.863281 373.683594 21.8125 373.246094 C 20.804688 373.90625 19.53125 373.949219 18.042969 373.683594 C 16.023438 373.335938 13.921875 373.335938 11.859375 373.070312 C 10.984375 372.941406 10.148438 372.546875 9.316406 372.238281 C 8.921875 372.109375 8.613281 371.582031 8.265625 371.582031 C 6.378906 371.496094 5.675781 370.355469 5.105469 368.734375 C 4.84375 367.988281 3.921875 367.375 3.179688 366.980469 C 1.820312 366.28125 2.039062 366.324219 1.863281 364.792969 C 1.6875 362.90625 2.828125 362.601562 4.011719 361.8125 C 5.894531 360.585938 7.914062 359.621094 10.0625 359.140625 C 13.175781 358.480469 16.417969 358.261719 19.578125 357.648438 C 21.726562 357.210938 23.960938 357.386719 26.066406 356.554688 C 26.636719 356.335938 27.425781 356.640625 28.082031 356.554688 C 28.742188 356.421875 29.398438 356.117188 30.1875 355.808594 C 30.054688 353.75 29.878906 351.648438 29.75 349.589844 C 29.75 349.324219 29.53125 348.976562 29.617188 348.753906 C 30.496094 346.914062 30.1875 345.164062 29.441406 343.410156 C 29.355469 343.191406 29.355469 342.839844 29.441406 342.578125 C 30.320312 340.210938 29.222656 337.933594 29.136719 335.65625 C 29.046875 333.378906 29.355469 331.054688 29.484375 328.777344 C 29.484375 328.558594 29.75 328.339844 29.660156 328.207031 C 29.003906 326.410156 29.53125 324.789062 30.40625 323.210938 C 30.582031 322.949219 30.582031 322.511719 30.539062 322.203125 C 30.363281 319.882812 30.054688 317.515625 29.96875 315.195312 C 29.96875 313.835938 30.273438 312.433594 30.40625 311.074219 C 30.449219 310.460938 30.40625 309.847656 30.449219 309.191406 C 30.496094 308.402344 30.582031 307.570312 30.625 306.78125 C 30.625 306.300781 30.714844 305.816406 30.757812 305.335938 C 30.84375 304.679688 30.933594 303.976562 30.976562 303.320312 C 31.019531 302.882812 31.0625 302.402344 31.0625 301.960938 C 31.0625 301.570312 30.800781 301.042969 30.933594 300.734375 C 31.984375 298.851562 31.589844 296.835938 31.457031 294.863281 C 31.414062 294.121094 31.632812 293.375 31.722656 292.628906 C 31.765625 292.234375 31.898438 291.796875 31.855469 291.402344 C 31.589844 288.601562 31.679688 285.796875 32.730469 283.121094 C 32.863281 282.730469 32.730469 282.203125 32.597656 281.722656 C 32.074219 279.878906 32.117188 278.171875 33.34375 276.59375 C 32.773438 274.929688 32.554688 273.351562 33.082031 271.511719 C 33.519531 269.933594 33.167969 268.140625 33.257812 266.472656 C 33.300781 265.554688 33.609375 264.632812 33.871094 263.230469 C 33.433594 262.488281 33.386719 261.347656 33.738281 259.945312 C 34.175781 258.0625 33.914062 256.046875 33.914062 254.074219 C 33.914062 252.148438 34.570312 250.480469 35.625 248.421875 C 35.625 247.503906 33.957031 246.671875 34.351562 245.050781 C 34.660156 243.820312 34.746094 242.507812 34.921875 241.414062 C 34.921875 240.140625 34.921875 238.957031 34.921875 237.820312 C 34.964844 235.585938 34.921875 233.351562 35.140625 231.160156 C 35.449219 228.664062 35.097656 226.035156 36.324219 223.625 C 36.632812 223.011719 36.546875 221.914062 36.238281 221.257812 C 35.667969 220.164062 35.757812 219.113281 35.84375 218.015625 C 35.976562 216.65625 36.546875 215.167969 36.152344 213.984375 C 35.625 212.277344 36.28125 210.65625 35.929688 209.035156 C 35.800781 208.507812 35.84375 207.9375 35.886719 207.371094 C 35.976562 205.835938 36.105469 204.347656 36.152344 202.8125 C 36.238281 200.445312 36.371094 198.082031 36.371094 195.714844 C 36.371094 193.523438 36.28125 191.332031 36.371094 189.144531 C 36.414062 187.695312 36.71875 186.25 36.28125 184.804688 C 36.195312 184.5 36.28125 184.105469 36.5 183.796875 C 37.070312 182.878906 37.027344 181.957031 36.808594 180.949219 C 36.675781 180.378906 36.808594 179.722656 36.808594 179.066406 C 36.808594 178.582031 36.894531 178.101562 36.851562 177.621094 C 36.765625 176.042969 36.589844 174.464844 36.5 172.886719 C 36.457031 171.925781 36.5 170.960938 36.457031 169.996094 C 36.457031 169.863281 36.371094 169.691406 36.457031 169.601562 C 37.246094 168.15625 37.113281 166.710938 36.765625 165.132812 C 36.414062 163.6875 36.457031 162.109375 36.589844 160.578125 C 36.765625 158.605469 36.371094 156.632812 36.894531 154.660156 C 37.203125 153.566406 36.851562 152.164062 36.5 150.980469 C 36.019531 149.140625 36.457031 147.519531 37.246094 145.988281 C 35.886719 144.410156 36.238281 142.65625 36.414062 140.902344 C 36.457031 140.378906 36.808594 139.765625 36.632812 139.371094 C 35.886719 137.75 36.152344 136.390625 37.554688 135.207031 C 36.71875 134.027344 37.378906 132.40625 36.019531 131.484375 C 35.84375 131.398438 35.886719 130.957031 35.886719 130.695312 C 35.800781 128.460938 35.757812 126.269531 35.710938 124.035156 C 35.710938 123.816406 35.710938 123.597656 35.710938 123.421875 C 36.414062 121.363281 35.710938 119.304688 35.710938 117.246094 C 35.710938 114.792969 35.886719 112.335938 35.710938 109.929688 C 35.625 108.746094 35.84375 107.738281 36.28125 106.6875 C 36.457031 106.335938 36.765625 106.074219 37.070312 105.679688 C 34.703125 102.875 35.800781 99.5 35.757812 96.300781 C 35.757812 93.71875 35.929688 91.132812 36.105469 88.546875 C 36.152344 87.453125 36.414062 86.355469 36.5 85.261719 C 36.589844 84.164062 36.589844 83.070312 36.632812 81.976562 C 36.632812 80.046875 36.457031 78.074219 36.808594 76.191406 C 37.113281 74.394531 37.464844 72.6875 37.421875 70.847656 C 37.421875 70.144531 37.464844 69.488281 37.511719 68.789062 C 37.511719 68.304688 37.511719 67.78125 37.640625 67.339844 C 38.035156 66.027344 38.34375 62.785156 38.210938 61.46875 C 38.210938 61.339844 38.125 61.164062 38.167969 61.074219 C 39.261719 58.578125 38.472656 55.863281 39.175781 53.363281 C 39.4375 52.355469 39.703125 51.347656 40.226562 50.472656 C 41.015625 49.113281 40.710938 47.757812 40.535156 46.398438 C 40.359375 44.996094 39.921875 43.59375 41.585938 42.71875 C 41.808594 42.585938 41.9375 41.929688 41.851562 41.578125 C 41.367188 39.519531 42.203125 37.636719 42.507812 35.664062 C 42.507812 35.53125 42.550781 35.402344 42.550781 35.269531 C 42.683594 33.515625 43.339844 32.070312 45.09375 31.109375 C 43.648438 29.136719 45.316406 27.644531 45.972656 26.113281 C 46.804688 24.183594 48.296875 22.519531 49.523438 20.765625 C 49.917969 20.199219 50.402344 19.671875 50.75 19.101562 C 51.628906 17.570312 52.855469 16.519531 54.523438 15.949219 C 54.917969 15.816406 55.441406 15.597656 55.53125 15.335938 C 56.058594 13.277344 57.941406 12.96875 59.433594 12.222656 C 60.660156 11.609375 61.933594 11.085938 63.160156 10.425781 C 65.046875 9.417969 67.195312 8.71875 69.429688 9.113281 C 70.21875 9.246094 70.703125 9.027344 71.359375 8.675781 C 72.191406 8.238281 73.15625 8.019531 74.121094 7.796875 C 75.742188 7.40625 77.367188 7.011719 78.988281 6.746094 C 81.355469 6.351562 83.722656 5.609375 86.179688 5.914062 C 86.441406 5.914062 86.75 6.046875 87.011719 5.957031 C 89.90625 4.996094 92.933594 5.300781 95.914062 4.996094 C 97.753906 4.820312 99.640625 4.292969 101.4375 5.300781 C 101.65625 5.433594 101.964844 5.300781 102.226562 5.300781 C 103.324219 5.125 104.375 4.777344 105.472656 4.730469 C 107.882812 4.644531 110.339844 4.601562 112.75 4.6875 C 113.671875 4.6875 114.503906 4.820312 115.335938 4.335938 C 115.730469 4.117188 116.300781 4.117188 116.785156 4.207031 C 118.671875 4.644531 120.511719 4.207031 122.398438 4.207031 C 123.582031 4.207031 124.765625 4.425781 125.90625 4.46875 C 126.386719 4.46875 126.957031 4.382812 127.394531 4.164062 C 128.273438 3.679688 129.0625 3.59375 129.980469 3.988281 C 130.550781 4.25 131.5625 4.425781 131.910156 4.117188 C 132.921875 3.285156 134.015625 3.636719 135.113281 3.59375 C 135.859375 3.59375 136.601562 3.417969 137.347656 3.375 C 137.832031 3.328125 138.3125 3.285156 138.796875 3.285156 C 139.367188 3.285156 139.890625 3.417969 140.460938 3.328125 C 142.214844 3.066406 143.96875 2.890625 145.503906 4.25 C 146.949219 2.714844 148.574219 2.671875 150.414062 3.109375 C 151.292969 3.328125 152.300781 2.980469 153.265625 2.933594 C 155.019531 2.847656 156.730469 2.761719 158.484375 2.714844 C 161.375 2.714844 164.3125 2.890625 167.207031 2.320312 C 168.785156 2.015625 169.621094 2.410156 171.636719 3.550781 C 173.433594 2.101562 175.496094 2.191406 177.730469 2.410156 C 180.320312 2.628906 182.992188 2.191406 185.625 2.191406 C 188.125 2.191406 190.621094 2.191406 193.078125 2.410156 C 193.78125 2.453125 194.394531 2.542969 195.050781 2.191406 C 195.445312 1.972656 195.972656 1.882812 196.453125 1.882812 C 198.03125 1.839844 199.609375 1.796875 201.1875 1.796875 C 202.375 1.796875 203.558594 1.796875 204.742188 1.796875 C 205.925781 1.796875 207.152344 1.796875 208.292969 1.578125 C 209.738281 1.269531 211.054688 1.3125 212.28125 2.367188 C 213.597656 1.359375 215 1.09375 216.625 1.535156 C 217.414062 1.753906 218.378906 1.3125 219.296875 1.269531 C 222.851562 1.09375 226.402344 0.832031 229.953125 0.789062 C 230.960938 0.789062 232.011719 1.402344 233.328125 1.796875 C 234.558594 0.699219 236.355469 0.480469 238.414062 0.65625 C 240.609375 0.832031 242.800781 0.4375 244.992188 0.570312 C 249.902344 0.875 254.8125 0.0859375 259.726562 0.527344 C 262.707031 0.789062 265.730469 0.746094 268.800781 0.480469 C 270.554688 0.351562 272.351562 1.050781 274.457031 1.402344 C 275.683594 0.4375 277.308594 0 279.191406 1.050781 C 279.542969 1.226562 280.113281 1.050781 280.550781 1.050781 C 281.386719 0.921875 282.21875 0.527344 283.007812 0.613281 C 286.472656 0.921875 289.933594 1.09375 293.398438 0.746094 C 294.625 0.613281 295.898438 0.964844 297.125 1.09375 C 298.308594 1.183594 299.449219 1.269531 300.632812 1.3125 C 302.082031 1.359375 303.570312 1.3125 304.972656 1.445312 C 305.765625 1.535156 306.464844 2.101562 307.386719 2.496094 C 308.570312 1.664062 309.929688 1.269531 311.332031 2.628906 C 311.59375 2.890625 312.253906 2.804688 312.691406 2.761719 C 313.875 2.761719 315.058594 2.671875 316.242188 2.671875 C 316.507812 2.671875 316.855469 2.671875 317.03125 2.847656 C 319.355469 4.6875 322.207031 4.777344 324.925781 5.257812 C 325.539062 5.390625 326.238281 5.519531 326.632812 5.914062 C 327.730469 7.011719 329.132812 7.625 330.363281 8.5 C 331.28125 9.15625 332.027344 10.121094 332.859375 10.953125 C 332.992188 11.085938 333.125 11.304688 333.253906 11.433594 C 335.710938 13.757812 338.210938 16.078125 340.664062 18.445312 C 341.628906 19.367188 342.59375 20.242188 343.515625 21.207031 C 343.777344 21.511719 344.128906 21.90625 344.128906 22.257812 C 344.128906 23.308594 344.523438 24.097656 345.355469 24.753906 C 345.621094 24.972656 345.882812 25.585938 345.796875 25.851562 C 345.09375 27.734375 346.367188 29.355469 346.453125 31.0625 C 346.585938 33.429688 346.628906 35.75 346.585938 38.117188 C 346.585938 38.511719 346.101562 38.949219 345.75 39.476562 C 347.550781 41.972656 347.023438 44.777344 346.148438 47.449219 C 345.796875 48.457031 345.3125 49.464844 345.707031 50.339844 C 346.585938 52.269531 345.839844 54.152344 345.75 56.039062 C 345.75 56.78125 345.882812 57.570312 346.277344 58.097656 C 347.636719 59.234375 349.039062 60.332031 350.3125 61.558594 C 350.792969 62.039062 351.144531 62.433594 351.890625 62.304688 C 354.082031 61.953125 355.222656 63.265625 356.144531 65.019531 C 357.195312 67.035156 358.597656 68.789062 360.660156 69.96875 C 362.238281 70.890625 363.640625 71.765625 364.429688 73.695312 C 365.089844 75.316406 366.492188 76.628906 366.449219 78.601562 C 366.449219 78.953125 366.972656 79.390625 367.324219 79.695312 C 369.339844 81.363281 369.5625 83.769531 369.429688 86.007812 C 369.253906 88.765625 368.683594 91.527344 368.640625 94.332031 C 368.640625 95.425781 368.289062 96.566406 367.894531 97.574219 C 366.621094 100.769531 365.878906 104.1875 364.472656 107.386719 C 363.335938 109.929688 361.886719 112.292969 360.617188 114.746094 C 359.386719 117.113281 357.679688 119.4375 355.703125 121.144531 C 354.214844 122.414062 353.074219 123.90625 351.757812 125.261719 C 350.574219 126.488281 348.996094 127.367188 347.679688 128.503906 C 345.488281 130.34375 343.035156 131.703125 340.535156 133.019531 C 339.832031 133.410156 339.21875 134.070312 338.472656 134.375 C 337.378906 134.859375 336.148438 135.164062 334.746094 135.648438 C 334.132812 137.488281 335.492188 138.976562 336.542969 140.511719 C 337.027344 141.167969 337.597656 141.738281 338.121094 142.351562 C 338.738281 143.007812 339.351562 143.664062 339.964844 144.320312 C 340.886719 145.199219 341.453125 146.207031 341.980469 147.386719 C 342.859375 149.273438 343.867188 151.289062 345.925781 152.382812 C 346.761719 152.820312 347.285156 153.390625 347.679688 154.3125 C 348.03125 155.144531 348.777344 155.933594 349.523438 156.457031 C 350.53125 157.160156 351.363281 157.859375 351.933594 159 C 352.328125 159.789062 353.074219 160.402344 353.601562 161.144531 C 354.171875 162.023438 354.695312 162.898438 355.179688 163.820312 C 355.53125 164.5625 355.835938 165.265625 356.714844 165.703125 C 357.195312 165.921875 357.765625 166.535156 357.851562 167.0625 C 358.117188 168.332031 358.730469 169.207031 359.871094 169.910156 C 359.78125 170.347656 359.652344 170.699219 359.5625 171.136719 C 359.738281 171.265625 359.871094 171.398438 360.046875 171.484375 C 362.324219 172.582031 362.71875 173.195312 362.589844 175.605469 C 362.589844 176 362.5 176.4375 362.457031 177.007812 C 365.042969 177.3125 365.746094 179.503906 366.886719 181.257812 C 367.015625 181.433594 366.667969 181.914062 366.796875 182.089844 C 367.148438 182.789062 367.585938 183.492188 368.070312 184.148438 C 369.121094 185.726562 370.394531 187.214844 371.269531 188.921875 C 371.664062 189.710938 371.929688 190.546875 372.5 191.246094 C 373.199219 192.078125 373.59375 193 372.761719 194.09375 C 372.410156 194.574219 372.410156 195.410156 372.367188 196.109375 C 372.324219 196.984375 372.191406 197.773438 371.226562 198.34375 C 369.957031 197.773438 368.550781 197.773438 367.105469 198.167969 C 366.667969 198.300781 366.050781 197.992188 365.613281 197.730469 C 363.949219 196.589844 362.28125 195.410156 360.660156 194.269531 C 359.738281 193.613281 358.992188 192.867188 358.773438 191.640625 C 358.644531 191.027344 358.246094 190.371094 357.765625 189.886719 C 356.054688 188.136719 354.828125 186.074219 353.601562 183.972656 C 353.074219 183.097656 352.242188 182.4375 351.496094 181.695312 C 350.882812 181.039062 350.269531 180.597656 350.574219 179.371094 C 350.839844 178.453125 350.222656 177.402344 349.085938 177.007812 C 348.292969 176.742188 347.636719 176.394531 347.332031 175.429688 C 347.15625 174.859375 346.367188 174.464844 345.882812 174.027344 C 345.269531 173.5 344.480469 173.0625 344.832031 171.96875 C 344.917969 171.617188 344.613281 170.871094 344.347656 170.742188 C 342.726562 170.085938 342.464844 168.375 341.5 167.28125 C 341.324219 167.0625 341.324219 166.710938 341.148438 166.535156 C 339.304688 164.828125 337.464844 163.160156 335.625 161.496094 C 334.265625 162.765625 335.183594 164.433594 335.007812 165.878906 C 334.878906 167.5 335.316406 169.164062 335.273438 170.828125 C 335.183594 173.894531 334.921875 176.917969 334.789062 179.984375 C 334.703125 181.34375 334.703125 182.746094 334.789062 184.148438 C 334.789062 185.023438 334.570312 185.726562 334.042969 186.425781 C 333.300781 187.433594 332.730469 188.660156 334.21875 189.667969 C 334.484375 189.84375 334.570312 190.414062 334.570312 190.808594 C 334.484375 194.269531 334.394531 197.730469 334.21875 201.191406 C 334.042969 204.566406 333.738281 207.984375 333.605469 211.355469 C 333.519531 214.027344 332.859375 216.65625 333.210938 219.332031 C 333.210938 219.460938 333.210938 219.636719 333.210938 219.769531 C 332.117188 223.273438 332.730469 226.910156 332.464844 230.503906 C 332.335938 232.300781 332.160156 234.09375 331.984375 235.890625 C 331.765625 238.566406 331.457031 241.28125 331.328125 243.953125 C 331.238281 245.574219 331.5 247.195312 331.457031 248.816406 C 331.371094 250.304688 331.019531 251.839844 330.84375 253.328125 C 330.757812 254.074219 330.757812 254.863281 330.710938 255.609375 C 330.625 256.746094 330.976562 258.0625 329.398438 258.542969 C 329.222656 258.585938 329.132812 259.027344 329.046875 259.246094 C 327.820312 262.09375 323.300781 262.75 321.199219 260.253906 C 321.460938 259.769531 321.722656 259.289062 321.988281 258.804688 C 320.1875 256.964844 318.171875 255.785156 315.980469 254.820312 C 314.925781 254.335938 314.578125 253.546875 314.488281 252.496094 C 314.269531 250.085938 313.960938 247.632812 313.832031 245.222656 C 313.742188 243.382812 313.832031 241.5 313.832031 239.660156 C 313.789062 236.855469 313.523438 234.050781 313.65625 231.246094 C 313.789062 228.488281 313.042969 225.726562 313.789062 222.96875 C 314.050781 221.960938 313.789062 220.820312 313.789062 219.726562 C 313.742188 217.316406 313.613281 214.863281 313.566406 212.453125 C 313.566406 209.648438 313.394531 206.84375 313.742188 204.128906 C 314.050781 201.761719 313.875 199.4375 314.007812 197.074219 C 314.007812 196.460938 314.226562 195.847656 314.402344 195.234375 C 314.796875 194.007812 314.925781 192.78125 314.53125 191.550781 C 314.445312 191.289062 314.402344 190.984375 314.445312 190.71875 C 315.320312 186.207031 315.058594 181.652344 315.410156 177.136719 C 315.671875 174.027344 315.761719 170.917969 315.9375 167.761719 C 315.9375 167.28125 316.15625 166.84375 316.332031 166.359375 C 316.636719 165.484375 316.988281 164.605469 317.382812 163.554688 Z M 55.574219 108.480469 C 57.503906 106.90625 59.082031 105.632812 60.703125 104.320312 C 60.792969 104.230469 60.96875 104.144531 60.96875 104.011719 C 61.144531 102.261719 62.765625 101.605469 63.730469 100.507812 C 64.871094 99.238281 66.273438 98.1875 67.457031 96.914062 C 68.113281 96.214844 68.507812 95.121094 69.253906 94.636719 C 71.050781 93.453125 72.410156 91.878906 73.769531 90.210938 C 75.480469 88.242188 77.628906 86.664062 79.339844 84.605469 C 80.917969 82.71875 83.023438 81.273438 84.820312 79.609375 C 85.785156 78.6875 86.617188 77.636719 87.539062 76.71875 C 90.476562 73.78125 93.894531 71.328125 96.746094 68.261719 C 97.316406 67.605469 98.457031 67.429688 98.894531 66.726562 C 99.597656 65.589844 100.648438 65.195312 101.875 64.976562 C 101.921875 63.484375 102.972656 62.695312 103.980469 61.953125 C 105.429688 60.8125 107.007812 59.761719 108.410156 58.535156 C 110.691406 56.519531 112.839844 54.328125 115.03125 52.269531 C 115.820312 51.523438 116.785156 50.910156 117.574219 50.167969 C 119.109375 48.675781 121.214844 47.84375 122.398438 45.960938 C 122.570312 45.699219 123.011719 45.699219 123.316406 45.523438 C 123.625 45.347656 123.886719 45.128906 124.105469 44.910156 C 125.335938 43.8125 126.519531 42.675781 127.746094 41.578125 C 130.683594 39.125 133.664062 36.671875 136.648438 34.261719 C 138.796875 32.507812 141.03125 30.84375 143.179688 29.09375 C 145.066406 27.515625 146.863281 25.851562 148.96875 23.921875 C 147.738281 23.921875 146.90625 23.921875 146.117188 23.921875 C 145.242188 23.921875 144.363281 23.921875 143.441406 23.964844 C 143.09375 23.964844 142.785156 24.011719 142.433594 24.054688 C 140.417969 24.359375 138.355469 25.191406 136.296875 24.054688 C 136.078125 23.921875 135.59375 24.054688 135.332031 24.230469 C 133.972656 24.886719 132.613281 24.796875 131.210938 24.402344 C 129.761719 24.054688 128.402344 24.054688 126.914062 24.402344 C 125.117188 24.84375 123.273438 25.367188 121.34375 24.710938 C 120.949219 24.578125 120.378906 24.710938 119.898438 24.796875 C 118.363281 25.238281 116.871094 25.191406 115.382812 24.667969 C 114.328125 24.316406 113.234375 24.054688 112.09375 24.535156 C 109.988281 25.367188 107.925781 25.324219 105.777344 24.535156 C 104.199219 23.964844 102.402344 23.308594 100.957031 25.0625 C 100.78125 25.28125 100.34375 25.5 100.035156 25.457031 C 97.449219 25.238281 94.730469 26.417969 92.40625 24.796875 C 91.660156 25.191406 91.046875 25.761719 90.433594 25.804688 C 88.066406 26.070312 85.695312 26.199219 83.375 26.375 C 81.792969 26.464844 80.171875 26.375 78.636719 26.726562 C 74.734375 27.644531 70.832031 28.742188 66.972656 29.925781 C 65.746094 30.320312 64.695312 31.195312 64.082031 32.507812 C 63.335938 34.042969 62.0625 35.3125 61.886719 37.152344 C 61.84375 37.722656 61.097656 38.25 61.144531 38.773438 C 61.273438 40.222656 60.617188 41.402344 59.960938 42.5 C 59.300781 43.550781 59.125 44.425781 59.300781 45.609375 C 59.566406 47.320312 59.214844 49.027344 57.898438 50.121094 C 58.074219 50.78125 58.425781 51.394531 58.335938 51.960938 C 58.03125 54.328125 57.589844 56.652344 57.242188 59.015625 C 57.195312 59.367188 56.976562 59.71875 57.066406 60.023438 C 57.589844 62.082031 57.019531 63.96875 56.40625 65.894531 C 56.1875 66.554688 56.230469 67.253906 56.230469 67.953125 C 56.230469 69.3125 56.496094 70.714844 56.320312 72.074219 C 56.1875 72.949219 55.925781 73.78125 56.1875 74.703125 C 56.363281 75.359375 56.1875 76.058594 56.101562 76.761719 C 56.058594 77.332031 55.835938 77.855469 55.792969 78.382812 C 55.707031 80.527344 55.617188 82.675781 55.53125 84.867188 C 55.441406 86.925781 55.265625 88.984375 55.265625 91.042969 C 55.265625 93.105469 55.441406 95.164062 55.488281 97.222656 C 55.488281 98.84375 55.574219 100.464844 55.398438 102.042969 C 55.265625 103.53125 54.917969 105.019531 55.003906 106.511719 C 55.003906 107.167969 55.222656 107.78125 55.398438 108.480469 Z M 301.421875 112.644531 C 301.949219 113.125 302.824219 113.652344 303.394531 114.398438 C 304.449219 115.800781 304.972656 117.550781 305.808594 119.085938 C 306.773438 120.882812 307.78125 122.414062 309.492188 123.378906 C 311.15625 124.34375 312.515625 126.140625 314.882812 125.4375 C 315.101562 125.351562 315.453125 125.4375 315.714844 125.570312 C 316.902344 126.269531 318.171875 126.007812 319.445312 126.050781 C 321.460938 126.140625 323.476562 126.183594 325.40625 125.65625 C 327.554688 125.085938 329.878906 125.175781 331.808594 123.859375 C 333.695312 122.546875 335.667969 121.363281 337.550781 120.003906 C 338.691406 119.171875 339.394531 117.726562 340.839844 117.203125 C 341.015625 117.15625 341.058594 116.851562 341.191406 116.675781 C 343.207031 113.871094 344.875 110.847656 346.453125 107.78125 C 347.726562 105.328125 347.898438 102.742188 348.46875 100.203125 C 348.910156 98.363281 349.214844 96.390625 349.347656 94.417969 C 349.480469 91.878906 349.785156 89.335938 349.171875 86.839844 C 348.6875 84.824219 347.8125 82.894531 347.332031 80.878906 C 346.933594 79.214844 346.101562 78.25 344.347656 77.855469 C 342.636719 77.460938 340.929688 76.585938 340.007812 75.050781 C 339 73.386719 338.167969 71.722656 336.191406 71.023438 C 335.972656 70.933594 335.886719 70.582031 335.710938 70.363281 C 335.492188 70.101562 335.183594 69.664062 335.007812 69.707031 C 333.738281 70.015625 332.949219 69.269531 332.117188 68.480469 C 331.894531 68.261719 331.457031 68.175781 331.152344 68.261719 C 329.921875 68.480469 328.738281 68.832031 327.511719 69.050781 C 324.792969 69.574219 322.425781 70.933594 319.925781 71.941406 C 315.148438 73.914062 310.851562 76.410156 307.691406 80.660156 C 307.121094 81.449219 306.332031 82.105469 305.894531 82.984375 C 304.886719 84.953125 303.964844 87.015625 303.089844 89.027344 C 302.695312 89.90625 302.253906 90.824219 302.082031 91.746094 C 301.773438 93.453125 301.597656 95.207031 301.464844 96.914062 C 301.335938 98.449219 301.203125 99.984375 301.292969 101.515625 C 301.378906 103.617188 302.035156 105.765625 301.160156 107.867188 C 301.070312 108.042969 301.160156 108.261719 301.160156 108.480469 C 301.246094 109.796875 301.335938 111.066406 301.421875 112.558594 Z M 301.421875 112.644531 " fill-opacity="1" fill-rule="nonzero"/></g></svg>