<svg xmlns="http://www.w3.org/2000/svg" xmlns:xlink="http://www.w3.org/1999/xlink" width="500" zoomAndPan="magnify" viewBox="0 0 375 374.999991" height="500" preserveAspectRatio="xMidYMid meet" version="1.0"><defs><clipPath id="6f567514ee"><path d="M 0 2.578125 L 375 2.578125 L 375 372.328125 L 0 372.328125 Z M 0 2.578125 " clip-rule="nonzero"/></clipPath></defs><g clip-path="url(#6f567514ee)"><path fill="#000000" d="M 12.265625 372.164062 C 10.882812 371.6875 9.414062 371.257812 8.074219 370.652344 C 6.824219 370.136719 5.699219 369.226562 4.449219 368.839844 C 3.023438 368.40625 1.46875 368.453125 0 367.371094 C 0.0859375 364.738281 0.691406 362.320312 3.238281 360.851562 C 6.21875 359.125 9.285156 357.527344 12.910156 357.660156 C 13.429688 357.660156 14.121094 357.660156 14.464844 357.3125 C 16.238281 355.628906 18.570312 355.757812 20.683594 355.457031 C 25.609375 354.808594 30.445312 353.601562 35.453125 353.644531 C 36.359375 353.644531 37.265625 353.167969 38.171875 352.910156 C 37.65625 350.75 37.179688 348.765625 36.707031 346.777344 C 36.574219 346.261719 36.359375 345.742188 36.316406 345.183594 C 35.886719 339.828125 35.238281 334.476562 35.066406 329.121094 C 34.804688 321.003906 34.804688 312.933594 34.761719 304.816406 C 34.761719 299.289062 34.761719 293.808594 34.847656 288.28125 C 34.847656 285.949219 35.238281 283.617188 35.28125 281.289062 C 35.367188 278.265625 35.28125 275.242188 35.367188 272.222656 C 35.582031 262.03125 35.453125 251.84375 35.625 241.65625 C 35.710938 236.863281 35.929688 232.070312 36.015625 227.234375 C 36.101562 221.882812 36.144531 216.484375 36.144531 211.132812 C 36.144531 202.457031 36.015625 193.820312 36.058594 185.144531 C 36.058594 179.230469 36.402344 173.3125 36.402344 167.398438 C 36.402344 165.070312 36.015625 162.78125 36.058594 160.449219 C 36.230469 150.5625 36.015625 140.675781 36.316406 130.789062 C 36.445312 126.6875 36.058594 122.585938 36.273438 118.484375 C 36.488281 114.515625 36.359375 110.5 36.574219 106.527344 C 36.921875 99.359375 37.394531 92.238281 37.828125 85.113281 C 38 82.09375 38.171875 79.070312 38.519531 76.046875 C 39.253906 70.175781 40.246094 64.347656 40.980469 58.476562 C 41.457031 54.632812 42.449219 50.921875 43.398438 47.210938 C 44.996094 41.078125 46.507812 34.863281 50.222656 29.636719 C 52.898438 25.882812 55.621094 22.167969 59.808594 19.578125 C 64.773438 16.46875 69.914062 13.964844 75.441406 12.195312 C 76.5625 11.808594 77.859375 11.980469 79.109375 11.808594 C 80.535156 11.636719 82.21875 12.109375 83.171875 10.425781 C 83.300781 10.210938 83.601562 10.039062 83.859375 10.039062 C 86.625 9.953125 89.128906 8.699219 91.9375 8.613281 C 95.304688 8.527344 98.714844 8.570312 102.042969 7.363281 C 103.550781 6.84375 105.28125 6.84375 106.921875 6.800781 C 109.125 6.714844 111.324219 6.800781 113.527344 6.800781 C 114.089844 6.800781 114.695312 6.929688 115.167969 6.757812 C 119.960938 5.03125 124.929688 5.722656 129.851562 5.765625 C 131.058594 5.765625 132.269531 6.152344 133.910156 6.410156 C 135.421875 5.417969 137.449219 4.554688 139.695312 5.808594 C 139.914062 5.9375 140.214844 5.980469 140.515625 5.980469 C 142.71875 5.851562 144.878906 5.460938 147.082031 6.109375 C 152.996094 4.726562 159.042969 5.332031 165.042969 4.988281 C 167.246094 4.859375 169.449219 5.117188 171.652344 5.117188 C 173.035156 5.117188 174.457031 5.246094 175.710938 4.8125 C 177.222656 4.296875 178.648438 4.296875 180.160156 4.382812 C 183.3125 4.46875 186.421875 5.074219 189.574219 4.296875 C 190.175781 4.125 190.910156 4.382812 191.601562 4.425781 C 192.25 4.46875 192.941406 4.683594 193.589844 4.554688 C 196.523438 3.863281 199.460938 3.390625 202.527344 3.90625 C 203.433594 4.039062 204.425781 3.734375 205.421875 3.734375 C 209.523438 3.605469 213.667969 3.5625 217.769531 3.347656 C 219.457031 3.261719 221.054688 3.347656 222.566406 4.167969 C 223.082031 4.46875 223.945312 4.46875 224.507812 4.253906 C 228.046875 2.957031 231.761719 3 235.433594 2.871094 C 237.59375 2.785156 239.75 3.21875 241.953125 3.347656 C 242.472656 3.347656 243.03125 3.128906 243.550781 3.085938 C 244.328125 3.042969 245.191406 2.871094 245.925781 3.042969 C 249.292969 3.863281 252.707031 3.820312 256.117188 3.476562 C 258.96875 3.171875 261.859375 3.042969 264.753906 3.261719 C 267.042969 3.433594 269.460938 2.742188 271.664062 3.992188 C 272.007812 4.210938 272.699219 3.691406 273.21875 3.734375 C 275.507812 3.820312 277.882812 3.128906 280.128906 4.339844 C 280.644531 4.597656 281.421875 4.339844 282.113281 4.339844 C 282.804688 4.296875 283.539062 3.949219 284.144531 4.125 C 287.769531 5.289062 291.484375 4.769531 295.199219 4.902344 C 295.757812 4.902344 296.320312 4.945312 296.839844 5.117188 C 299.429688 6.023438 302.105469 6.496094 304.828125 6.542969 C 305.605469 6.542969 306.46875 6.800781 307.203125 7.144531 C 310.007812 8.3125 312.816406 9.261719 315.839844 9.605469 C 316.359375 9.648438 317.089844 9.734375 317.394531 10.082031 C 319.035156 11.851562 321.238281 11.9375 323.394531 12.328125 C 324.519531 12.542969 325.597656 13.40625 326.59375 14.140625 C 328.921875 15.867188 331.34375 17.464844 334.148438 18.328125 C 334.539062 18.457031 334.96875 18.585938 335.226562 18.886719 C 336.609375 20.398438 338.035156 21.910156 339.332031 23.507812 C 342.355469 27.175781 343.390625 31.582031 343.519531 36.15625 C 343.648438 40.429688 344.082031 44.75 343.519531 48.9375 C 343.042969 52.390625 343.476562 55.800781 342.914062 59.039062 C 346.414062 61.195312 349.652344 63.226562 352.933594 65.167969 C 353.753906 65.644531 354.703125 65.945312 355.566406 66.292969 C 358.160156 67.414062 360.402344 68.925781 361.742188 71.515625 C 362 71.988281 362.261719 72.550781 362.648438 72.894531 C 365.285156 75.140625 365.84375 78.207031 366.234375 81.402344 C 366.363281 82.351562 366.492188 83.300781 366.796875 84.207031 C 367.960938 87.660156 368.304688 91.113281 368.003906 94.742188 C 367.703125 99.015625 367.355469 103.289062 366.234375 107.390625 C 365.542969 109.894531 364.59375 112.355469 363.6875 114.816406 C 361.398438 121.078125 358.070312 126.773438 353.882812 131.914062 C 350.386719 136.230469 345.851562 139.425781 340.625 141.453125 C 339.113281 142.058594 337.601562 142.53125 335.789062 143.179688 C 336.914062 144.519531 337.90625 145.597656 338.769531 146.808594 C 339.675781 148.015625 340.324219 149.398438 341.230469 150.605469 C 341.707031 151.253906 342.484375 151.683594 343.085938 152.246094 C 345.417969 154.535156 347.75 156.824219 349.695312 159.457031 C 351.421875 161.746094 353.539062 163.773438 355.480469 165.933594 C 357.511719 168.175781 359.625 170.335938 361.65625 172.582031 C 362.605469 173.617188 363.339844 174.652344 363.425781 176.207031 C 363.46875 177.027344 364.246094 177.933594 364.851562 178.582031 C 365.714844 179.488281 366.796875 180.136719 367.660156 181 C 368.21875 181.558594 368.996094 182.25 369.039062 182.941406 C 369.128906 184.882812 370.207031 186.179688 371.371094 187.5625 C 372.710938 189.113281 373.011719 191.230469 374.222656 192.914062 C 374.785156 193.691406 374.480469 195.074219 374.65625 196.152344 C 375 198.355469 374.222656 200.210938 372.710938 201.765625 C 372.148438 202.367188 371.589844 202.972656 371.070312 203.535156 C 369.257812 204.007812 367.703125 203.707031 366.492188 202.324219 C 365.152344 200.816406 363.339844 200.125 361.441406 199.648438 C 359.410156 199.132812 357.984375 198.09375 357.46875 195.9375 C 356.820312 193.304688 354.917969 191.402344 353.105469 189.589844 C 351.421875 187.863281 350.34375 185.921875 350.125 183.375 C 345.980469 180.738281 342.957031 176.984375 340.152344 172.839844 C 338.292969 170.03125 336.050781 167.441406 333.890625 164.808594 C 333.285156 164.074219 332.464844 163.472656 331.429688 163.902344 C 331.34375 164.03125 331.167969 164.203125 331.210938 164.292969 C 332.59375 167.917969 331.773438 171.628906 331.6875 175.300781 C 331.558594 180.265625 331.125 185.1875 330.867188 190.152344 C 330.476562 196.886719 330.304688 203.621094 329.65625 210.355469 C 329.140625 215.710938 329.054688 221.0625 328.535156 226.414062 C 328.234375 229.566406 328.449219 232.761719 327.414062 235.828125 C 327.28125 236.214844 327.28125 236.648438 327.28125 237.035156 C 327.5 242.433594 326.289062 247.742188 326.074219 253.054688 C 325.945312 256.636719 325.296875 260.132812 325.210938 263.714844 C 325.167969 267.039062 323.484375 269.71875 320.632812 271.53125 C 320.289062 271.746094 319.855469 271.703125 319.292969 271.832031 C 318.601562 271.269531 317.78125 270.753906 317.089844 270.105469 C 315.753906 268.808594 314.328125 268.035156 312.339844 268.121094 C 310.832031 268.207031 310.398438 267.472656 310.3125 265.703125 C 310.3125 265.441406 310.527344 265.054688 310.441406 264.925781 C 308.800781 262.980469 309.792969 260.695312 309.664062 258.578125 C 309.535156 256.550781 309.835938 254.476562 309.921875 252.40625 C 309.921875 251.886719 310.007812 251.324219 310.007812 250.808594 C 310.007812 247.355469 309.792969 243.898438 309.878906 240.488281 C 310.097656 232.546875 310.269531 224.558594 310.785156 216.617188 C 311.261719 209.0625 312.039062 201.546875 312.6875 193.992188 C 313.160156 188.25 313.636719 182.511719 314.15625 176.769531 C 314.5 172.667969 314.847656 168.523438 315.191406 164.421875 C 315.539062 160.578125 315.839844 156.734375 316.183594 152.894531 C 316.359375 150.996094 316.660156 149.09375 316.832031 147.152344 C 316.917969 146.117188 316.832031 145.035156 316.832031 143.828125 C 314.585938 143.222656 312.386719 142.878906 310.398438 142.058594 C 308.367188 141.238281 306.554688 139.941406 304.613281 138.90625 C 302.0625 137.566406 299.386719 136.402344 297.011719 134.847656 C 295.328125 133.726562 293.945312 132.085938 292.476562 130.660156 C 291.570312 129.796875 290.664062 129.019531 289.84375 128.070312 C 289.238281 127.335938 288.765625 126.515625 288.289062 125.652344 C 288.117188 125.308594 288.203125 124.660156 287.941406 124.488281 C 285.136719 122.542969 285.523438 119.132812 284.273438 116.5 C 283.539062 114.945312 282.414062 113.5625 282.113281 111.707031 C 281.507812 108.167969 281.25 101.734375 281.683594 98.238281 C 282.15625 94.4375 283.0625 90.726562 284.058594 87.011719 C 285.308594 82.523438 287.296875 78.550781 290.316406 75.054688 C 294.292969 70.4375 298.824219 66.550781 304.265625 63.65625 C 308.886719 61.195312 313.808594 60.203125 318.90625 59.902344 C 320.847656 59.773438 322.75 59.6875 324.863281 59.597656 C 325.039062 58.777344 325.339844 58.003906 325.339844 57.226562 C 325.46875 52.261719 325.816406 47.296875 325.597656 42.375 C 325.46875 39.222656 324.5625 36.15625 323.527344 33.136719 C 322.964844 31.539062 322.664062 29.898438 321.238281 28.859375 C 320.15625 28.039062 318.992188 27.261719 317.78125 26.703125 C 316.53125 26.097656 315.191406 25.796875 313.851562 25.363281 C 313.207031 25.148438 312.386719 24.804688 311.867188 25.019531 C 309.792969 25.839844 308.066406 25.019531 306.46875 23.9375 C 305.433594 23.25 304.4375 23.25 303.316406 23.464844 C 300.378906 24.027344 297.574219 23.808594 294.808594 22.6875 C 293.773438 22.253906 292.695312 22.210938 291.570312 22.472656 C 290.492188 22.6875 289.324219 22.816406 288.289062 22.601562 C 284.273438 21.695312 280.171875 22.6875 276.109375 22.039062 C 273.867188 21.695312 271.492188 22.210938 269.160156 22.253906 C 268.207031 22.253906 267.171875 22.34375 266.308594 21.996094 C 264.925781 21.480469 263.71875 21.347656 262.421875 22.167969 C 262.121094 22.386719 261.558594 22.429688 261.214844 22.300781 C 258.792969 21.304688 256.332031 22.125 253.871094 21.867188 C 253.613281 21.867188 253.3125 21.738281 253.050781 21.824219 C 248.863281 22.988281 244.542969 22.210938 240.3125 22.515625 C 237.765625 22.6875 235.042969 22.730469 232.582031 22.125 C 230.078125 21.523438 227.832031 21.910156 225.414062 22.386719 C 223.558594 22.773438 221.613281 22.472656 219.714844 22.601562 C 214.921875 22.945312 210.128906 22.558594 205.378906 23.25 C 204.988281 23.292969 204.558594 23.292969 204.125 23.292969 C 200.972656 23.207031 197.820312 22.6875 194.753906 23.59375 C 192.726562 23.074219 190.652344 23.507812 188.578125 23.507812 C 186.9375 23.507812 185.339844 23.507812 183.699219 23.9375 C 182.792969 24.199219 181.714844 24.199219 180.851562 23.894531 C 178.90625 23.164062 177.050781 23.636719 175.148438 23.808594 C 171.347656 24.113281 167.550781 24.285156 163.1875 24.5 C 163.1875 24.5 162.84375 24.933594 162.410156 25.148438 C 158.136719 27.523438 155.070312 31.320312 151.746094 34.730469 C 147.597656 39.007812 143.109375 42.804688 138.574219 46.648438 C 131.75 52.433594 125.058594 58.390625 118.492188 64.433594 C 115.039062 67.628906 111.367188 70.566406 108.171875 74.019531 C 105.195312 77.257812 101.824219 80.105469 99.019531 83.472656 C 96.644531 86.324219 93.835938 88.785156 91.203125 91.375 C 87.660156 94.828125 84.164062 98.324219 80.578125 101.734375 C 73.453125 108.597656 66.804688 116.023438 58.945312 122.113281 C 57.347656 123.320312 56.828125 124.832031 56.871094 126.773438 C 57 132.386719 57 138.042969 57.085938 143.65625 C 57.175781 147.367188 57.476562 151.082031 57.5625 154.792969 C 57.734375 161.789062 57.476562 168.824219 57.996094 175.816406 C 58.296875 180.09375 58.167969 184.324219 58.46875 188.554688 C 58.640625 191.015625 58.46875 193.519531 58.554688 195.980469 C 58.597656 199.691406 58.730469 203.40625 58.773438 207.117188 C 58.859375 212.859375 58.902344 218.601562 58.988281 224.34375 C 59.074219 229.265625 59.246094 234.230469 59.332031 239.152344 C 59.417969 243.988281 59.460938 248.820312 59.417969 253.65625 C 59.417969 266.738281 59.332031 279.820312 59.246094 292.945312 C 59.246094 295.40625 58.988281 297.863281 58.859375 300.324219 C 58.859375 300.886719 58.816406 301.40625 58.859375 301.964844 C 58.988281 304.558594 59.417969 307.191406 59.160156 309.78125 C 58.859375 312.800781 59.332031 315.738281 59.332031 318.675781 C 59.332031 321.136719 58.988281 323.640625 59.03125 326.097656 C 59.074219 329.121094 58.167969 332.015625 58.46875 335.078125 C 58.730469 337.929688 58.125 340.820312 57.863281 343.714844 C 57.777344 344.664062 57.476562 345.613281 57.347656 346.5625 C 57.175781 348.03125 57.042969 349.5 56.914062 351.226562 C 58.945312 351.613281 60.628906 351.484375 62.355469 351.140625 C 63.695312 350.878906 65.078125 350.492188 66.371094 350.578125 C 70.949219 350.878906 75.484375 350.492188 79.976562 349.84375 C 82.480469 349.5 84.636719 349.757812 86.28125 351.828125 C 87.445312 353.253906 89.128906 353.425781 90.726562 353.6875 C 94.828125 354.378906 95.953125 356.320312 95.046875 360.292969 C 94.398438 363.226562 92.757812 364.867188 89.90625 365.472656 C 89.085938 365.644531 88.222656 365.816406 87.574219 366.25 C 86.191406 367.15625 84.636719 367.070312 83.171875 366.984375 C 81.574219 366.855469 79.929688 365.945312 78.59375 367.542969 C 75.871094 366.679688 73.671875 368.882812 71.078125 368.839844 C 68.445312 368.796875 65.855469 368.839844 63.21875 368.925781 C 62.441406 368.925781 61.449219 368.925781 60.886719 369.316406 C 59.460938 370.394531 57.820312 370.566406 56.179688 370.738281 C 53.460938 371 50.695312 371.042969 47.933594 371.34375 C 46.765625 371.472656 45.386719 370.824219 44.476562 372.078125 L 38.691406 372.078125 C 37.886719 371.445312 37.050781 371.445312 36.1875 372.078125 L 32.042969 372.078125 C 30.917969 371.042969 29.839844 370.957031 28.714844 372.078125 L 27.894531 372.078125 C 26.253906 371.171875 24.570312 371 22.929688 372.078125 L 19.605469 372.078125 C 18.539062 371.300781 17.429688 371.300781 16.28125 372.078125 L 12.132812 372.078125 Z M 142.589844 25.277344 C 141.078125 24.070312 139.78125 23.464844 138.402344 23.808594 C 134.082031 24.804688 129.589844 23.464844 125.273438 24.757812 C 124.796875 24.890625 124.152344 24.804688 123.675781 24.628906 C 120.308594 23.421875 116.808594 24.542969 113.398438 24.199219 C 113.007812 24.199219 112.492188 24.285156 112.230469 24.542969 C 110.894531 26.011719 109.078125 25.625 107.570312 25.40625 C 105.625 25.148438 103.855469 25.320312 101.953125 25.625 C 96.558594 26.53125 91.03125 26.875 85.675781 28.128906 C 85.027344 28.257812 84.207031 28.257812 83.730469 28.644531 C 82.394531 29.769531 80.753906 30.027344 79.199219 30.5 C 74.964844 31.796875 70.90625 33.480469 68.097656 37.191406 C 66.847656 38.832031 65.421875 40.429688 64.644531 42.289062 C 62.917969 46.605469 61.363281 51.050781 60.800781 55.714844 C 60.628906 57.226562 60.457031 58.734375 60.152344 60.203125 C 58.683594 67.242188 58.167969 74.363281 57.734375 81.53125 C 57.347656 87.832031 57.175781 94.179688 57.042969 100.527344 C 57.042969 102.511719 56.785156 104.585938 57.605469 106.785156 C 58.339844 106.355469 58.816406 106.140625 59.203125 105.792969 C 61.148438 103.851562 63.046875 101.863281 64.945312 99.878906 C 68.054688 96.597656 71.207031 93.316406 74.230469 89.90625 C 77.339844 86.410156 80.839844 83.386719 84.078125 80.019531 C 89.820312 73.976562 95.433594 67.714844 101.695312 62.191406 C 102.085938 61.84375 102.300781 61.28125 102.6875 60.894531 C 105.882812 57.871094 109.078125 54.851562 112.277344 51.828125 C 112.964844 51.179688 113.699219 50.578125 114.390625 49.929688 C 118.839844 45.828125 123.242188 41.683594 127.691406 37.625 C 129.636719 35.855469 131.707031 34.300781 133.738281 32.660156 C 135.851562 30.933594 137.96875 29.25 140.085938 27.523438 C 140.820312 26.917969 141.511719 26.269531 142.503906 25.363281 Z M 329.183594 134.027344 C 330.175781 133.335938 331.039062 132.214844 331.902344 132.171875 C 334.105469 132.085938 335.273438 130.53125 336.914062 129.582031 C 341.144531 127.121094 343.175781 123.191406 344.597656 118.789062 C 345.636719 115.679688 345.550781 112.226562 347.148438 109.289062 C 347.277344 109.074219 347.234375 108.773438 347.277344 108.46875 C 347.449219 102.859375 348.097656 97.203125 346.886719 91.589844 C 346.5 89.863281 346.800781 87.921875 346.285156 86.28125 C 345.679688 84.507812 344.425781 82.957031 343.519531 81.316406 C 343.261719 80.839844 343.21875 80.277344 343 79.761719 C 342.308594 77.816406 340.886719 76.910156 338.855469 77.085938 C 337.515625 77.171875 336.136719 77.472656 334.40625 77.730469 C 333.371094 76.824219 332.335938 75.445312 330.910156 74.710938 C 329.398438 73.890625 327.5 73.761719 325.902344 73.070312 C 325.082031 72.722656 324.390625 72.722656 323.570312 72.765625 C 321.152344 72.984375 319.164062 74.363281 317.003906 75.226562 C 312.988281 76.824219 309.621094 79.414062 306.855469 82.78125 C 304.957031 85.070312 303.792969 87.660156 302.710938 90.339844 C 302.019531 92.109375 301.070312 93.878906 300.855469 95.734375 C 300.421875 99.402344 299.257812 102.988281 299.730469 106.742188 C 298.824219 108.816406 300.464844 110.757812 300.035156 112.832031 C 299.777344 114.039062 300.207031 115.160156 300.941406 115.894531 C 302.882812 117.796875 303.488281 120.429688 304.613281 122.71875 C 307.03125 127.636719 310.65625 131.523438 315.667969 132.949219 C 317.738281 133.554688 319.984375 133.511719 322.144531 133.769531 C 323.222656 133.898438 324.476562 134.375 325.339844 133.984375 C 326.765625 133.335938 328.015625 133.8125 329.183594 134.070312 Z M 329.183594 134.027344 " fill-opacity="1" fill-rule="nonzero"/></g></svg>