<svg xmlns="http://www.w3.org/2000/svg" xmlns:xlink="http://www.w3.org/1999/xlink" width="500" zoomAndPan="magnify" viewBox="0 0 375 374.999991" height="500" preserveAspectRatio="xMidYMid meet" version="1.0"><defs><clipPath id="7f769c5eed"><path d="M 0 12 L 375 12 L 375 362.953125 L 0 362.953125 Z M 0 12 " clip-rule="nonzero"/></clipPath></defs><g clip-path="url(#7f769c5eed)"><path fill="#000000" d="M 374.941406 108.332031 C 374.695312 108.910156 374.40625 109.53125 374.242188 110.109375 C 373.414062 113.414062 372.960938 116.882812 371.722656 120.019531 C 370.191406 123.859375 369.117188 128.070312 365.8125 131.046875 C 365.277344 131.539062 365.152344 132.695312 364.574219 132.984375 C 362.097656 134.308594 360.980469 137.15625 358.460938 138.4375 C 356.273438 139.550781 354.25 141.078125 352.058594 142.195312 C 351.191406 142.648438 349.996094 142.9375 349.042969 142.773438 C 347.476562 142.523438 346.195312 142.773438 344.914062 143.597656 C 343.632812 144.382812 342.3125 144.921875 340.785156 144.753906 C 338.882812 144.546875 337.230469 145.292969 335.332031 145.910156 C 335.332031 147.644531 335.164062 149.378906 335.332031 151.03125 C 336.238281 158.507812 336.035156 166.019531 336.324219 173.535156 C 336.445312 176.839844 336.570312 180.101562 336.613281 183.40625 C 336.695312 188.816406 336.695312 194.183594 336.734375 199.59375 C 336.734375 202.855469 336.816406 206.160156 336.734375 209.421875 C 336.570312 217.84375 336.28125 226.269531 336.117188 234.695312 C 335.992188 240.886719 335.949219 247.082031 335.703125 253.277344 C 335.578125 256.167969 335.660156 259.097656 334.421875 261.824219 C 334.960938 264.175781 333.472656 265.828125 332.355469 267.605469 C 331.449219 269.050781 330.664062 269.296875 329.011719 268.800781 C 328.269531 268.554688 327.523438 268.265625 326.824219 267.894531 C 324.796875 266.738281 322.652344 266.367188 320.378906 266.984375 C 319.46875 267.234375 318.644531 266.984375 318.230469 266.449219 C 317.117188 265.003906 316.125 263.515625 316.164062 261.453125 C 316.289062 256.703125 316.25 251.953125 316.164062 247.207031 C 316.164062 244.191406 315.960938 241.175781 315.917969 238.164062 C 315.917969 236.882812 316.125 235.5625 316.207031 234.28125 C 316.207031 233.910156 316.414062 233.453125 316.25 233.125 C 315.089844 230.191406 315.917969 227.136719 315.628906 224.121094 C 315.339844 221.230469 315.546875 218.339844 315.546875 215.449219 C 315.546875 214.375 315.421875 213.34375 315.421875 212.3125 C 315.464844 210.867188 315.628906 209.421875 315.753906 207.976562 C 315.792969 207.441406 316.125 206.902344 316 206.449219 C 314.679688 199.636719 315.710938 192.78125 315.546875 185.964844 C 315.464844 182.457031 315.875 178.90625 316.042969 175.394531 C 316.042969 174.859375 316.125 174.320312 316.125 173.824219 C 316.25 169.863281 316.371094 165.9375 316.414062 161.976562 C 316.414062 159.867188 316.25 157.761719 316.289062 155.65625 C 316.371094 152.890625 316.660156 150.164062 316.828125 147.398438 C 316.910156 146.199219 316.828125 145.042969 316.828125 143.679688 C 315.503906 143.019531 314.308594 142.320312 312.984375 141.742188 C 309.679688 140.296875 306.832031 138.273438 304.476562 135.503906 C 304.0625 135.050781 303.484375 134.636719 302.90625 134.472656 C 301.214844 133.976562 299.808594 132.945312 298.609375 131.746094 C 297.992188 131.128906 297.621094 130.261719 297.164062 129.476562 C 296.917969 129.0625 296.835938 128.445312 296.503906 128.195312 C 292.828125 125.554688 291.628906 121.382812 290.308594 117.460938 C 289.152344 113.992188 288.902344 110.234375 288.988281 106.515625 C 288.988281 105.855469 288.988281 105.195312 289.152344 104.535156 C 290.019531 99.746094 290.722656 94.914062 292.496094 90.371094 C 293.902344 86.859375 295.390625 83.351562 297.910156 80.378906 C 298.816406 79.261719 299.683594 78.105469 300.46875 76.910156 C 302.246094 74.183594 305.21875 72.820312 307.410156 70.589844 C 307.574219 70.425781 307.820312 70.136719 308.027344 70.136719 C 310.628906 70.136719 312.324219 67.535156 314.96875 67.742188 C 317.238281 66.007812 320.007812 66.460938 322.527344 66.335938 C 324.425781 66.253906 326.160156 65.84375 328.019531 65.097656 C 328.183594 64.601562 328.558594 63.984375 328.558594 63.40625 C 328.640625 57.871094 328.761719 52.339844 328.640625 46.804688 C 328.597656 44.164062 327.730469 41.644531 326.410156 39.289062 C 325.5 37.636719 323.972656 36.398438 322.484375 35.613281 C 319.386719 33.960938 316.042969 32.765625 312.613281 31.734375 C 311.871094 31.527344 311.042969 31.609375 310.257812 31.527344 C 309.597656 31.484375 308.894531 31.566406 308.277344 31.363281 C 304.351562 30 300.386719 29.875 296.257812 30.121094 C 293.777344 30.289062 291.300781 29.75 288.78125 29.503906 C 287.996094 29.421875 287.128906 29.050781 286.46875 29.296875 C 284.855469 29.832031 283.371094 29.667969 281.839844 29.132812 C 281.59375 29.050781 281.304688 28.964844 281.054688 29.007812 C 278.164062 29.378906 275.273438 29.253906 272.507812 28.265625 C 272.175781 28.140625 271.636719 28.140625 271.347656 28.265625 C 269.117188 29.585938 266.722656 28.84375 264.367188 28.882812 C 264.121094 28.882812 263.789062 29.007812 263.585938 28.882812 C 260.980469 27.605469 258.503906 28.71875 255.941406 29.089844 C 253.382812 29.460938 250.695312 29.253906 248.09375 29.089844 C 246.773438 29.007812 245.492188 28.761719 244.210938 29.296875 C 243.304688 29.667969 242.601562 29.667969 241.691406 29.007812 C 241.113281 28.59375 239.917969 28.84375 239.050781 29.007812 C 233.71875 30 228.390625 30.496094 222.980469 29.75 C 222.609375 29.710938 222.113281 29.628906 221.824219 29.75 C 219.179688 31.238281 216.125 30.410156 213.355469 31.15625 C 212.367188 31.445312 211.25 31.320312 210.21875 31.238281 C 207.574219 31.074219 204.972656 31.15625 202.410156 31.941406 C 201.667969 32.144531 200.839844 32.144531 200.097656 32.105469 C 197.742188 32.0625 195.390625 31.855469 193.035156 31.898438 C 191.753906 31.898438 190.472656 31.898438 189.277344 32.847656 C 187.707031 34.046875 185.765625 33.960938 183.90625 33.632812 C 181.921875 33.300781 180.601562 33.300781 179.402344 35.449219 C 178.453125 37.183594 176.390625 38.339844 174.859375 39.742188 C 173.332031 41.148438 171.886719 42.550781 169.863281 43.5 C 168.046875 44.328125 166.558594 46.0625 165.238281 47.632812 C 162.34375 51.101562 158.835938 53.867188 155.40625 56.757812 C 154.828125 57.253906 154.085938 57.625 153.421875 58.039062 C 153.09375 58.242188 152.472656 58.285156 152.390625 58.53125 C 151.648438 61.132812 149.003906 61.710938 147.433594 63.40625 C 147.269531 63.613281 147.144531 63.902344 146.9375 64.023438 C 142.269531 67 138.761719 71.375 134.382812 74.71875 C 131.242188 77.117188 128.351562 79.839844 125.5 82.566406 C 124.632812 83.390625 123.726562 84.136719 122.734375 84.753906 C 121.496094 85.539062 120.585938 86.652344 119.46875 87.5625 C 115.671875 90.785156 112.367188 94.542969 108.484375 97.679688 C 106.460938 99.332031 104.972656 101.644531 102.410156 102.636719 C 102.121094 102.757812 101.957031 103.253906 101.75 103.585938 C 100.636719 105.609375 98.859375 106.972656 96.960938 108.167969 C 96.257812 108.621094 95.679688 108.996094 95.265625 109.695312 C 95.019531 110.152344 94.730469 110.6875 94.273438 110.933594 C 91.257812 112.667969 89.441406 115.726562 86.796875 117.871094 C 84.15625 120.019531 81.550781 122.25 79.03125 124.5625 C 77.667969 125.800781 76.472656 127.164062 75.027344 128.359375 C 73.25 129.890625 71.640625 131.582031 69.410156 132.613281 C 68.210938 133.191406 67.550781 134.472656 67.46875 135.875 C 67.300781 138.890625 67.09375 141.90625 66.972656 144.960938 C 66.890625 147.605469 66.847656 150.207031 66.847656 152.847656 C 66.847656 155.203125 66.804688 157.554688 66.804688 159.910156 C 66.804688 164.90625 66.804688 169.902344 66.804688 174.859375 C 66.804688 180.886719 66.765625 186.917969 66.640625 192.945312 C 66.558594 198.726562 66.3125 204.507812 66.226562 210.289062 C 66.144531 216.070312 66.226562 221.890625 66.226562 227.671875 C 66.226562 229.117188 66.351562 230.5625 65.734375 231.96875 C 65.441406 232.628906 65.609375 233.496094 65.691406 234.28125 C 65.980469 236.882812 66.433594 239.484375 65.691406 242.125 C 65.566406 242.621094 65.648438 243.160156 65.691406 243.695312 C 66.023438 247.617188 65.9375 251.542969 65.441406 255.464844 C 65.238281 256.992188 65.691406 258.601562 65.691406 260.171875 C 65.609375 265.167969 65.484375 270.164062 65.359375 275.160156 C 65.277344 277.804688 65.359375 280.449219 65.113281 283.050781 C 64.90625 285.898438 64.410156 288.707031 64.90625 291.636719 C 65.320312 294.074219 64.90625 296.632812 64.863281 299.152344 C 64.574219 309.808594 64.410156 320.503906 63.996094 331.15625 C 63.875 334.707031 63.210938 338.21875 62.675781 341.769531 C 62.46875 343.050781 62.054688 344.328125 62.59375 345.566406 C 63.460938 346.230469 64.328125 346.1875 65.238281 345.773438 C 65.816406 345.484375 66.476562 344.824219 66.929688 344.949219 C 68.789062 345.402344 70.441406 345.15625 72.21875 344.535156 C 73.785156 344 75.605469 344.082031 77.296875 344.082031 C 78.207031 344.082031 79.117188 344.328125 79.984375 344.578125 C 81.054688 344.867188 82.046875 344.988281 82.914062 344.082031 C 83.660156 343.339844 84.609375 343.214844 85.476562 343.460938 C 88.121094 344.207031 90.722656 343.460938 93.28125 343.171875 C 95.308594 342.925781 97.207031 343.007812 99.105469 343.710938 C 100.882812 344.371094 102.660156 344.453125 104.519531 343.75 C 106.335938 343.089844 108.152344 343.378906 110.011719 344.246094 C 110.632812 345.734375 110.921875 347.386719 111.996094 348.832031 C 113.6875 351.019531 111.167969 357.007812 108.441406 357.625 C 106.542969 358.082031 104.601562 358.535156 102.578125 358.328125 C 101.132812 358.164062 99.808594 358.328125 98.40625 359.070312 C 96.089844 360.226562 93.53125 359.855469 90.96875 359.070312 C 89.9375 359.566406 89.109375 360.683594 87.625 360.597656 C 86.589844 360.597656 85.601562 360.972656 84.566406 361.175781 C 84.070312 361.261719 83.410156 361.550781 83.039062 361.34375 C 80.933594 360.308594 78.910156 361.425781 76.886719 361.382812 C 74.738281 361.382812 72.714844 361.671875 70.730469 362.417969 C 70.027344 362.664062 69.160156 362.707031 68.375 362.664062 C 66.023438 362.539062 63.707031 362.292969 61.355469 362.128906 C 60.03125 362.003906 58.75 361.796875 57.472656 362.417969 C 57.015625 362.621094 56.4375 362.789062 55.941406 362.789062 C 52.761719 362.746094 49.582031 362.953125 46.484375 362.457031 C 43.222656 361.921875 39.957031 361.878906 36.652344 361.796875 C 35.746094 361.796875 34.753906 361.796875 33.96875 361.425781 C 32.316406 360.683594 30.664062 360.597656 28.929688 360.640625 C 27.195312 360.683594 25.5 360.683594 23.765625 360.640625 C 22.980469 360.640625 22.15625 360.640625 21.410156 360.394531 C 19.554688 359.691406 17.652344 359.359375 15.671875 359.320312 C 11.871094 359.238281 8.234375 357.957031 4.519531 357.253906 C 3.113281 356.964844 1.75 355.808594 0.59375 354.816406 C 0.179688 354.445312 0.0585938 353.082031 0.386719 352.628906 C 1.335938 351.390625 2.496094 350.027344 4.3125 350.523438 C 6.292969 351.058594 8.152344 350.894531 10.09375 350.234375 C 10.921875 349.945312 11.910156 350.152344 12.820312 350.152344 C 13.480469 350.152344 14.140625 350.359375 14.761719 350.277344 C 18.148438 349.738281 21.535156 349.699219 24.921875 349.410156 C 27.773438 349.160156 30.625 348.996094 33.472656 348.746094 C 35.457031 348.582031 37.398438 348.375 39.132812 347.550781 C 39.917969 346.230469 39.710938 344.90625 39.585938 343.585938 C 39.089844 337.804688 39.171875 332.023438 39.75 326.242188 C 39.835938 325.625 39.667969 324.960938 39.628906 324.300781 C 39.585938 323.640625 39.378906 322.980469 39.503906 322.320312 C 40.371094 317.613281 39.792969 312.863281 40.207031 308.113281 C 40.703125 302.332031 40.617188 296.511719 40.992188 290.730469 C 41.484375 283.378906 41.15625 276.027344 41.777344 268.71875 C 42.023438 265.953125 41.777344 263.308594 41.777344 260.585938 C 41.859375 255.589844 42.066406 250.59375 42.230469 245.59375 C 42.355469 242.332031 42.601562 239.03125 42.558594 235.765625 C 42.558594 232.628906 42.972656 229.53125 42.808594 226.351562 C 42.644531 223.214844 43.097656 220.035156 43.179688 216.855469 C 43.261719 213.714844 43.179688 210.535156 43.222656 207.355469 C 43.34375 203.144531 43.675781 198.933594 43.675781 194.722656 C 43.675781 190.796875 43.632812 186.875 44.128906 182.910156 C 44.5 180.226562 44.007812 177.378906 44.046875 174.652344 C 44.089844 171.636719 43.675781 168.582031 44.875 165.648438 C 45.039062 165.195312 45.203125 164.492188 44.996094 164.164062 C 44.089844 162.675781 44.5 161.066406 44.542969 159.539062 C 44.75 153.757812 45.246094 147.976562 45.285156 142.152344 C 45.285156 136.496094 45.65625 130.839844 45.742188 125.179688 C 45.78125 121.546875 46.402344 117.871094 46.773438 114.238281 C 46.773438 113.867188 46.9375 113.453125 46.855469 113.082031 C 46.152344 109.777344 47.0625 106.515625 47.105469 103.253906 C 47.144531 99.992188 47.765625 96.730469 48.054688 93.46875 C 48.34375 90.082031 48.425781 86.652344 48.757812 83.269531 C 49.292969 77.898438 49.871094 72.53125 50.863281 67.246094 C 51.855469 62.085938 52.679688 56.882812 54.457031 51.882812 C 55.613281 48.539062 56.894531 45.277344 58.75 42.261719 C 59.371094 41.273438 59.949219 40.238281 60.488281 39.164062 C 61.972656 36.152344 64.164062 33.632812 66.890625 31.816406 C 68.871094 30.453125 70.773438 28.761719 73.292969 28.183594 C 74.28125 27.933594 75.191406 27.316406 76.101562 26.738281 C 78.660156 25.085938 81.386719 24.464844 84.402344 25.003906 C 85.023438 25.125 85.972656 25.292969 86.34375 25.003906 C 88.863281 22.773438 92.292969 24.21875 94.933594 22.730469 C 95.265625 22.566406 95.71875 22.523438 96.089844 22.566406 C 99.5625 23.0625 102.824219 21.824219 106.171875 21.367188 C 109.765625 20.871094 113.441406 20.460938 117.117188 20.832031 C 118.3125 20.957031 119.386719 20.667969 120.585938 20.378906 C 122.859375 19.839844 125.292969 19.550781 127.609375 19.632812 C 129.714844 19.714844 131.738281 19.714844 133.804688 19.261719 C 135.539062 18.890625 137.3125 18.519531 139.171875 18.683594 C 140.824219 18.808594 142.519531 18.269531 144.171875 18.066406 C 144.667969 18.023438 145.285156 17.980469 145.742188 18.1875 C 147.597656 19.015625 149.292969 18.847656 150.984375 17.816406 C 151.480469 17.527344 152.347656 17.445312 152.886719 17.609375 C 154.578125 18.148438 156.148438 18.105469 157.800781 17.320312 C 158.628906 16.910156 159.867188 17.15625 160.859375 17.320312 C 162.015625 17.527344 163.089844 18.066406 164.039062 18.394531 C 167.46875 17.488281 170.730469 16.496094 174.074219 15.710938 C 176.015625 15.257812 178.042969 15.089844 179.941406 15.875 C 181.429688 16.496094 182.792969 16.332031 184.152344 15.792969 C 185.640625 15.175781 187.085938 14.511719 188.699219 15.257812 C 191.425781 14.222656 194.109375 14.925781 196.835938 15.257812 C 199.5625 13.976562 202.578125 14.761719 205.386719 14.222656 C 206.046875 14.101562 206.75 13.851562 207.328125 14.019531 C 209.804688 14.71875 212.160156 14.472656 214.636719 13.976562 C 216.910156 13.523438 219.304688 13.355469 221.660156 13.273438 C 223.601562 13.234375 225.582031 13.398438 227.523438 13.6875 C 229.136719 13.894531 230.621094 14.140625 232.066406 13.191406 C 233.140625 12.488281 234.257812 12.324219 235.414062 13.027344 C 235.703125 13.191406 236.28125 13.316406 236.570312 13.191406 C 238.800781 11.996094 241.277344 12.777344 243.550781 12.324219 C 245.328125 11.953125 246.9375 12.199219 248.550781 12.863281 C 249.375 13.191406 250.53125 13.5625 251.191406 13.191406 C 253.300781 12.035156 255.613281 12.820312 257.800781 12.242188 C 258.628906 11.996094 259.703125 12.160156 260.484375 12.53125 C 261.890625 13.191406 263.253906 13.109375 264.699219 12.820312 C 265.855469 12.574219 267.054688 12.449219 268.210938 12.488281 C 269.738281 12.53125 271.390625 13.191406 272.835938 12.820312 C 274.570312 12.40625 275.933594 13.066406 277.460938 13.234375 C 279.402344 13.441406 281.429688 13.730469 283.371094 13.441406 C 286.589844 12.984375 289.566406 14.308594 292.703125 14.429688 C 295.472656 14.554688 298.199219 14.925781 300.964844 15.132812 C 302.90625 15.296875 304.890625 15.296875 306.832031 15.464844 C 307.449219 15.503906 308.152344 15.753906 308.648438 16.082031 C 309.472656 16.703125 310.339844 16.703125 311.25 16.578125 C 313.109375 16.289062 314.925781 16.289062 316.621094 17.320312 C 316.949219 17.527344 317.445312 17.691406 317.734375 17.609375 C 320.625 16.535156 323.0625 18.558594 325.789062 18.765625 C 326.65625 18.808594 327.441406 19.511719 328.269531 19.882812 C 328.96875 20.210938 329.632812 20.707031 330.375 20.871094 C 332.109375 21.285156 333.679688 21.824219 334.753906 23.351562 C 334.960938 23.640625 335.332031 23.886719 335.703125 24.011719 C 337.273438 24.546875 338.59375 25.332031 339.046875 27.066406 C 344.046875 31.941406 344.5 38.214844 344.5 44.617188 C 344.5 50.5625 343.507812 56.425781 343.015625 62.332031 C 342.890625 63.777344 342.765625 65.179688 342.640625 66.542969 C 345.367188 68.03125 352.429688 70.714844 355.363281 71.210938 C 358.089844 71.664062 359.824219 73.523438 361.808594 75.132812 C 362.304688 75.546875 362.675781 76.207031 363.253906 76.414062 C 364.699219 76.992188 365.691406 77.898438 366.308594 79.304688 C 366.515625 79.757812 366.929688 80.253906 367.34375 80.460938 C 370.027344 81.699219 370.769531 84.257812 371.84375 86.652344 C 373.042969 89.296875 373.375 92.1875 374.488281 94.832031 L 374.488281 108.292969 Z M 96.296875 39.207031 C 93.859375 41.4375 90.761719 41.808594 87.789062 42.261719 C 85.722656 42.59375 84.03125 43.378906 82.417969 44.535156 C 78.949219 47.09375 76.390625 50.355469 74.859375 54.445312 C 72.917969 59.648438 71.84375 65.097656 71.101562 70.550781 C 70.605469 74.183594 70.484375 77.898438 70.070312 81.535156 C 69.945312 82.8125 69.242188 84.050781 69.121094 85.332031 C 69.035156 86.613281 69.53125 87.894531 69.449219 89.171875 C 69.121094 95.988281 68.707031 102.757812 68.335938 109.574219 C 68.253906 110.894531 68.046875 112.175781 68.046875 113.496094 C 68.046875 114.074219 67.921875 114.859375 68.871094 115.230469 C 70.195312 114.074219 71.804688 113.082031 72.835938 111.636719 C 76.015625 107.09375 80.476562 103.707031 84.070312 99.578125 C 86.300781 97.019531 88.90625 94.746094 91.382812 92.351562 C 93.28125 90.496094 95.183594 88.675781 97.082031 86.859375 C 98.984375 85.042969 100.675781 82.894531 102.824219 81.492188 C 105.011719 80.046875 106.003906 77.199219 108.855469 76.539062 C 109.144531 76.453125 109.351562 75.960938 109.597656 75.671875 C 110.257812 74.84375 110.796875 73.9375 111.539062 73.234375 C 115.421875 69.515625 119.265625 65.71875 123.351562 62.207031 C 126.410156 59.566406 129.300781 56.632812 132.894531 54.609375 C 133.226562 54.402344 133.597656 54.195312 133.761719 53.867188 C 135.289062 51.472656 137.769531 50.148438 139.917969 48.5 C 141.03125 47.632812 142.3125 46.96875 143.304688 45.898438 C 143.921875 45.234375 144.707031 44.65625 145.492188 44.285156 C 146.484375 43.832031 147.1875 43.128906 147.929688 42.386719 C 150.324219 40.15625 152.761719 37.96875 156.027344 36.9375 C 156.5625 36.769531 156.976562 36.152344 158.007812 35.242188 C 156.644531 35.324219 156.027344 35.449219 155.445312 35.40625 C 154.664062 35.367188 153.710938 34.828125 153.175781 35.160156 C 151.359375 36.109375 149.582031 35.242188 147.804688 35.324219 C 145.367188 35.449219 142.933594 35.65625 140.453125 35.324219 C 140.207031 35.324219 139.917969 35.367188 139.667969 35.449219 C 137.519531 35.984375 135.371094 36.769531 133.101562 35.984375 C 132.894531 35.902344 132.523438 35.984375 132.359375 36.109375 C 131.242188 36.8125 130.128906 36.5625 128.929688 36.398438 C 127.9375 36.273438 126.824219 36.316406 125.832031 36.5625 C 122.484375 37.429688 119.097656 37.636719 115.671875 37.636719 C 113.066406 37.636719 110.34375 37.636719 107.824219 38.296875 C 104.0625 39.332031 100.347656 39.496094 96.175781 39.082031 Z M 339.832031 78.519531 C 337.230469 78.644531 334.875 78.765625 332.523438 78.933594 C 331.984375 78.933594 331.40625 78.933594 330.953125 79.136719 C 327.8125 80.707031 324.300781 81.367188 321.535156 83.804688 C 318.105469 86.820312 315.132812 90 313.644531 94.417969 C 312.945312 96.523438 312.078125 98.589844 311.414062 100.734375 C 309.390625 107.136719 309.390625 113.332031 313.480469 119.070312 C 314.222656 120.144531 314.71875 121.382812 315.339844 122.539062 C 315.585938 122.992188 315.753906 123.53125 316.082031 123.859375 C 318.105469 125.800781 319.839844 128.238281 322.734375 129.0625 C 322.980469 129.144531 323.1875 129.351562 323.394531 129.515625 C 327.113281 132.117188 331.078125 133.9375 335.828125 133.109375 C 336.570312 132.984375 337.355469 133.316406 338.140625 133.316406 C 338.636719 133.316406 339.335938 133.316406 339.667969 133.027344 C 341.652344 131.210938 344.253906 130.507812 346.566406 129.269531 C 349.953125 127.453125 351.6875 124.398438 352.804688 121.050781 C 354.457031 116.097656 355.28125 110.933594 355.695312 105.691406 C 356.230469 98.628906 354.082031 92.519531 349.789062 87.027344 C 349.042969 86.117188 348.382812 85.125 347.558594 84.300781 C 346.484375 83.226562 345.410156 81.78125 344.046875 81.367188 C 342.1875 80.75 340.785156 79.839844 339.792969 78.519531 Z M 339.832031 78.519531 " fill-opacity="1" fill-rule="nonzero"/></g></svg>