<svg xmlns="http://www.w3.org/2000/svg" xmlns:xlink="http://www.w3.org/1999/xlink" width="500" zoomAndPan="magnify" viewBox="0 0 375 374.999991" height="500" preserveAspectRatio="xMidYMid meet" version="1.0"><defs><clipPath id="f9a2438e2e"><path d="M 0 16 L 375 16 L 375 359.4375 L 0 359.4375 Z M 0 16 " clip-rule="nonzero"/></clipPath></defs><g clip-path="url(#f9a2438e2e)"><path fill="#000000" d="M 347.9375 59.480469 C 349.242188 60.417969 350.257812 61.152344 351.316406 61.925781 C 351.84375 62.292969 352.332031 62.863281 352.902344 63.066406 C 357.214844 64.535156 360.878906 67.34375 365.070312 69.097656 C 366.128906 69.542969 366.738281 70.074219 367.1875 71.09375 C 367.632812 72.152344 368.246094 73.171875 368.9375 74.066406 C 370.28125 75.777344 371.785156 77.40625 373.699219 79.605469 C 374.917969 85.554688 375 92.234375 373.777344 98.917969 C 372.191406 101.484375 372.355469 104.621094 371.09375 107.351562 C 369.871094 109.917969 369.097656 112.6875 367.554688 115.132812 C 366.496094 116.761719 365.597656 118.511719 364.828125 120.304688 C 363.890625 122.503906 361.894531 123.847656 360.59375 125.804688 C 359.375 127.636719 357.703125 129.472656 355.464844 130.488281 C 354.898438 130.734375 354.570312 131.425781 354.042969 131.792969 C 352.660156 132.730469 351.273438 133.707031 349.808594 134.523438 C 348.34375 135.339844 346.796875 136.03125 345.292969 136.683594 C 344.234375 137.128906 343.09375 137.578125 341.957031 137.78125 C 339.636719 138.191406 337.316406 138.515625 334.996094 138.761719 C 334.222656 138.839844 333.449219 138.679688 332.675781 138.554688 C 331.660156 138.433594 330.644531 138.066406 329.625 138.109375 C 327.265625 138.191406 325.515625 137.128906 323.726562 135.703125 C 321.730469 134.117188 319.371094 132.769531 316.96875 131.914062 C 312.820312 130.410156 310.09375 127.433594 307.691406 124.011719 C 306.714844 122.628906 305.980469 121.078125 305.207031 119.613281 C 304.71875 118.675781 304.273438 117.738281 304.882812 116.679688 C 305.046875 116.394531 304.964844 115.945312 304.882812 115.578125 C 304.84375 115.335938 304.597656 115.132812 304.476562 114.925781 C 302.441406 112.035156 302.074219 108.734375 302.035156 105.355469 C 301.953125 97.449219 303.460938 88.976562 306.144531 82.582031 C 306.347656 82.09375 306.429688 81.601562 306.511719 81.074219 C 307.324219 76.714844 308.75 74.1875 311.71875 71.011719 C 314.855469 67.628906 318.515625 64.980469 322.21875 62.375 C 323.441406 61.519531 325.027344 61.113281 326.492188 60.664062 C 327.714844 60.296875 329.054688 60.175781 330.480469 59.890625 C 330.722656 59.320312 331.171875 58.75 331.171875 58.179688 C 331.089844 54.675781 330.722656 51.171875 330.847656 47.667969 C 330.929688 44.082031 330.03125 40.988281 327.550781 38.257812 C 326.003906 37.644531 324.417969 36.707031 322.464844 37.035156 C 322.054688 37.117188 321.488281 36.75 321.078125 36.464844 C 320.023438 35.730469 318.882812 35.773438 317.785156 36.21875 C 314.894531 37.359375 311.84375 36.992188 308.953125 36.628906 C 306.796875 36.34375 304.679688 36.21875 302.523438 36.136719 C 300.082031 36.097656 297.597656 35.8125 295.15625 35.691406 C 293.855469 35.609375 292.554688 35.8125 291.292969 35.648438 C 288.523438 35.28125 285.59375 35.648438 283.113281 33.613281 C 282.296875 34.101562 281.484375 34.835938 280.546875 35.039062 C 279.570312 35.28125 278.511719 34.957031 277.496094 34.957031 C 276.722656 34.957031 275.949219 34.957031 275.175781 35.078125 C 273.710938 35.28125 272.367188 35.242188 271.027344 34.507812 C 270.089844 33.980469 269.113281 34.0625 268.054688 34.507812 C 266.140625 35.242188 261.339844 35.488281 259.347656 34.917969 C 257.472656 34.386719 255.441406 35.242188 253.648438 34.019531 C 253.445312 33.855469 252.835938 34.019531 252.550781 34.183594 C 251.246094 35.160156 249.988281 34.875 248.480469 34.632812 C 246.730469 34.347656 244.898438 34.632812 243.148438 34.671875 C 242.253906 34.671875 241.320312 35.078125 240.464844 34.957031 C 237.859375 34.632812 235.296875 34.632812 232.730469 34.875 C 230.65625 35.078125 228.5 35.28125 226.953125 33.570312 C 223.617188 35.078125 220.523438 35.324219 217.226562 34.507812 C 214.582031 33.855469 211.816406 33.855469 209.128906 34.671875 C 208.519531 34.875 207.828125 35.160156 207.214844 35.078125 C 203.472656 34.550781 199.769531 35.566406 196.066406 35.691406 C 195.945312 35.691406 195.820312 35.691406 195.660156 35.691406 C 194.277344 35.445312 192.851562 34.957031 191.46875 34.996094 C 190.085938 34.996094 188.742188 35.488281 187.359375 35.773438 C 185.8125 36.097656 184.304688 35.894531 182.757812 35.773438 C 180.601562 35.566406 178.324219 35.527344 176.167969 35.894531 C 172.585938 36.464844 168.964844 36.382812 165.34375 36.628906 C 163.550781 36.75 161.800781 37.035156 160.050781 36.628906 C 158.300781 38.132812 156.226562 37.238281 154.394531 37.15625 C 152.605469 37.035156 150.855469 36.75 149.144531 37.484375 C 147.394531 38.257812 145.847656 37.238281 144.261719 36.914062 C 142.917969 37.402344 141.578125 37.847656 140.03125 38.378906 C 139.378906 42.984375 135.351562 45.019531 132.296875 47.910156 C 131.441406 48.6875 130.589844 49.460938 129.695312 50.234375 C 127.171875 52.433594 124.6875 54.714844 122.042969 56.832031 C 114.839844 62.578125 107.800781 68.527344 101.003906 74.800781 C 98.238281 77.367188 95.511719 79.972656 92.703125 82.457031 C 91.441406 83.558594 89.933594 84.375 88.714844 85.472656 C 87.574219 86.492188 86.761719 87.917969 85.621094 88.9375 C 82.691406 91.503906 79.640625 93.90625 76.710938 96.433594 C 75.527344 97.449219 74.472656 98.589844 73.414062 99.691406 C 69.710938 103.480469 65.882812 107.226562 62.304688 111.140625 C 59.902344 113.746094 57.339844 116.066406 54.570312 118.226562 C 54.367188 118.390625 54.125 118.511719 53.921875 118.675781 C 52.089844 120.265625 50.707031 122.097656 51.152344 124.703125 C 51.480469 126.578125 51.152344 128.332031 49.972656 129.960938 C 50.949219 131.46875 51.03125 133.097656 50.828125 134.847656 C 50.542969 137.578125 50.625 140.308594 50.421875 143.039062 C 49.972656 148.863281 50.582031 154.6875 49.605469 160.472656 C 49.566406 160.71875 49.605469 161.003906 49.605469 161.246094 C 49.605469 165.769531 49.769531 170.332031 49.648438 174.855469 C 49.523438 179.785156 49.6875 184.714844 49.523438 189.601562 C 49.402344 193.351562 49.769531 197.097656 49.445312 200.847656 C 49.117188 205.125 49.890625 209.359375 49.523438 213.597656 C 49.199219 217.46875 49.730469 221.339844 49.648438 225.207031 C 49.566406 229.078125 49.648438 233.03125 50.054688 236.859375 C 50.21875 238.570312 49.242188 239.914062 49.402344 241.421875 C 49.566406 242.929688 50.257812 244.394531 50.460938 245.902344 C 50.707031 247.816406 50.746094 249.773438 50.867188 251.730469 C 50.867188 252.257812 51.113281 252.871094 50.949219 253.277344 C 49.890625 255.597656 50.910156 257.839844 51.070312 260.121094 C 51.355469 263.871094 51.234375 267.65625 51.4375 271.40625 C 51.761719 278.003906 51.480469 284.644531 52.496094 291.207031 C 52.660156 292.347656 52.332031 293.566406 52.578125 294.707031 C 52.902344 296.5 52.171875 298.210938 52.863281 300.085938 C 53.472656 301.714844 53.226562 303.671875 53.390625 305.464844 C 53.390625 305.707031 53.390625 305.992188 53.433594 306.238281 C 53.554688 311.046875 53.636719 315.851562 53.757812 320.660156 C 53.796875 322.738281 53.757812 324.816406 52.578125 326.648438 C 54.410156 330.476562 54.410156 334.308594 53.308594 338.175781 C 52.984375 339.277344 53.066406 340.5 52.945312 341.84375 C 53.71875 342.007812 54.449219 342.25 55.183594 342.292969 C 57.5 342.414062 59.863281 342.453125 62.179688 342.535156 C 62.710938 342.535156 63.402344 342.332031 63.6875 342.535156 C 65.679688 344.125 67.878906 343.105469 69.996094 343.105469 C 74.144531 343.105469 78.253906 343.105469 82.039062 345.347656 C 83.34375 346.121094 84.96875 346.242188 86.476562 346.609375 C 87.453125 346.855469 88.46875 347.097656 89.40625 347.304688 C 89.933594 349.460938 89.648438 351.214844 88.796875 353.085938 C 87.980469 354.921875 86.71875 356.144531 84.847656 356.347656 C 81.226562 356.753906 77.605469 356.957031 73.984375 357.082031 C 72.964844 357.082031 71.988281 357.082031 70.929688 357.367188 C 67.796875 358.179688 64.621094 358.832031 61.328125 358.585938 C 60.429688 358.507812 59.496094 358.464844 58.640625 358.261719 C 57.339844 357.976562 56.117188 357.691406 54.855469 358.382812 C 54.328125 358.667969 53.511719 358.832031 52.984375 358.667969 C 49.890625 357.609375 46.554688 358.832031 43.503906 357.570312 C 42.402344 357.121094 41.425781 357.40625 40.492188 357.773438 C 38.253906 358.667969 35.933594 358.832031 33.613281 358.871094 C 29.746094 358.953125 25.839844 359.320312 22.015625 359.199219 C 18.839844 359.078125 15.625 358.546875 12.410156 358.507812 C 11.230469 358.507812 9.847656 357.8125 8.914062 357 C 7.367188 355.65625 5.617188 354.960938 3.703125 354.472656 C 3.335938 354.390625 2.972656 354.226562 2.605469 354.105469 C 0.246094 353.167969 0 352.4375 0.976562 349.949219 C 1.300781 349.175781 1.34375 348.28125 1.546875 347.34375 C 1.667969 347.222656 1.832031 347.058594 2.035156 346.855469 C 4.640625 344.207031 7.8125 344.289062 11.070312 345.019531 C 12.617188 345.347656 13.875 345.632812 15.503906 344.777344 C 16.765625 344.085938 18.597656 344.003906 20.0625 344.289062 C 22.542969 344.734375 24.90625 343.472656 27.347656 344.164062 C 27.671875 344.246094 28.078125 344.003906 28.445312 343.878906 C 30.234375 343.1875 31.984375 343.269531 33.695312 344.125 C 34.425781 344.492188 35.160156 344.53125 35.648438 343.675781 C 33.003906 341.964844 32.960938 341.964844 32.351562 338.910156 C 31.824219 336.222656 31.417969 333.613281 31.863281 330.804688 C 32.1875 328.683594 31.78125 326.445312 31.78125 324.246094 C 31.699219 318.378906 31.699219 312.550781 31.539062 306.6875 C 31.417969 302.164062 31.335938 297.601562 30.683594 293.121094 C 30.316406 290.554688 30.234375 287.945312 30.683594 285.339844 C 30.847656 284.484375 31.007812 283.382812 30.683594 282.691406 C 29.585938 280.574219 29.746094 278.332031 29.828125 276.171875 C 30.03125 272.058594 29.910156 267.941406 29.625 263.828125 C 29.585938 263.054688 29.667969 262.28125 29.828125 261.507812 C 30.113281 260.203125 29.828125 258.941406 29.789062 257.636719 C 29.542969 252.992188 28.691406 248.347656 29.300781 243.664062 C 29.382812 242.890625 29.300781 242.113281 29.257812 241.339844 C 28.972656 238 29.339844 234.660156 28.972656 231.320312 C 28.8125 229.6875 29.21875 227.976562 29.179688 226.308594 C 29.097656 224.027344 30.074219 221.910156 29.421875 219.464844 C 28.8125 217.304688 29.179688 214.820312 29.21875 212.496094 C 29.464844 201.089844 29.707031 189.683594 29.992188 178.277344 C 30.074219 174.894531 30.765625 171.515625 30.480469 168.171875 C 30.113281 163.734375 31.050781 159.414062 30.886719 155.015625 C 30.765625 151.917969 31.210938 148.78125 31.375 145.6875 C 31.539062 142.183594 31.78125 138.679688 31.863281 135.175781 C 31.863281 133.097656 32.230469 131.058594 32.472656 129.023438 C 33.042969 123.769531 33.042969 118.472656 33.53125 113.214844 C 33.980469 108.042969 34.304688 102.867188 34.753906 97.695312 C 34.875 96.148438 35.242188 94.640625 35.484375 93.089844 C 35.566406 92.726562 35.769531 92.316406 35.730469 91.949219 C 35.363281 88 36.339844 84.210938 36.707031 80.339844 C 37.074219 76.714844 37.804688 73.171875 38.496094 69.585938 C 39.515625 64.25 40.980469 59.035156 42.445312 53.820312 C 43.378906 50.601562 44.886719 47.503906 46.1875 44.410156 C 46.472656 43.714844 47.003906 43.0625 47.570312 42.574219 C 48.304688 41.964844 48.710938 41.273438 48.957031 40.335938 C 49.199219 39.480469 49.566406 38.582031 50.175781 37.972656 C 52.863281 35.203125 55.546875 32.351562 59.453125 31.128906 C 62.304688 30.273438 65.070312 29.089844 67.960938 28.4375 C 70.074219 27.949219 72.234375 27.378906 74.390625 27.175781 C 78.539062 26.808594 82.570312 25.996094 86.597656 25.179688 C 87.859375 24.933594 89.160156 25.996094 90.382812 24.976562 C 94.65625 24.773438 98.765625 23.347656 103.078125 23.714844 C 103.972656 23.792969 104.871094 23.550781 105.804688 23.507812 C 106.578125 23.507812 107.351562 23.507812 108.085938 23.550781 C 108.980469 23.632812 109.835938 24.039062 110.6875 23.957031 C 111.300781 23.917969 112.359375 24.160156 112.519531 22.980469 C 112.519531 22.898438 113.210938 22.816406 113.539062 22.859375 C 114.839844 23.019531 116.101562 23.304688 117.402344 23.386719 C 117.972656 23.429688 118.746094 23.304688 119.195312 22.9375 C 120.414062 21.921875 121.71875 21.757812 123.222656 21.878906 C 125.011719 22.003906 126.84375 21.226562 128.59375 22.125 C 128.796875 22.207031 129.125 22.125 129.328125 22.042969 C 131.605469 20.496094 134.167969 21.675781 136.53125 21.226562 C 138.199219 22.082031 139.828125 21.226562 141.496094 21.226562 C 144.832031 21.1875 148.167969 20.167969 151.585938 21.351562 C 153.582031 19.394531 156.226562 19.761719 158.546875 19.964844 C 160.5 20.128906 162.371094 19.273438 164.242188 19.925781 C 166.847656 18.621094 169.613281 19.640625 172.300781 19.433594 C 174.5 19.230469 176.695312 19.3125 178.851562 18.660156 C 180.765625 18.089844 182.71875 18.457031 184.632812 18.824219 C 185.363281 18.945312 186.257812 19.148438 186.871094 18.824219 C 189.71875 17.4375 192.730469 17.804688 195.699219 17.847656 C 197.695312 17.847656 199.648438 18.742188 201.640625 17.644531 C 201.925781 17.480469 202.457031 17.644531 202.78125 17.765625 C 205.792969 19.273438 208.964844 18.457031 211.976562 18.007812 C 214.132812 17.683594 216.046875 17.519531 218 18.417969 C 219.140625 18.945312 220.320312 18.988281 221.378906 18.375 C 222.800781 17.519531 224.1875 17.195312 225.855469 17.644531 C 226.425781 17.804688 227.074219 17.519531 227.726562 17.4375 C 228.253906 17.359375 228.785156 17.074219 229.230469 17.234375 C 230.859375 17.765625 232.445312 18.214844 234.074219 17.234375 C 236.070312 18.253906 238.144531 16.789062 240.136719 17.480469 C 240.625 17.644531 241.238281 17.847656 241.644531 17.644531 C 243.433594 16.867188 245.144531 17.113281 246.894531 17.765625 C 247.339844 17.929688 247.992188 17.886719 248.441406 17.683594 C 250.148438 16.789062 251.980469 17.113281 253.730469 16.828125 C 256.742188 16.378906 259.632812 16.746094 262.601562 16.949219 C 264.757812 17.074219 266.914062 16.992188 269.113281 16.582031 C 272.125 16.054688 275.296875 16.175781 277.863281 17.398438 C 280.464844 16.949219 282.746094 16.582031 285.023438 16.175781 C 285.269531 16.136719 285.59375 16.09375 285.796875 16.21875 C 287.589844 17.398438 289.542969 16.257812 291.453125 16.707031 C 293.40625 17.152344 295.5625 16.828125 297.597656 16.867188 C 299.550781 16.910156 301.503906 16.992188 303.460938 17.074219 C 305.003906 17.152344 306.550781 17.234375 308.097656 17.398438 C 309.402344 17.5625 310.660156 17.765625 311.640625 18.824219 C 312.085938 19.3125 312.695312 19.476562 313.386719 19.355469 C 314.8125 19.070312 316.195312 19.273438 317.582031 19.761719 C 318.273438 20.003906 319.085938 19.882812 319.859375 20.003906 C 320.875 20.167969 321.976562 20.210938 322.910156 20.617188 C 324.824219 21.433594 326.65625 22.367188 328.851562 21.878906 C 329.339844 21.757812 329.992188 22.328125 330.5625 22.652344 C 332.554688 23.835938 334.304688 25.464844 336.707031 25.914062 C 337.277344 26.035156 337.804688 26.566406 338.292969 26.972656 C 339.597656 27.992188 340.777344 29.292969 342.242188 30.066406 C 343.949219 30.964844 344.925781 32.472656 346.308594 33.613281 C 346.675781 33.9375 346.960938 34.46875 347.042969 34.957031 C 347.855469 38.460938 349.035156 41.921875 348.710938 45.628906 C 348.34375 50.273438 348.183594 54.917969 347.9375 59.6875 Z M 118.300781 39.96875 C 116.914062 39.195312 115.492188 38.703125 113.863281 39.152344 C 113.007812 39.398438 112.03125 39.316406 111.136719 39.152344 C 109.46875 38.867188 107.800781 38.417969 106.375 39.84375 C 106.171875 40.050781 105.644531 40.007812 105.277344 40.007812 C 101.289062 40.292969 97.261719 39.683594 93.351562 40.78125 C 92.988281 40.863281 92.578125 40.78125 92.171875 40.78125 C 88.511719 41.148438 84.765625 41.027344 81.1875 42.25 C 80.453125 42.492188 79.679688 42.738281 78.90625 42.738281 C 75.894531 42.738281 73.046875 43.796875 70.117188 44.328125 C 65.761719 45.140625 62.464844 47.464844 60.960938 51.824219 C 60.308594 53.65625 59.941406 55.570312 59.25 57.402344 C 57.949219 60.90625 57.054688 64.453125 56.566406 68.242188 C 55.953125 73.25 54.613281 78.179688 54.246094 83.234375 C 53.960938 87.101562 53.351562 90.933594 52.902344 94.800781 C 52.820312 95.535156 52.78125 96.351562 53.554688 97.003906 C 53.839844 96.878906 54.246094 96.796875 54.449219 96.59375 C 57.339844 93.621094 60.1875 90.605469 63.078125 87.632812 C 64.054688 86.613281 65.4375 85.921875 66.292969 84.820312 C 69.222656 81.113281 73.25 78.628906 76.382812 75.125 C 77.480469 73.863281 78.703125 72.519531 80.167969 71.867188 C 81.878906 71.09375 82.40625 69.503906 83.585938 68.402344 C 87.453125 64.777344 91.441406 61.234375 95.226562 57.484375 C 98.96875 53.738281 103.648438 51.089844 107.3125 47.21875 C 107.757812 46.769531 108.410156 46.527344 108.9375 46.160156 C 109.875 45.507812 110.769531 44.773438 111.746094 44.125 C 113.863281 42.699219 115.695312 40.863281 118.09375 39.886719 C 118.300781 39.601562 118.542969 39.316406 118.664062 38.988281 C 118.746094 38.746094 118.707031 38.417969 118.664062 38.09375 C 118.664062 38.09375 118.378906 38.011719 118.339844 38.09375 C 118.136719 38.339844 117.8125 38.625 117.8125 38.910156 C 117.8125 39.273438 118.015625 39.640625 118.175781 39.96875 Z M 341.753906 81.15625 C 340.695312 81.5625 339.636719 82.253906 338.539062 82.296875 C 335.8125 82.417969 333.207031 83.234375 330.519531 83.519531 C 327.714844 83.84375 325.597656 84.863281 324.703125 87.753906 C 323.726562 90.851562 322.707031 93.90625 321.730469 97.003906 C 321.363281 98.226562 320.957031 99.445312 320.753906 100.710938 C 320.304688 103.886719 320.101562 107.105469 320.429688 110.363281 C 320.511719 111.382812 320.144531 112.484375 320.429688 113.421875 C 321.40625 116.230469 322.382812 119.082031 323.804688 121.691406 C 325.230469 124.378906 327.386719 126.417969 330.765625 126.496094 C 331.292969 126.496094 331.78125 126.621094 332.3125 126.660156 C 336.910156 127.3125 340.898438 125.480469 344.84375 123.484375 C 345.046875 123.359375 345.210938 123.117188 345.414062 122.953125 C 348.996094 120.347656 351.195312 116.679688 353.066406 112.808594 C 354.328125 110.203125 354.976562 107.472656 355.671875 104.703125 C 357.257812 98.265625 357.378906 91.871094 354.773438 85.636719 C 353.960938 83.679688 352.820312 82.011719 350.460938 81.644531 C 349.730469 81.523438 349.035156 81.113281 348.425781 80.828125 C 345.984375 81.886719 343.761719 81.984375 341.753906 81.113281 Z M 341.753906 81.15625 " fill-opacity="1" fill-rule="nonzero"/></g></svg>