<svg xmlns="http://www.w3.org/2000/svg" xmlns:xlink="http://www.w3.org/1999/xlink" width="500" zoomAndPan="magnify" viewBox="0 0 375 374.999991" height="500" preserveAspectRatio="xMidYMid meet" version="1.0"><path fill="#000000" d="M 296.191406 52.910156 C 294.25 51.058594 293.375 49.027344 293.695312 46.4375 C 293.835938 45.511719 293.28125 44.449219 292.957031 43.523438 C 292.082031 41.214844 292.082031 41.214844 292.867188 38.347656 C 290.925781 36.035156 289.308594 33.261719 286.90625 31.460938 C 284.921875 29.933594 282.472656 28.546875 279.65625 28.730469 C 278.179688 28.824219 276.65625 28.824219 275.269531 28.5 C 269.402344 27.023438 263.398438 26.652344 257.488281 25.589844 C 256.933594 25.496094 256.425781 25.171875 255.917969 24.988281 C 254.300781 24.292969 252.730469 23.554688 251.066406 22.816406 C 249.914062 23.507812 248.941406 24.109375 248.113281 24.617188 C 243.261719 24.292969 238.597656 24.203125 233.933594 24.015625 C 229.359375 23.832031 224.832031 24.710938 220.261719 23.785156 C 218.738281 23.460938 217.074219 24.109375 215.503906 24.15625 C 208.160156 24.386719 200.769531 24.570312 193.425781 24.800781 C 192.273438 24.800781 191.070312 24.941406 189.917969 24.988281 C 185.066406 25.035156 180.21875 25.078125 175.367188 25.171875 C 174.351562 25.171875 173.199219 25.171875 172.367188 25.632812 C 170.289062 26.746094 168.117188 26.789062 165.898438 26.882812 C 159.296875 27.066406 152.644531 27.207031 145.578125 27.390625 C 141.328125 31.738281 136.433594 36.082031 132.414062 41.121094 C 128.257812 46.34375 123.457031 50.875 119.066406 55.820312 C 114.542969 60.859375 109.875 65.761719 105.488281 70.9375 C 100.039062 77.316406 94.773438 83.835938 89.460938 90.351562 C 87.246094 93.082031 85.257812 95.992188 83.089844 98.8125 C 79.117188 103.945312 75.050781 108.984375 71.082031 114.113281 C 67.664062 118.550781 64.105469 122.804688 60.042969 126.6875 C 58.332031 128.304688 56.902344 130.199219 55.421875 132.050781 C 54.222656 133.53125 54.316406 135.378906 54.359375 137.136719 C 54.40625 139.214844 54.777344 141.25 54.636719 143.285156 C 54.546875 145.179688 55.238281 146.980469 54.867188 148.96875 C 54.546875 150.632812 55.191406 152.4375 55.238281 154.191406 C 55.378906 160.664062 55.839844 167.089844 56.164062 173.515625 C 56.4375 179.847656 56.808594 186.183594 57.085938 192.515625 C 57.179688 194.597656 56.949219 196.628906 57.039062 198.710938 C 57.085938 200.464844 57.5 202.222656 57.410156 203.933594 C 57.222656 207.585938 58.425781 211.238281 57.546875 214.890625 C 57.410156 215.398438 57.871094 216 57.964844 216.601562 C 58.148438 217.753906 58.425781 218.957031 58.332031 220.113281 C 57.824219 225.660156 58.75 231.160156 58.839844 236.664062 C 59.027344 245.078125 59.394531 253.445312 59.71875 261.855469 C 59.71875 262.597656 59.71875 263.335938 59.535156 264.074219 C 59.070312 265.695312 59.347656 267.265625 59.625 268.882812 C 59.996094 270.917969 59.996094 272.996094 60.042969 275.03125 C 60.089844 277.25 59.949219 279.421875 60.042969 281.640625 C 60.179688 285.757812 60.457031 289.871094 60.597656 293.984375 C 60.734375 300.59375 60.6875 307.253906 60.964844 313.863281 C 61.105469 317.050781 60.320312 320.289062 61.425781 323.386719 C 61.105469 330.828125 62.8125 338.363281 60.089844 345.714844 C 59.347656 347.746094 59.070312 349.964844 58.519531 352.460938 C 58.933594 353.710938 60.640625 353.710938 61.933594 354.636719 C 63.828125 353.339844 65.859375 352.601562 68.171875 353.339844 C 71.542969 352.507812 74.867188 353.109375 78.238281 353.292969 C 81.011719 353.433594 83.320312 354.773438 85.8125 355.511719 C 86.460938 355.699219 87.152344 356.253906 87.570312 356.808594 C 88.953125 358.886719 90.988281 359.953125 93.066406 360.921875 C 93.617188 362.585938 94.128906 364.066406 94.679688 365.683594 C 93.527344 367.207031 91.539062 367.855469 90.753906 369.796875 C 90.476562 370.445312 89.046875 370.90625 88.078125 371 C 85.722656 371.183594 83.367188 371.046875 81.054688 371.09375 C 79.902344 371.09375 78.746094 371.230469 77.59375 371.277344 C 75.976562 371.371094 74.359375 371.601562 72.742188 371.460938 C 68.492188 371.136719 64.246094 370.953125 60.042969 371.96875 C 59.488281 372.109375 58.886719 372.109375 58.285156 372.109375 C 51.773438 371.96875 45.355469 373.035156 38.886719 373.402344 C 38.011719 373.402344 36.996094 373.726562 36.300781 373.402344 C 34.039062 372.246094 31.960938 372.988281 29.976562 373.867188 C 28.542969 374.464844 27.203125 374.742188 25.679688 374.464844 C 24.386719 374.234375 23.09375 373.957031 21.800781 374.652344 C 21.339844 374.882812 20.554688 374.976562 20.089844 374.789062 C 18.105469 374.003906 16.164062 373.496094 14.179688 374.652344 C 11.640625 374.003906 8.867188 373.773438 7.621094 370.90625 C 7.390625 370.398438 7.160156 369.890625 6.929688 369.472656 C 4.527344 368.640625 2.355469 367.902344 0 367.070312 C 0.230469 365.867188 0.601562 364.898438 0.601562 363.925781 C 0.601562 362.03125 1.476562 360.875 3.140625 360.183594 C 3.554688 359.996094 4.019531 359.859375 4.296875 359.582031 C 6.511719 357.039062 9.46875 356.992188 12.46875 357.132812 C 13.671875 357.175781 14.78125 357.132812 15.933594 356.621094 C 16.996094 356.207031 18.242188 355.882812 19.398438 355.929688 C 20.738281 356.023438 21.9375 355.929688 23.183594 355.375 C 24.894531 354.679688 26.648438 354.914062 28.082031 355.882812 C 29.464844 355.191406 30.667969 354.679688 31.820312 354.035156 C 33.4375 353.109375 33.992188 351.585938 33.160156 349.921875 C 32.007812 347.609375 31.082031 345.34375 31.636719 342.707031 C 31.683594 342.429688 31.636719 342.109375 31.453125 341.832031 C 29.421875 337.667969 29.699219 333.277344 29.976562 328.792969 C 30.113281 326.621094 29.742188 324.402344 29.789062 322.183594 C 29.835938 320.011719 30.667969 317.792969 30.296875 315.710938 C 29.929688 313.632812 30.019531 311.644531 30.066406 309.609375 C 30.113281 305.171875 29.929688 300.78125 29.882812 296.34375 C 29.882812 294.445312 29.976562 292.503906 30.019531 290.609375 C 30.019531 289.871094 30.019531 289.132812 30.019531 288.390625 C 29.976562 283.214844 29.882812 278.082031 29.835938 272.90625 C 29.835938 271.148438 29.558594 269.34375 30.621094 267.726562 C 30.898438 267.3125 30.945312 266.570312 30.804688 266.015625 C 29.558594 261.53125 30.113281 256.957031 30.066406 252.425781 C 29.976562 245.953125 30.296875 239.527344 30.296875 233.058594 C 30.296875 231.070312 31.5 229.128906 31.589844 227.140625 C 31.683594 225.289062 29.882812 223.8125 30.019531 221.730469 C 30.296875 218.078125 30.484375 214.382812 30.390625 210.730469 C 30.34375 208.234375 30.390625 205.738281 30.207031 203.285156 C 29.835938 198.292969 29.742188 193.300781 29.882812 188.308594 C 29.976562 185.71875 29.191406 183.039062 29.511719 180.496094 C 29.835938 177.675781 29.742188 174.996094 29.511719 172.222656 C 29.234375 168.570312 29.28125 164.871094 29.234375 161.21875 C 29.191406 157.523438 29.191406 153.824219 29.144531 150.171875 C 29.144531 149.710938 29.144531 149.292969 29.097656 148.832031 C 28.726562 146.933594 30.296875 145.316406 29.605469 143.238281 C 29.050781 141.480469 29.511719 139.445312 29.097656 137.597656 C 28.636719 135.378906 29.976562 133.4375 29.28125 131.125 C 28.636719 128.953125 29.050781 126.457031 29.097656 124.097656 C 29.097656 121.878906 29.191406 119.660156 29.28125 117.488281 C 29.328125 115.269531 29.421875 113.050781 29.464844 110.878906 C 29.464844 110.277344 29.191406 109.539062 29.464844 109.121094 C 30.992188 106.625 29.789062 104.035156 29.976562 101.492188 C 30.019531 100.753906 29.976562 100.015625 29.976562 99.273438 C 30.160156 95.621094 30.296875 91.972656 30.527344 88.320312 C 30.761719 85.082031 31.128906 81.894531 31.359375 78.65625 C 31.589844 75.746094 32.007812 72.785156 31.960938 69.875 C 31.960938 67.5625 33.390625 65.621094 33.4375 63.542969 C 33.484375 61.367188 33.253906 59.148438 33.761719 56.976562 C 34.59375 53.554688 35.195312 49.996094 36.394531 46.714844 C 38.566406 40.660156 40.550781 34.464844 44.894531 29.425781 C 46.832031 27.207031 48.449219 24.757812 51.035156 23.230469 C 51.265625 23.09375 51.542969 22.90625 51.726562 22.675781 C 56.992188 16.710938 64.199219 14.539062 71.542969 12.785156 C 76.53125 11.582031 81.609375 10.703125 86.644531 9.964844 C 90.710938 9.363281 94.867188 9.179688 98.976562 8.808594 C 102.808594 8.484375 106.597656 8.113281 110.429688 7.789062 C 113.0625 7.558594 115.742188 7.511719 118.375 7.28125 C 121.007812 7.050781 123.59375 6.679688 126.226562 6.449219 C 130.199219 6.082031 134.125 5.664062 138.097656 5.480469 C 139.667969 5.386719 141.238281 5.941406 143.085938 6.21875 C 145.117188 4.601562 147.886719 4.738281 150.472656 4.738281 C 154.90625 4.738281 159.296875 4.277344 163.683594 3.90625 C 165.855469 3.722656 168.070312 3.90625 170.289062 3.90625 C 175.089844 3.90625 179.847656 3.585938 184.652344 2.566406 C 188.808594 1.6875 193.148438 1.734375 197.398438 1.550781 C 202.109375 1.367188 206.820312 1.410156 211.484375 1.367188 C 211.761719 1.367188 212.085938 1.367188 212.363281 1.320312 C 214.671875 0.535156 216.703125 1.179688 218.507812 2.566406 C 219.800781 1.921875 220.90625 0.949219 222.109375 0.855469 C 223.957031 0.71875 225.894531 1.089844 227.789062 1.320312 C 228.480469 1.410156 229.359375 2.011719 229.867188 1.734375 C 233.5625 0.0234375 237.394531 1.964844 241.136719 1.132812 C 244 0.488281 246.449219 2.335938 249.21875 2.707031 C 251.160156 2.984375 252.914062 3.351562 254.761719 2.289062 C 255.363281 1.964844 256.195312 1.828125 256.886719 1.921875 C 263.492188 2.382812 269.957031 3.492188 276.421875 4.878906 C 277.253906 5.0625 278.039062 5.527344 278.734375 6.035156 C 280.304688 7.097656 281.78125 8.347656 283.398438 9.363281 C 284.089844 9.824219 285.015625 10.011719 285.84375 10.289062 C 287.785156 11.027344 289.679688 11.765625 291.617188 12.507812 C 293.421875 13.199219 294.804688 14.261719 295.960938 16.019531 C 297.070312 17.683594 298.960938 18.839844 300.53125 20.132812 C 301.734375 21.152344 303.164062 21.9375 303.488281 23.832031 C 303.582031 24.523438 304.503906 25.265625 305.242188 25.679688 C 308.015625 27.4375 309.585938 29.933594 310.601562 32.984375 C 311.292969 35.066406 311.757812 37.238281 313.09375 39.085938 C 313.835938 40.058594 313.695312 41.304688 313.371094 42.507812 C 313.1875 43.339844 312.910156 44.402344 313.28125 45.050781 C 314.25 46.761719 313.878906 48.472656 313.648438 50.226562 C 313.09375 55.175781 312.496094 60.121094 311.988281 65.113281 C 311.617188 68.578125 310.046875 71.585938 308.707031 74.726562 C 307.921875 76.578125 305.890625 77.316406 304.089844 77.824219 C 303.074219 78.101562 301.917969 77.457031 301.546875 76.4375 C 300.808594 74.496094 299.378906 73.386719 297.578125 72.507812 C 295.777344 71.585938 295.453125 69.644531 295.3125 67.980469 C 294.945312 64.1875 295.5 60.351562 295.128906 56.5625 C 295.035156 55.542969 295.960938 54.433594 296.5625 52.957031 Z M 120.824219 28.363281 C 119.390625 28.269531 118.835938 28.175781 118.328125 28.222656 C 117.035156 28.363281 115.742188 28.6875 114.449219 28.6875 C 111.632812 28.777344 108.8125 28.5 106.042969 28.777344 C 103.179688 29.101562 100.175781 28.363281 97.5 29.980469 C 97.175781 30.164062 96.621094 30.074219 96.207031 30.117188 C 89.601562 30.488281 83.042969 31.226562 76.53125 32.152344 C 72.929688 32.660156 69.601562 34 66.691406 35.898438 C 62.304688 38.761719 59.070312 42.921875 58.054688 48.238281 C 57.363281 51.84375 55.976562 55.21875 55.976562 59.058594 C 55.976562 62.433594 54.867188 65.761719 54.777344 69.132812 C 54.636719 72.648438 53.484375 76.070312 54.175781 79.628906 C 54.222656 79.90625 54.039062 80.183594 54.039062 80.507812 C 53.898438 83.742188 53.621094 86.976562 53.714844 90.214844 C 53.808594 92.617188 53.714844 94.882812 52.144531 96.5 C 52.652344 98.535156 53.253906 100.246094 53.484375 101.957031 C 53.714844 103.527344 53.621094 105.191406 53.484375 106.808594 C 53.390625 108.429688 53.113281 110.046875 52.929688 111.710938 C 54.175781 111.800781 54.453125 111.015625 54.824219 110.460938 C 58.472656 105.144531 62.121094 99.785156 65.816406 94.511719 C 69.003906 89.9375 72.375 85.453125 75.515625 80.832031 C 78.148438 76.902344 80.871094 73.109375 83.921875 69.503906 C 89.925781 62.433594 95.882812 55.359375 101.933594 48.332031 C 105.398438 44.3125 108.8125 40.289062 112.601562 36.542969 C 114.585938 34.601562 116.390625 32.476562 118.605469 30.71875 C 119.160156 30.304688 119.621094 29.65625 120.777344 28.410156 Z M 120.824219 28.363281 " fill-opacity="1" fill-rule="nonzero"/></svg>