<svg xmlns="http://www.w3.org/2000/svg" xmlns:xlink="http://www.w3.org/1999/xlink" width="500" zoomAndPan="magnify"
    viewBox="0 0 375 374.999991" height="500" preserveAspectRatio="xMidYMid meet" version="1.0">
    <defs>
        <clipPath id="731700ffeb">
            <path d="M 62.578125 124 L 195 124 L 195 138 L 62.578125 138 Z M 62.578125 124 " clip-rule="nonzero" />
        </clipPath>
    </defs>
    <path fill="#000000"
        d="M 174.496094 5.671875 C 174.300781 6.019531 174.191406 6.421875 174.199219 6.851562 C 174.21875 8.09375 175.199219 9.097656 176.425781 9.160156 C 176.476562 9.160156 176.523438 9.164062 176.574219 9.160156 C 178.410156 9.136719 180.222656 9.167969 182.007812 9.253906 C 201.800781 10.222656 218.492188 18.175781 232.085938 33.113281 L 232.078125 33.113281 C 244.304688 48.882812 246.917969 66.34375 239.921875 85.488281 L 239.910156 85.488281 C 230.046875 106.804688 213.488281 118.921875 190.238281 121.835938 L 190.226562 121.835938 C 186.148438 122.191406 182.207031 122.277344 178.40625 122.089844 C 159.632812 121.167969 144.21875 113.652344 132.15625 99.542969 L 132.152344 99.539062 C 120.457031 84.527344 119.488281 66.402344 129.242188 45.160156 L 129.238281 45.160156 C 140.28125 23.964844 155.355469 10.800781 174.457031 5.671875 Z M 178.25 0.0546875 C 178.058594 0.046875 177.863281 0.0625 177.667969 0.101562 C 155.128906 4.667969 137.601562 18.96875 125.082031 42.992188 L 125.03125 43.097656 C 114.433594 66.109375 115.574219 85.882812 128.453125 102.421875 L 128.519531 102.503906 C 141.472656 117.699219 157.992188 125.789062 178.082031 126.773438 C 182.152344 126.976562 186.371094 126.882812 190.734375 126.5 L 190.820312 126.488281 C 215.859375 123.347656 233.667969 110.277344 244.25 87.273438 L 244.320312 87.097656 C 251.933594 66.269531 249.050781 47.265625 235.667969 30.09375 L 235.550781 29.957031 C 221.089844 14.066406 203.332031 5.605469 182.28125 4.570312 C 181.269531 4.523438 180.25 4.488281 179.222656 4.472656 C 180.121094 4.003906 180.640625 2.980469 180.429688 1.933594 C 180.210938 0.859375 179.292969 0.109375 178.25 0.0546875 Z M 178.25 0.0546875 "
        fill-opacity="0.996" fill-rule="nonzero" />
    <path fill="#000000"
        d="M 163.765625 42.660156 C 163.476562 42.644531 163.179688 42.683594 162.890625 42.785156 C 161.667969 43.203125 161.015625 44.535156 161.433594 45.761719 C 162.871094 49.964844 164.171875 53.179688 165.328125 55.40625 C 165.726562 56.171875 166.488281 56.625 167.292969 56.664062 C 167.695312 56.683594 168.105469 56.601562 168.488281 56.402344 C 169.636719 55.804688 170.082031 54.386719 169.484375 53.238281 C 168.4375 51.222656 167.230469 48.226562 165.867188 44.242188 C 165.546875 43.304688 164.695312 42.703125 163.765625 42.660156 Z M 163.765625 42.660156 "
        fill-opacity="0.996" fill-rule="nonzero" />
    <path fill="#000000"
        d="M 190.507812 36.191406 C 190.453125 36.1875 190.394531 36.1875 190.339844 36.1875 C 189.042969 36.21875 188.019531 37.289062 188.050781 38.691406 C 188.0625 39.113281 188.097656 39.65625 188.15625 40.320312 L 188.164062 40.382812 C 188.242188 41.066406 188.546875 44.332031 189.070312 50.179688 L 189.074219 50.1875 C 189.257812 52.152344 189.445312 53.800781 189.636719 55.136719 C 189.800781 56.265625 190.742188 57.089844 191.839844 57.144531 C 191.988281 57.152344 192.136719 57.144531 192.292969 57.121094 C 193.570312 56.9375 194.460938 55.746094 194.277344 54.464844 C 194.09375 53.203125 193.914062 51.636719 193.738281 49.757812 C 193.226562 44.042969 192.921875 40.757812 192.824219 39.902344 C 192.769531 39.296875 192.742188 38.828125 192.734375 38.488281 L 192.726562 38.382812 L 192.726562 38.371094 C 192.648438 37.1875 191.6875 36.25 190.507812 36.191406 Z M 190.507812 36.191406 "
        fill-opacity="0.996" fill-rule="nonzero" />
    <path fill="#000000"
        d="M 221.40625 88.003906 C 220.710938 87.972656 220.007812 88.246094 219.515625 88.8125 C 209.375 100.53125 197.296875 107.023438 183.28125 108.289062 L 183.257812 108.289062 C 181.371094 108.371094 179.550781 108.371094 177.800781 108.285156 C 172.730469 108.039062 168.230469 107.074219 164.300781 105.394531 C 157.761719 102.546875 152.53125 98.714844 148.613281 93.894531 C 148.175781 93.359375 147.550781 93.066406 146.910156 93.035156 C 146.355469 93.007812 145.785156 93.175781 145.316406 93.558594 C 144.3125 94.375 144.160156 95.851562 144.976562 96.855469 C 149.375 102.265625 155.195312 106.542969 162.433594 109.691406 L 162.445312 109.699219 C 166.894531 111.601562 171.9375 112.691406 177.574219 112.96875 C 179.511719 113.0625 181.523438 113.0625 183.601562 112.964844 L 183.703125 112.957031 C 198.972656 111.578125 212.09375 104.550781 223.058594 91.882812 C 223.90625 90.902344 223.800781 89.421875 222.820312 88.574219 C 222.410156 88.21875 221.910156 88.03125 221.40625 88.003906 Z M 221.40625 88.003906 "
        fill-opacity="0.996" fill-rule="nonzero" />
    <path fill="#000000"
        d="M 207.1875 116.769531 C 206.652344 116.742188 206.105469 116.898438 205.644531 117.253906 C 204.621094 118.042969 204.429688 119.515625 205.21875 120.539062 C 226.996094 148.835938 240.222656 179.273438 244.890625 211.847656 C 247.878906 241.863281 242.191406 261.105469 227.820312 269.574219 L 227.78125 269.570312 C 227.320312 269.71875 226.871094 269.851562 226.421875 269.960938 C 225.054688 270.292969 223.734375 270.429688 222.464844 270.367188 C 214.332031 269.96875 208.222656 261.429688 204.132812 244.746094 C 202.308594 236.734375 200.953125 226.078125 200.074219 212.773438 L 200.027344 212.457031 C 199.746094 210.867188 199.308594 197.507812 198.714844 172.378906 L 198.710938 172.304688 L 196.15625 125.347656 C 196.089844 124.140625 195.117188 123.195312 193.933594 123.136719 C 193.851562 123.132812 193.769531 123.132812 193.6875 123.136719 C 192.394531 123.207031 191.40625 124.3125 191.476562 125.605469 L 194.035156 172.5625 L 194.03125 172.558594 C 194.628906 197.882812 195.089844 211.457031 195.414062 213.28125 L 195.410156 213.28125 C 196.308594 226.738281 197.691406 237.574219 199.5625 245.785156 L 199.570312 245.824219 C 204.226562 264.839844 211.667969 274.601562 221.898438 275.101562 C 223.691406 275.191406 225.570312 274.996094 227.535156 274.511719 C 228.222656 274.34375 228.914062 274.140625 229.617188 273.902344 L 230.039062 273.707031 C 246.265625 264.261719 252.765625 243.453125 249.542969 211.28125 L 249.53125 211.183594 C 244.746094 177.792969 231.210938 146.625 208.933594 117.679688 C 208.496094 117.113281 207.851562 116.800781 207.1875 116.769531 Z M 207.1875 116.769531 "
        fill-opacity="0.996" fill-rule="nonzero" />
    <path fill="#000000"
        d="M 309.621094 9.199219 C 308.859375 9.160156 308.09375 9.496094 307.609375 10.160156 C 299.421875 21.402344 290.554688 34.671875 281.003906 49.964844 C 276.011719 57.683594 262.101562 81.472656 239.269531 121.328125 C 233.199219 131.417969 228.617188 138.472656 225.523438 142.488281 C 224.734375 143.515625 224.925781 144.988281 225.949219 145.777344 C 226.34375 146.078125 226.800781 146.238281 227.261719 146.261719 C 228.003906 146.296875 228.75 145.980469 229.238281 145.347656 C 232.441406 141.183594 237.132812 133.96875 243.308594 123.703125 L 243.335938 123.660156 C 266.15625 83.824219 280.03125 60.097656 284.957031 52.480469 L 284.980469 52.449219 C 294.472656 37.246094 303.28125 24.070312 311.398438 12.921875 C 312.160156 11.875 311.929688 10.40625 310.882812 9.644531 C 310.5 9.367188 310.0625 9.21875 309.621094 9.199219 Z M 309.621094 9.199219 "
        fill-opacity="0.996" fill-rule="nonzero" />
    <g clip-path="url(#731700ffeb)">
        <path fill="#000000"
            d="M 192.390625 124.605469 C 191.976562 124.585938 191.554688 124.671875 191.164062 124.886719 C 183.835938 128.863281 171.871094 131.40625 155.269531 132.511719 L 155.261719 132.511719 C 147.007812 132.890625 138.738281 133.03125 130.457031 132.933594 L 130.449219 132.933594 C 99.28125 132.703125 77.511719 132.324219 65.140625 131.800781 C 63.847656 131.746094 62.757812 132.75 62.703125 134.042969 C 62.648438 135.332031 63.640625 136.421875 64.925781 136.484375 C 64.933594 136.484375 64.9375 136.484375 64.945312 136.484375 C 77.371094 137.011719 99.195312 137.390625 130.410156 137.625 L 130.402344 137.625 C 138.792969 137.71875 147.167969 137.574219 155.53125 137.191406 L 155.578125 137.191406 C 172.863281 136.039062 185.46875 133.308594 193.398438 129.007812 C 194.535156 128.390625 194.957031 126.96875 194.339844 125.828125 C 193.933594 125.082031 193.183594 124.644531 192.390625 124.605469 Z M 192.390625 124.605469 "
            fill-opacity="0.996" fill-rule="nonzero" />
    </g>
    <path fill="#000000"
        d="M 103.976562 299.558594 C 104.710938 299.59375 105.472656 299.914062 106.265625 300.523438 C 106.5625 300.753906 106.910156 300.90625 107.277344 300.972656 L 107.238281 300.96875 C 107.761719 301.199219 108.605469 301.804688 109.765625 302.789062 L 109.726562 302.785156 C 107.699219 313.019531 105.757812 319.082031 103.902344 320.980469 L 103.65625 321.273438 C 102.898438 322.355469 102.167969 323.265625 101.46875 323.996094 C 100.21875 325.300781 99.136719 325.929688 98.222656 325.886719 C 97.855469 325.867188 97.519531 325.742188 97.207031 325.507812 L 97.160156 325.503906 C 94.796875 322.6875 95.269531 315.980469 98.582031 305.382812 L 98.566406 305.382812 C 99.292969 303.730469 100.039062 302.40625 100.804688 301.410156 C 101.792969 300.121094 102.851562 299.503906 103.976562 299.558594 Z M 216.328125 271.785156 C 215.300781 271.734375 214.328125 272.367188 213.988281 273.390625 C 205.304688 299.699219 198.167969 319.792969 192.585938 333.675781 C 187.652344 345.671875 183.136719 356.253906 179.03125 365.410156 C 177.578125 368.390625 176.457031 370.023438 175.667969 370.304688 L 175.625 370.300781 C 175.601562 370.300781 175.574219 370.300781 175.546875 370.300781 C 174.789062 370.265625 173.488281 369.191406 171.644531 367.082031 L 171.632812 367.078125 C 156.554688 346.703125 144.113281 331.28125 134.3125 320.820312 L 134.308594 320.816406 C 120.109375 305.730469 111.628906 297.648438 108.863281 296.570312 C 108.851562 296.5625 108.835938 296.558594 108.820312 296.550781 L 108.777344 296.550781 C 107.097656 295.328125 105.480469 294.679688 103.933594 294.605469 C 101.480469 294.484375 99.199219 295.800781 97.085938 298.558594 C 96.089844 299.851562 95.15625 301.496094 94.277344 303.492188 L 94.1875 303.734375 C 90.292969 316.105469 90.085938 324.367188 93.570312 328.519531 L 93.742188 328.707031 C 95.128906 330.03125 96.570312 330.730469 98.0625 330.804688 C 100.214844 330.910156 102.476562 329.71875 104.855469 327.238281 C 105.648438 326.40625 106.457031 325.414062 107.285156 324.261719 L 107.25 324.261719 C 109.539062 321.917969 111.707031 315.988281 113.753906 306.46875 L 113.792969 306.472656 C 117.8125 310.332031 123.511719 316.183594 130.894531 324.027344 C 140.574219 334.359375 152.898438 349.640625 167.867188 369.867188 L 167.980469 370.007812 C 170.75 373.210938 173.25 374.863281 175.480469 374.972656 C 175.824219 374.988281 176.160156 374.972656 176.488281 374.914062 C 176.648438 374.886719 176.808594 374.851562 176.964844 374.808594 L 177.003906 374.796875 C 177.070312 374.777344 177.136719 374.757812 177.203125 374.734375 C 179.21875 374.03125 181.242188 371.585938 183.277344 367.394531 L 183.308594 367.328125 C 187.4375 358.113281 191.976562 347.484375 196.929688 335.441406 L 196.933594 335.425781 C 202.550781 321.457031 209.71875 301.269531 218.4375 274.863281 C 218.84375 273.632812 218.175781 272.308594 216.949219 271.902344 C 216.742188 271.832031 216.535156 271.792969 216.328125 271.785156 Z M 216.328125 271.785156 "
        fill-opacity="0.996" fill-rule="nonzero" />
    <path fill="#000000"
        d="M 138.621094 295.371094 C 138.738281 295.378906 138.855469 295.410156 138.972656 295.46875 L 138.929688 295.464844 C 140.652344 297.414062 142.324219 299.300781 143.957031 301.125 L 143.914062 301.125 C 143.847656 301.394531 143.832031 301.679688 143.867188 301.972656 C 144.53125 307.226562 144.363281 310.605469 143.367188 312.117188 C 143.125 312.480469 142.730469 312.652344 142.183594 312.625 C 141.273438 312.578125 139.941406 311.988281 138.183594 310.855469 L 138.140625 310.855469 C 135.871094 308.671875 134.976562 305.476562 135.460938 301.265625 L 135.4375 301.265625 C 136.054688 298.992188 136.71875 297.3125 137.433594 296.234375 C 137.824219 295.640625 138.21875 295.351562 138.621094 295.371094 Z M 231.273438 272.402344 C 230.136719 272.347656 229.09375 273.132812 228.863281 274.285156 C 224.121094 298.03125 219.054688 325.171875 213.664062 355.710938 L 213.660156 355.710938 C 213.328125 357.5 212.984375 358.652344 212.625 359.171875 L 212.597656 359.171875 C 211.640625 359.125 210.148438 358.261719 208.132812 356.582031 L 208.128906 356.582031 C 192.707031 343.300781 183.085938 334.769531 179.265625 330.992188 L 179.164062 330.898438 C 171.015625 323.730469 158.683594 310.78125 142.164062 292.039062 C 142.027344 291.886719 141.867188 291.75 141.695312 291.632812 C 140.570312 290.894531 139.503906 290.496094 138.496094 290.449219 C 136.648438 290.355469 134.988281 291.425781 133.519531 293.652344 C 132.53125 295.148438 131.664062 297.277344 130.914062 300.039062 L 130.851562 300.347656 C 130.074219 306.335938 131.453125 310.996094 134.988281 314.328125 L 135.304688 314.578125 C 137.980469 316.347656 140.289062 317.277344 142.230469 317.375 C 144.347656 317.476562 146.027344 316.585938 147.273438 314.703125 C 148.414062 312.980469 148.960938 310.304688 148.917969 306.683594 L 148.957031 306.6875 C 160.546875 319.46875 169.582031 328.714844 176.070312 334.417969 L 176.066406 334.417969 C 180.023438 338.316406 189.691406 346.886719 205.074219 360.136719 L 205.101562 360.160156 C 207.925781 362.511719 210.394531 363.738281 212.507812 363.84375 C 212.953125 363.863281 213.378906 363.835938 213.792969 363.757812 L 213.859375 363.746094 C 214.578125 363.589844 215.222656 363.230469 215.789062 362.667969 C 216.894531 361.574219 217.722656 359.53125 218.273438 356.546875 L 218.277344 356.527344 C 223.660156 326.035156 228.722656 298.929688 233.460938 275.203125 C 233.714844 273.933594 232.890625 272.699219 231.621094 272.445312 C 231.503906 272.421875 231.390625 272.410156 231.273438 272.402344 Z M 231.273438 272.402344 "
        fill-opacity="0.996" fill-rule="nonzero" />
</svg>