<svg xmlns="http://www.w3.org/2000/svg" xmlns:xlink="http://www.w3.org/1999/xlink" width="500" zoomAndPan="magnify" viewBox="0 0 375 374.999991" height="500" preserveAspectRatio="xMidYMid meet" version="1.0"><defs><clipPath id="c099ea7d98"><path d="M 0 0 L 375 0 L 375 374.25 L 0 374.25 Z M 0 0 " clip-rule="nonzero"/></clipPath></defs><g clip-path="url(#c099ea7d98)"><path fill="#ffffff" d="M 318.378906 53.660156 C 283.15625 19.035156 236.652344 0.0117188 187.289062 0.0117188 C 186.839844 0.0117188 186.375 0.0117188 185.910156 0.0117188 C 83.542969 0.738281 0.257812 85.386719 0.257812 188.695312 L 0.257812 363 C 0.257812 367.457031 2.949219 371.480469 7.0625 373.191406 C 8.429688 373.753906 9.863281 374.03125 11.285156 374.03125 C 14.152344 374.03125 16.976562 372.90625 19.082031 370.796875 L 50.292969 339.589844 C 57.359375 332.519531 68.410156 331.761719 76.582031 337.757812 C 108.851562 361.480469 147.117188 374.019531 187.269531 374.019531 C 187.300781 374.019531 187.335938 374.019531 187.367188 374.019531 C 237.476562 373.996094 284.609375 354.210938 320.085938 318.328125 C 355.574219 282.433594 374.816406 235.046875 374.265625 184.914062 C 373.738281 135.191406 353.875 88.574219 318.378906 53.660156 Z M 304.417969 302.84375 C 273.121094 334.503906 231.546875 351.960938 187.367188 351.984375 C 187.335938 351.984375 187.3125 351.984375 187.28125 351.984375 C 151.859375 351.984375 118.101562 340.925781 89.652344 320.003906 C 82.03125 314.402344 73.175781 311.644531 64.398438 311.644531 C 53.589844 311.644531 42.882812 315.824219 34.699219 324.007812 L 22.316406 336.390625 L 22.316406 188.707031 C 22.316406 97.472656 95.769531 22.726562 186.066406 22.078125 C 186.472656 22.078125 186.859375 22.078125 187.257812 22.078125 C 277.332031 22.078125 351.230469 95.003906 352.222656 185.191406 C 352.707031 229.378906 335.734375 271.171875 304.417969 302.84375 Z M 304.417969 302.84375 " fill-opacity="1" fill-rule="nonzero"/></g><path fill="#ffffff" d="M 252.960938 219.605469 C 247.128906 213.773438 237.675781 213.773438 231.84375 219.605469 L 222.941406 228.507812 C 222.898438 228.550781 217.628906 233.015625 209.433594 234.429688 C 191.898438 237.4375 174.089844 223.941406 162.234375 212.085938 C 126.878906 176.730469 142.308594 155.328125 146.078125 151.101562 L 154.714844 142.46875 C 160.546875 136.632812 160.546875 127.183594 154.714844 121.351562 L 140.632812 107.265625 C 134.796875 101.433594 125.347656 101.433594 119.515625 107.265625 L 110.613281 116.167969 C 108.023438 118.757812 94.878906 132.886719 90.832031 156.441406 C 87.179688 177.703125 90.488281 210.730469 127.035156 247.277344 C 156.546875 276.785156 183.761719 284.628906 204.339844 284.628906 C 209.246094 284.628906 213.769531 284.1875 217.871094 283.480469 C 241.425781 279.433594 255.550781 266.289062 258.144531 263.695312 L 267.042969 254.796875 C 272.878906 248.964844 272.878906 239.511719 267.042969 233.679688 Z M 146.023438 151.148438 C 145.882812 151.300781 145.804688 151.367188 145.804688 151.367188 Z M 146.023438 151.148438 " fill-opacity="1" fill-rule="nonzero"/></svg>