<svg xmlns="http://www.w3.org/2000/svg" xmlns:xlink="http://www.w3.org/1999/xlink" width="500" zoomAndPan="magnify" viewBox="0 0 375 374.999991" height="500" preserveAspectRatio="xMidYMid meet" version="1.0"><defs><clipPath id="ed7bc1516f"><path d="M 0 0 L 374.25 0 L 374.25 375 L 0 375 Z M 0 0 " clip-rule="nonzero"/></clipPath></defs><g clip-path="url(#ed7bc1516f)"><path fill="#318ba2" d="M 187.128906 0.371094 C 83.941406 0.371094 0 84.320312 0 187.503906 C 0 290.683594 83.941406 374.628906 187.128906 374.628906 C 290.304688 374.628906 374.25 290.683594 374.25 187.503906 C 374.25 84.320312 290.304688 0.371094 187.128906 0.371094 Z M 187.128906 360.011719 C 92 360.011719 14.613281 282.621094 14.613281 187.503906 C 14.613281 92.375 92.003906 14.984375 187.128906 14.984375 C 282.25 14.984375 359.640625 92.375 359.640625 187.503906 C 359.640625 282.621094 282.25 360.011719 187.128906 360.011719 Z M 187.128906 360.011719 " fill-opacity="1" fill-rule="nonzero"/></g><path fill="#318ba2" d="M 187.128906 24.710938 C 97.359375 24.710938 24.335938 97.734375 24.335938 187.503906 C 24.335938 277.265625 97.363281 350.296875 187.128906 350.296875 C 276.886719 350.296875 349.914062 277.265625 349.914062 187.503906 C 349.914062 97.734375 276.886719 24.710938 187.128906 24.710938 Z M 187.128906 24.710938 " fill-opacity="1" fill-rule="nonzero"/></svg>